<?xml version="1.0" encoding="utf-8"?>
<!-- Generator: Adobe Illustrator 25.0.1, SVG Export Plug-In . SVG Version: 6.00 Build 0)  -->
<!DOCTYPE svg PUBLIC "-//W3C//DTD SVG 1.1//EN" "http://www.w3.org/Graphics/SVG/1.1/DTD/svg11.dtd" [
	<!ENTITY st0 "opacity:0.7;">
]>
<svg version="1.1" id="Layer_1" xmlns="http://www.w3.org/2000/svg" xmlns:xlink="http://www.w3.org/1999/xlink" x="0px" y="0px"
	 viewBox="0 0 52 52" style="enable-background:new 0 0 52 52;" xml:space="preserve">
<rect id="shade" x="20" y="2" style="&st0;" width="12" height="1"/>
<polygon id="hat" points="43,27 43,17 42,17 42,15 41,15 41,14 42,14 42,7 41,7 41,5 40,5 40,4 38,4 38,3 30,3 30,2 26,2 26,3 25,3 
	25,2 21,2 21,3 20,3 20,2 16,2 16,3 13,3 13,4 11,4 11,5 10,5 10,7 9,7 9,12 8,12 8,16 9,16 9,18 10,18 10,20 9,20 9,22 8,22 8,31 
	9,31 9,33 10,33 10,35 11,35 11,37 12,37 12,38 14,38 14,39 18,39 18,38 20,38 20,37 21,37 21,35 22,35 22,32 21,32 21,31 20,31 
	20,28 18,28 18,27 17,27 17,26 16,26 16,22 15,22 15,21 14,21 14,20 19,20 19,19 21,19 21,20 25,20 25,19 37,19 37,21 36,21 36,22 
	35,22 35,25 34,25 34,27 33,27 33,28 31,28 31,31 30,31 30,33 32,33 32,34 36,34 36,35 37,35 37,37 39,37 39,36 41,36 41,35 42,35 
	42,34 43,34 43,29 42,29 42,27 "/>
</svg>
