<?xml version="1.0" encoding="utf-8"?>
<!-- Generator: Adobe Illustrator 25.0.1, SVG Export Plug-In . SVG Version: 6.00 Build 0)  -->
<!DOCTYPE svg PUBLIC "-//W3C//DTD SVG 1.1//EN" "http://www.w3.org/Graphics/SVG/1.1/DTD/svg11.dtd" [
	<!ENTITY st0 "fill:#6E6E6E;">
]>
<svg version="1.1" id="Layer_1" xmlns="http://www.w3.org/2000/svg" xmlns:xlink="http://www.w3.org/1999/xlink" x="0px" y="0px"
	 viewBox="0 0 52 52" style="enable-background:new 0 0 52 52;" xml:space="preserve">
<g id="shade">
	<rect x="35" y="2" style="&st0;" width="4" height="3"/>
	<rect x="12" y="3" style="&st0;" width="4" height="3"/>
</g>
<path id="hat" d="M33,0v8h-1v1h-1v1h-1v1h-1v1h-1v1h-6v-1h-1v-1h-1v-1h-1V9h-1V1h-8v7h6v1h1v1h1v1h1v1h1v1h1v1h1v3h6v-3h1v-1h1v-1h1
	v-1h1v-1h1V9h1V8h1V7h6V3h1V0H33z M17,6h-1V5h-1V4h-2v1h1v1h1v1h-4V2h6V6z M27,16h-4v-1h4V16z M41,2h-1v4h-4V5h1V4h1V3h-2v1h-1v1h-1
	V1h7V2z"/>
</svg>
