<?xml version="1.0" encoding="utf-8"?>
<!-- Generator: Adobe Illustrator 25.0.1, SVG Export Plug-In . SVG Version: 6.00 Build 0)  -->
<!DOCTYPE svg PUBLIC "-//W3C//DTD SVG 1.1//EN" "http://www.w3.org/Graphics/SVG/1.1/DTD/svg11.dtd" [
	<!ENTITY st0 "fill:#9D5500;">
]>
<svg version="1.1" id="Layer_1" xmlns="http://www.w3.org/2000/svg" xmlns:xlink="http://www.w3.org/1999/xlink" x="0px" y="0px"
	 viewBox="0 0 52 52" style="enable-background:new 0 0 52 52;" xml:space="preserve">
<g id="color">
	<polygon style="&st0;" points="47,3 47,2 46,2 46,3 45,3 45,4 43,4 43,2 42,2 42,1 41,1 41,2 40,2 40,4 41,4 41,5 40,5 40,4 39,4 
		39,1 38,1 38,0 35,0 35,1 34,1 34,2 35,2 35,3 36,3 36,5 37,5 37,6 38,6 38,7 39,7 39,8 40,8 40,9 41,9 41,11 39,11 39,12 37,12 
		37,8 36,8 36,7 35,7 35,6 34,6 34,7 33,7 33,8 34,8 34,9 33,9 33,10 32,10 32,12 33,12 33,13 34,13 34,14 35,14 35,15 34,15 34,16 
		33,16 33,18 32,18 32,19 33,19 33,20 35,20 35,19 36,19 36,18 37,18 37,16 39,16 39,15 41,15 41,14 42,14 42,13 44,13 44,12 45,12 
		45,11 46,11 46,9 47,9 47,5 48,5 48,3 	"/>
	<polygon style="&st0;" points="4,3 4,2 5,2 5,3 6,3 6,4 8,4 8,2 9,2 9,1 10,1 10,2 11,2 11,4 10,4 10,5 11,5 11,4 12,4 12,1 13,1 
		13,0 16,0 16,1 17,1 17,2 16,2 16,3 15,3 15,5 14,5 14,6 13,6 13,7 12,7 12,8 11,8 11,9 10,9 10,11 12,11 12,12 14,12 14,8 15,8 
		15,7 16,7 16,6 17,6 17,7 18,7 18,8 17,8 17,9 18,9 18,10 19,10 19,12 18,12 18,13 17,13 17,14 16,14 16,15 17,15 17,16 18,16 
		18,18 19,18 19,19 18,19 18,20 16,20 16,19 15,19 15,18 14,18 14,16 12,16 12,15 10,15 10,14 9,14 9,13 7,13 7,12 6,12 6,11 5,11 
		5,9 4,9 4,5 3,5 3,3 	"/>
</g>
<g id="outline_1_">
	<rect x="16" y="1" width="1" height="1"/>
	<rect x="13" y="0" width="3" height="1"/>
	<rect x="12" y="1" width="1" height="3"/>
	<polygon points="14,2 16,2 16,3 15,3 15,5 14,5 	"/>
	<rect x="13" y="5" width="1" height="1"/>
	<rect x="12" y="6" width="1" height="1"/>
	<rect x="11" y="4" width="1" height="1"/>
	<rect x="10" y="2" width="1" height="2"/>
	<rect x="9" y="1" width="1" height="1"/>
	<rect x="8" y="2" width="1" height="2"/>
	<polygon points="10,5 11,5 11,7 10,7 10,8 9,8 9,4 10,4 	"/>
	<rect x="11" y="7" width="1" height="1"/>
	<rect x="10" y="8" width="1" height="1"/>
	<rect x="9" y="9" width="1" height="2"/>
	<polygon points="7,7 7,9 6,9 6,4 8,4 8,7 	"/>
	<rect x="5" y="3" width="1" height="1"/>
	<rect x="4" y="2" width="1" height="1"/>
	<rect x="3" y="3" width="1" height="2"/>
	<rect x="4" y="5" width="1" height="4"/>
	<rect x="5" y="9" width="1" height="2"/>
	<rect x="6" y="11" width="1" height="1"/>
	<rect x="7" y="12" width="2" height="1"/>
	<rect x="10" y="11" width="2" height="1"/>
	<rect x="12" y="12" width="2" height="1"/>
	<rect x="9" y="13" width="1" height="1"/>
	<rect x="10" y="14" width="2" height="1"/>
	<rect x="12" y="15" width="2" height="1"/>
	<rect x="14" y="16" width="1" height="2"/>
	<rect x="15" y="18" width="1" height="1"/>
	<rect x="16" y="19" width="2" height="1"/>
	<rect x="18" y="18" width="1" height="1"/>
	<rect x="17" y="16" width="1" height="2"/>
	<rect x="16" y="15" width="1" height="1"/>
	<polygon points="15,13 17,13 17,14 16,14 16,15 15,15 	"/>
	<rect x="17" y="12" width="1" height="1"/>
	<rect x="18" y="10" width="1" height="2"/>
	<polygon points="17,11 16,11 16,8 17,8 17,9 18,9 18,10 17,10 	"/>
	<rect x="17" y="7" width="1" height="1"/>
	<rect x="16" y="6" width="1" height="1"/>
	<rect x="15" y="7" width="1" height="1"/>
	<rect x="14" y="8" width="1" height="4"/>
	<rect x="36" y="8" width="1" height="4"/>
	<rect x="34" y="1" width="1" height="1"/>
	<rect x="35" width="3" height="1"/>
	<rect x="38" y="1" width="1" height="3"/>
	<polygon points="37,2 35,2 35,3 36,3 36,5 37,5 	"/>
	<rect x="37" y="5" width="1" height="1"/>
	<rect x="38" y="6" width="1" height="1"/>
	<rect x="39" y="4" width="1" height="1"/>
	<rect x="40" y="2" width="1" height="2"/>
	<rect x="41" y="1" width="1" height="1"/>
	<rect x="42" y="2" width="1" height="2"/>
	<polygon points="41,5 40,5 40,7 41,7 41,8 42,8 42,4 41,4 	"/>
	<rect x="39" y="7" width="1" height="1"/>
	<rect x="40" y="8" width="1" height="1"/>
	<rect x="41" y="9" width="1" height="2"/>
	<polygon points="44,7 44,9 45,9 45,4 43,4 43,7 	"/>
	<rect x="45" y="3" width="1" height="1"/>
	<rect x="46" y="2" width="1" height="1"/>
	<rect x="47" y="3" width="1" height="2"/>
	<rect x="46" y="5" width="1" height="4"/>
	<rect x="45" y="9" width="1" height="2"/>
	<rect x="44" y="11" width="1" height="1"/>
	<rect x="42" y="12" width="2" height="1"/>
	<rect x="39" y="11" width="2" height="1"/>
	<rect x="37" y="12" width="2" height="1"/>
	<rect x="41" y="13" width="1" height="1"/>
	<rect x="39" y="14" width="2" height="1"/>
	<rect x="37" y="15" width="2" height="1"/>
	<rect x="36" y="16" width="1" height="2"/>
	<rect x="35" y="18" width="1" height="1"/>
	<rect x="33" y="19" width="2" height="1"/>
	<rect x="32" y="18" width="1" height="1"/>
	<rect x="33" y="16" width="1" height="2"/>
	<rect x="34" y="15" width="1" height="1"/>
	<polygon points="36,13 34,13 34,14 35,14 35,15 36,15 	"/>
	<rect x="33" y="12" width="1" height="1"/>
	<rect x="32" y="10" width="1" height="2"/>
	<polygon points="34,11 35,11 35,8 34,8 34,9 33,9 33,10 34,10 	"/>
	<rect x="33" y="7" width="1" height="1"/>
	<rect x="34" y="6" width="1" height="1"/>
	<rect x="35" y="7" width="1" height="1"/>
</g>
</svg>
