<?xml version="1.0" encoding="utf-8"?>
<!-- Generator: Adobe Illustrator 25.0.1, SVG Export Plug-In . SVG Version: 6.00 Build 0)  -->
<!DOCTYPE svg PUBLIC "-//W3C//DTD SVG 1.1//EN" "http://www.w3.org/Graphics/SVG/1.1/DTD/svg11.dtd" [
	<!ENTITY st0 "fill:#CACACA;">
	<!ENTITY st1 "fill:#FFFFFF;">
	<!ENTITY st2 "fill:#E900F8;">
]>
<svg version="1.1" id="Layer_1" xmlns="http://www.w3.org/2000/svg" xmlns:xlink="http://www.w3.org/1999/xlink" x="0px" y="0px"
	 viewBox="0 0 52 52" style="enable-background:new 0 0 52 52;" xml:space="preserve">
<polygon id="nose" style="&st0;" points="28,28 28,27 23,27 23,28 22,28 22,31 23,31 23,32 24,32 24,31 25,31 25,32 26,32 26,31 
	27,31 27,32 28,32 28,31 29,31 29,28 "/>
<polygon id="whites" style="&st1;" points="45,6 43,6 43,2 37,2 37,3 36,3 36,4 35,4 35,5 34,5 34,6 33,6 33,8 32,8 32,11 31,11 
	31,12 30,12 30,13 29,13 29,14 21,14 21,15 20,15 20,14 19,14 19,13 18,13 18,10 17,10 17,7 15,7 15,5 13,5 13,3 12,3 12,2 7,2 7,7 
	5,7 5,10 6,10 6,13 7,13 7,14 8,14 8,15 9,15 9,16 10,16 10,17 11,17 11,18 12,18 12,19 14,19 14,20 15,20 15,21 16,21 16,20 17,20 
	17,18 18,18 18,17 20,17 20,16 32,16 32,17 33,17 33,19 35,19 35,18 36,18 36,17 38,17 38,14 41,14 41,12 43,12 43,9 45,9 "/>
<g id="pinks">
	<polygon style="&st2;" points="18,14 17,14 17,11 16,11 16,10 15,10 15,8 14,8 14,7 13,7 13,6 8,6 8,12 10,12 10,14 12,14 12,15 
		13,15 13,17 15,17 15,19 16,19 16,18 17,18 17,17 18,17 18,16 19,16 19,15 18,15 	"/>
	<polygon style="&st2;" points="42,6 36,6 36,7 35,7 35,9 34,9 34,10 33,10 33,12 32,12 32,13 31,13 31,15 32,15 32,16 33,16 33,17 
		34,17 34,18 35,18 35,16 37,16 37,14 38,14 38,13 40,13 40,11 42,11 	"/>
</g>
<g id="outline">
	<rect x="7" y="1" width="5" height="1"/>
	<rect x="12" y="2" width="1" height="1"/>
	<polygon points="15,5 15,4 14,4 14,3 13,3 13,5 	"/>
	<polygon points="17,7 17,6 16,6 16,5 15,5 15,7 	"/>
	<rect x="17" y="7" width="1" height="3"/>
	<rect x="18" y="10" width="1" height="3"/>
	<rect x="19" y="13" width="1" height="1"/>
	<rect x="29" y="12" width="1" height="1"/>
	<rect x="30" y="11" width="1" height="1"/>
	<rect x="31" y="8" width="1" height="3"/>
	<rect x="32" y="6" width="1" height="2"/>
	<rect x="33" y="5" width="1" height="1"/>
	<rect x="34" y="4" width="1" height="1"/>
	<rect x="35" y="3" width="1" height="1"/>
	<rect x="36" y="2" width="1" height="1"/>
	<rect x="37" y="1" width="6" height="1"/>
	<polygon points="44,5 44,2 43,2 43,6 45,6 45,9 46,9 46,5 	"/>
	<polygon points="43,12 44,12 44,10 45,10 45,9 43,9 	"/>
	<polygon points="41,14 42,14 42,13 43,13 43,12 41,12 	"/>
	<polygon points="38,17 39,17 39,15 41,15 41,14 38,14 	"/>
	<rect x="36" y="17" width="2" height="1"/>
	<rect x="35" y="18" width="1" height="1"/>
	<rect x="33" y="19" width="2" height="1"/>
	<polygon points="32,17 32,16 31,16 31,15 30,15 30,14 29,14 29,13 21,13 21,14 28,14 28,15 29,15 29,16 21,16 21,14 20,14 20,17 
		31,17 31,18 32,18 32,19 33,19 33,17 	"/>
	<polygon points="18,18 17,18 17,20 18,20 18,19 19,19 19,18 20,18 20,17 18,17 	"/>
	<polygon points="16,21 15,21 15,22 17,22 17,20 16,20 	"/>
	<rect x="14" y="20" width="1" height="1"/>
	<rect x="12" y="19" width="2" height="1"/>
	<rect x="11" y="18" width="1" height="1"/>
	<rect x="10" y="17" width="1" height="1"/>
	<rect x="9" y="16" width="1" height="1"/>
	<rect x="8" y="15" width="1" height="1"/>
	<rect x="7" y="14" width="1" height="1"/>
	<rect x="6" y="13" width="1" height="1"/>
	<rect x="5" y="10" width="1" height="3"/>
	<polygon points="7,7 7,2 6,2 6,6 4,6 4,10 5,10 5,7 	"/>
	<rect x="24" y="31" width="1" height="1"/>
	<rect x="26" y="31" width="1" height="1"/>
</g>
</svg>
