<?xml version="1.0" encoding="utf-8"?>
<!-- Generator: Adobe Illustrator 25.0.1, SVG Export Plug-In . SVG Version: 6.00 Build 0)  -->
<!DOCTYPE svg PUBLIC "-//W3C//DTD SVG 1.1//EN" "http://www.w3.org/Graphics/SVG/1.1/DTD/svg11.dtd" [
	<!ENTITY st0 "fill:#F80303;">
]>
<svg version="1.1" id="Layer_1" xmlns="http://www.w3.org/2000/svg" xmlns:xlink="http://www.w3.org/1999/xlink" x="0px" y="0px"
	 viewBox="0 0 52 52" style="enable-background:new 0 0 52 52;" xml:space="preserve">
<g id="outlines">
	<rect x="14" y="5" width="1" height="7"/>
	<rect x="15" y="4" width="1" height="1"/>
	<rect x="16" y="5" width="1" height="1"/>
	<rect x="17" y="6" width="1" height="1"/>
	<rect x="18" y="7" width="1" height="1"/>
	<rect x="19" y="8" width="1" height="1"/>
	<rect x="20" y="9" width="1" height="1"/>
	<rect x="21" y="10" width="1" height="1"/>
	<rect x="22" y="11" width="1" height="1"/>
	<rect x="21" y="12" width="1" height="1"/>
	<rect x="20" y="13" width="1" height="1"/>
	<rect x="16" y="14" width="4" height="1"/>
	<rect x="15" y="12" width="1" height="2"/>
	<rect x="36" y="5" width="1" height="7"/>
	<rect x="35" y="4" width="1" height="1"/>
	<rect x="34" y="5" width="1" height="1"/>
	<rect x="33" y="6" width="1" height="1"/>
	<rect x="32" y="7" width="1" height="1"/>
	<rect x="31" y="8" width="1" height="1"/>
	<rect x="30" y="9" width="1" height="1"/>
	<rect x="29" y="10" width="1" height="1"/>
	<rect x="28" y="11" width="1" height="1"/>
	<rect x="29" y="12" width="1" height="1"/>
	<rect x="30" y="13" width="1" height="1"/>
	<rect x="31" y="14" width="4" height="1"/>
	<rect x="35" y="12" width="1" height="2"/>
</g>
<g id="reds">
	<polygon style="&st0;" points="35,5 35,6 34,6 34,7 33,7 33,8 32,8 32,9 31,9 31,10 30,10 30,11 29,11 29,12 30,12 30,13 31,13 
		31,14 35,14 35,12 36,12 36,5 	"/>
	<polygon style="&st0;" points="16,5 16,6 17,6 17,7 18,7 18,8 19,8 19,9 20,9 20,10 21,10 21,11 22,11 22,12 21,12 21,13 20,13 
		20,14 16,14 16,12 15,12 15,5 	"/>
</g>
</svg>
