<?xml version="1.0" encoding="utf-8"?>
<!-- Generator: Adobe Illustrator 25.0.1, SVG Export Plug-In . SVG Version: 6.00 Build 0)  -->
<!DOCTYPE svg PUBLIC "-//W3C//DTD SVG 1.1//EN" "http://www.w3.org/Graphics/SVG/1.1/DTD/svg11.dtd" [
	<!ENTITY st0 "fill:#F80303;">
	<!ENTITY st1 "fill:#E9F800;">
	<!ENTITY st2 "fill:#00F80C;">
]>
<svg version="1.1" id="Layer_1" xmlns="http://www.w3.org/2000/svg" xmlns:xlink="http://www.w3.org/1999/xlink" x="0px" y="0px"
	 viewBox="0 0 52 52" style="enable-background:new 0 0 52 52;" xml:space="preserve">
<polygon id="blacks" points="32,16 32,17 18,17 18,16 14,16 14,19 17,19 17,20 33,20 33,19 37,19 37,16 "/>
<polygon id="reds" style="&st0;" points="36,14 36,13 14,13 14,16 18,16 18,17 32,17 32,16 37,16 37,14 "/>
<polygon id="yellow" style="&st1;" points="34,11 34,10 16,10 16,12 15,12 15,13 35,13 35,11 "/>
<polygon id="green" style="&st2;" points="32,9 32,8 31,8 31,7 30,7 30,6 20,6 20,7 19,7 19,8 18,8 18,9 17,9 17,10 33,10 33,9 "/>
</svg>
