<?xml version="1.0" encoding="utf-8"?>
<!-- Generator: Adobe Illustrator 25.0.1, SVG Export Plug-In . SVG Version: 6.00 Build 0)  -->
<!DOCTYPE svg PUBLIC "-//W3C//DTD SVG 1.1//EN" "http://www.w3.org/Graphics/SVG/1.1/DTD/svg11.dtd" [
	<!ENTITY st0 "fill:#E9F800;">
	<!ENTITY st1 "fill:#F80000;">
]>
<svg version="1.1" id="Layer_1" xmlns="http://www.w3.org/2000/svg" xmlns:xlink="http://www.w3.org/1999/xlink" x="0px" y="0px"
	 viewBox="0 0 52 52" style="enable-background:new 0 0 52 52;" xml:space="preserve">
<polygon id="yellow" style="&st0;" points="36,4 36,5 35,5 35,7 34,7 34,5 33,5 33,4 32,4 32,3 31,3 31,4 30,4 30,5 29,5 29,7 28,7 
	28,5 27,5 27,4 26,4 26,3 25,3 25,4 24,4 24,5 23,5 23,7 22,7 22,5 21,5 21,4 20,4 20,3 19,3 19,4 18,4 18,5 17,5 17,7 16,7 16,5 
	15,5 15,4 14,4 14,12 37,12 37,4 "/>
<g id="reds">
	<rect x="31" y="5" style="&st1;" width="1" height="1"/>
	<rect x="25" y="5" style="&st1;" width="1" height="1"/>
	<rect x="19" y="5" style="&st1;" width="1" height="1"/>
</g>
<g id="outline">
	<polygon points="37,2 37,3 36,3 36,4 37,4 37,12 14,12 14,4 15,4 15,3 14,3 14,2 13,2 13,13 38,13 38,2 	"/>
	<rect x="35" y="4" width="1" height="1"/>
	<rect x="34" y="5" width="1" height="2"/>
	<rect x="33" y="4" width="1" height="1"/>
	<rect x="32" y="3" width="1" height="1"/>
	<rect x="31" y="2" width="1" height="1"/>
	<rect x="30" y="3" width="1" height="1"/>
	<rect x="29" y="4" width="1" height="1"/>
	<rect x="28" y="5" width="1" height="2"/>
	<rect x="27" y="4" width="1" height="1"/>
	<rect x="26" y="3" width="1" height="1"/>
	<rect x="25" y="2" width="1" height="1"/>
	<rect x="24" y="3" width="1" height="1"/>
	<rect x="23" y="4" width="1" height="1"/>
	<rect x="22" y="5" width="1" height="2"/>
	<rect x="21" y="4" width="1" height="1"/>
	<rect x="20" y="3" width="1" height="1"/>
	<rect x="19" y="2" width="1" height="1"/>
	<rect x="18" y="3" width="1" height="1"/>
	<rect x="17" y="4" width="1" height="1"/>
	<rect x="16" y="5" width="1" height="2"/>
	<rect x="15" y="4" width="1" height="1"/>
</g>
</svg>
