<?xml version="1.0" encoding="utf-8"?>
<!-- Generator: Adobe Illustrator 25.0.1, SVG Export Plug-In . SVG Version: 6.00 Build 0)  -->
<!DOCTYPE svg PUBLIC "-//W3C//DTD SVG 1.1//EN" "http://www.w3.org/Graphics/SVG/1.1/DTD/svg11.dtd" [
	<!ENTITY st0 "fill:#009D00;">
	<!ENTITY st1 "fill:#E9F800;">
	<!ENTITY st2 "fill:#008800;">
	<!ENTITY st3 "fill:#9D5500;">
]>
<svg version="1.1" id="Layer_1" xmlns="http://www.w3.org/2000/svg" xmlns:xlink="http://www.w3.org/1999/xlink" x="0px" y="0px"
	 viewBox="0 0 52 52" style="enable-background:new 0 0 52 52;" xml:space="preserve">
<polygon id="green1" style="&st0;" points="36,14 36,13 35,13 35,11 34,11 34,10 33,10 33,9 32,9 32,8 31,8 31,7 30,7 30,6 20,6 
	20,7 19,7 19,8 18,8 18,9 17,9 17,10 16,10 16,12 15,12 15,13 14,13 14,18 15,18 15,26 17,26 17,18 34,18 34,26 36,26 36,18 37,18 
	37,14 "/>
<g id="outlines">
	<rect x="20" y="5" width="10" height="1"/>
	<rect x="30" y="6" width="1" height="1"/>
	<rect x="31" y="7" width="1" height="1"/>
	<rect x="32" y="8" width="1" height="1"/>
	<rect x="33" y="9" width="1" height="1"/>
	<rect x="34" y="10" width="1" height="1"/>
	<rect x="35" y="11" width="1" height="2"/>
	<rect x="36" y="13" width="1" height="1"/>
	<polygon points="37,14 37,18 14,18 14,13 13,13 13,19 38,19 38,14 	"/>
	<rect x="14" y="12" width="1" height="1"/>
	<rect x="15" y="10" width="1" height="2"/>
	<rect x="16" y="9" width="1" height="1"/>
	<rect x="17" y="8" width="1" height="1"/>
	<rect x="18" y="7" width="1" height="1"/>
	<rect x="19" y="6" width="1" height="1"/>
	<rect x="34" y="24" width="2" height="1"/>
	<rect x="15" y="24" width="2" height="1"/>
</g>
<polygon id="badge" style="&st1;" points="27,12 27,11 26,11 26,10 25,10 25,11 24,11 24,12 23,12 23,13 24,13 24,14 25,14 25,15 
	26,15 26,14 27,14 27,13 28,13 28,12 "/>
<g id="green2">
	<rect x="19" y="7" style="&st2;" width="2" height="1"/>
	<polygon style="&st2;" points="23,7 22,7 22,9 23,9 23,10 24,10 24,8 23,8 	"/>
	<rect x="24" y="7" style="&st2;" width="1" height="1"/>
	<rect x="29" y="7" style="&st2;" width="2" height="1"/>
	<rect x="31" y="9" style="&st2;" width="2" height="1"/>
	<rect x="27" y="9" style="&st2;" width="3" height="1"/>
	<rect x="20" y="9" style="&st2;" width="2" height="1"/>
	<rect x="17" y="9" style="&st2;" width="2" height="1"/>
	<rect x="21" y="11" style="&st2;" width="1" height="1"/>
	<rect x="22" y="12" style="&st2;" width="1" height="1"/>
	<rect x="23" y="13" style="&st2;" width="1" height="1"/>
	<rect x="24" y="14" style="&st2;" width="1" height="1"/>
	<rect x="20" y="13" style="&st2;" width="2" height="2"/>
	<rect x="34" y="11" style="&st2;" width="1" height="1"/>
	<polygon style="&st2;" points="32,14 32,13 31,13 31,12 33,12 33,11 30,11 30,12 29,12 29,11 27,11 27,12 28,12 28,13 30,13 30,14 
			"/>
	<rect x="35" y="13" style="&st2;" width="1" height="1"/>
	<rect x="34" y="15" style="&st2;" width="3" height="1"/>
	<rect x="31" y="15" style="&st2;" width="2" height="1"/>
	<polygon style="&st2;" points="27,16 28,16 28,14 27,14 27,15 26,15 26,18 30,18 30,17 27,17 	"/>
	<rect x="33" y="17" style="&st2;" width="4" height="1"/>
	<rect x="31" y="17" style="&st2;" width="1" height="1"/>
	<polygon style="&st2;" points="22,18 23,18 23,17 24,17 24,16 22,16 	"/>
	<polygon style="&st2;" points="18,16 19,16 19,17 18,17 18,18 20,18 20,15 18,15 	"/>
	<polygon style="&st2;" points="17,14 17,13 18,13 18,12 17,12 17,11 16,11 16,15 15,15 15,16 14,16 14,18 16,18 16,16 17,16 17,15 
		18,15 18,14 	"/>
	<rect x="18" y="11" style="&st2;" width="2" height="1"/>
</g>
<g id="reds">
	<rect x="26" y="7" style="&st3;" width="2" height="1"/>
	<polygon style="&st3;" points="30,11 32,11 32,10 31,10 31,9 30,9 30,10 29,10 29,12 30,12 	"/>
	<polygon style="&st3;" points="33,13 33,12 32,12 32,14 34,14 34,15 35,15 35,13 	"/>
	<polygon style="&st3;" points="18,9 19,9 19,10 18,10 18,11 20,11 20,12 21,12 21,10 20,10 20,9 22,9 22,8 18,8 	"/>
	<rect x="24" y="9" style="&st3;" width="3" height="1"/>
	<polygon style="&st3;" points="18,15 17,15 17,16 16,16 16,18 18,18 18,17 19,17 19,16 18,16 	"/>
	<rect x="27" y="13" style="&st3;" width="2" height="1"/>
	<rect x="26" y="14" style="&st3;" width="1" height="1"/>
	<polygon style="&st3;" points="30,16 30,18 31,18 31,17 32,17 32,18 33,18 33,16 	"/>
</g>
</svg>
