<?xml version="1.0" encoding="utf-8"?>
<!-- Generator: Adobe Illustrator 25.0.1, SVG Export Plug-In . SVG Version: 6.00 Build 0)  -->
<!DOCTYPE svg PUBLIC "-//W3C//DTD SVG 1.1//EN" "http://www.w3.org/Graphics/SVG/1.1/DTD/svg11.dtd" [
	<!ENTITY st0 "fill:#B003F8;">
	<!ENTITY st1 "fill:#14F803;">
	<!ENTITY st2 "fill:#EAF803;">
	<!ENTITY st3 "fill:#F803EF;">
	<!ENTITY st4 "fill:#03F8EF;">
	<!ENTITY st5 "fill:#F80303;">
	<!ENTITY st6 "fill:#061414;">
]>
<svg version="1.1" id="Layer_1" xmlns="http://www.w3.org/2000/svg" xmlns:xlink="http://www.w3.org/1999/xlink" x="0px" y="0px"
	 viewBox="0 0 52 52" style="enable-background:new 0 0 52 52;" xml:space="preserve">
<polygon id="purple" style="&st0;" points="27,2 26,2 26,1 24,1 24,2 23,2 23,4 24,4 24,5 26,5 26,4 27,4 "/>
<polygon id="green" style="&st1;" points="26,5 26,6 24,6 24,5 23,5 23,7 27,7 27,5 "/>
<rect id="yellow" x="22" y="7" style="&st2;" width="6" height="3"/>
<rect id="pink" x="21" y="10" style="&st3;" width="8" height="2"/>
<rect id="cyan" x="20" y="12" style="&st4;" width="10" height="2"/>
<rect id="red" x="19" y="14" style="&st5;" width="12" height="2"/>
<g id="outline">
	<rect x="35" y="13" style="&st6;" width="1" height="1"/>
	<rect x="34" y="14" style="&st6;" width="1" height="1"/>
	<rect x="33" y="15" style="&st6;" width="1" height="1"/>
	<rect x="15" y="15" style="&st6;" width="1" height="1"/>
	<rect x="14" y="14" style="&st6;" width="1" height="1"/>
	<polygon style="&st6;" points="32,14 31,14 31,16 19,16 19,14 18,14 18,16 16,16 16,17 33,17 33,16 32,16 	"/>
	<rect x="30" y="12" style="&st6;" width="1" height="2"/>
	<rect x="29" y="10" style="&st6;" width="1" height="2"/>
	<rect x="28" y="7" style="&st6;" width="1" height="3"/>
	<rect x="27" y="5" style="&st6;" width="1" height="2"/>
	<rect x="22" y="5" style="&st6;" width="1" height="2"/>
	<rect x="21" y="7" style="&st6;" width="1" height="3"/>
	<rect x="20" y="10" style="&st6;" width="1" height="2"/>
	<rect x="19" y="12" style="&st6;" width="1" height="2"/>
	<rect x="24" y="5" style="&st6;" width="2" height="1"/>
	<rect x="26" y="4" style="&st6;" width="1" height="1"/>
	<rect x="27" y="2" style="&st6;" width="1" height="2"/>
	<rect x="26" y="1" style="&st6;" width="1" height="1"/>
	<rect x="24" style="&st6;" width="2" height="1"/>
	<rect x="23" y="1" style="&st6;" width="1" height="1"/>
	<rect x="22" y="2" style="&st6;" width="1" height="2"/>
	<rect x="23" y="4" style="&st6;" width="1" height="1"/>
</g>
</svg>
