<?xml version="1.0" encoding="utf-8"?>
<!-- Generator: Adobe Illustrator 25.0.1, SVG Export Plug-In . SVG Version: 6.00 Build 0)  -->
<!DOCTYPE svg PUBLIC "-//W3C//DTD SVG 1.1//EN" "http://www.w3.org/Graphics/SVG/1.1/DTD/svg11.dtd" [
	<!ENTITY st0 "fill:#F803DE;">
	<!ENTITY st1 "fill:#BDBDBD;">
	<!ENTITY st2 "fill:#E9F800;">
	<!ENTITY st3 "fill:#061414;">
]>
<svg version="1.1" id="Layer_1" xmlns="http://www.w3.org/2000/svg" xmlns:xlink="http://www.w3.org/1999/xlink" x="0px" y="0px"
	 viewBox="0 0 52 52" style="enable-background:new 0 0 52 52;" xml:space="preserve">
<polygon id="pink" style="&st0;" points="36,11 36,10 35,10 35,9 34,9 34,8 33,8 33,7 32,7 32,6 31,6 31,5 30,5 30,4 20,4 20,5 
	19,5 19,6 18,6 18,7 17,7 17,8 16,8 16,11 15,11 15,12 16,12 16,13 18,13 18,14 20,14 20,15 35,15 35,14 36,14 36,13 37,13 37,11 
	"/>
<polygon id="grey" style="&st1;" points="20,16 20,15 18,15 18,14 16,14 16,13 14,13 14,14 12,14 12,15 11,15 11,17 12,17 12,18 
	13,18 13,19 15,19 15,20 16,20 16,21 25,21 25,20 26,20 26,19 27,19 27,18 28,18 28,17 30,17 30,16 "/>
<polygon id="yellow" style="&st2;" points="19,17 19,16 17,16 17,15 14,15 14,18 16,18 16,19 17,19 17,20 20,20 20,17 "/>
<g id="outline">
	<rect x="20" y="3" style="&st3;" width="10" height="1"/>
	<rect x="30" y="4" style="&st3;" width="1" height="1"/>
	<rect x="31" y="5" style="&st3;" width="1" height="1"/>
	<rect x="32" y="6" style="&st3;" width="1" height="1"/>
	<rect x="33" y="7" style="&st3;" width="1" height="1"/>
	<rect x="34" y="8" style="&st3;" width="1" height="1"/>
	<rect x="35" y="9" style="&st3;" width="1" height="1"/>
	<rect x="36" y="10" style="&st3;" width="1" height="1"/>
	<polygon style="&st3;" points="37,11 37,13 36,13 36,14 38,14 38,11 	"/>
	<rect x="35" y="14" style="&st3;" width="1" height="1"/>
	<polygon style="&st3;" points="20,16 30,16 30,17 31,17 31,16 35,16 35,15 20,15 	"/>
	<rect x="28" y="17" style="&st3;" width="2" height="1"/>
	<rect x="27" y="18" style="&st3;" width="1" height="1"/>
	<rect x="26" y="19" style="&st3;" width="1" height="1"/>
	<rect x="25" y="20" style="&st3;" width="1" height="1"/>
	<rect x="16" y="21" style="&st3;" width="9" height="1"/>
	<rect x="15" y="20" style="&st3;" width="1" height="1"/>
	<rect x="13" y="19" style="&st3;" width="2" height="1"/>
	<rect x="18" y="18" style="&st3;" width="1" height="1"/>
	<rect x="15" y="16" style="&st3;" width="1" height="1"/>
	<rect x="12" y="18" style="&st3;" width="1" height="1"/>
	<rect x="11" y="17" style="&st3;" width="1" height="1"/>
	<rect x="10" y="15" style="&st3;" width="1" height="2"/>
	<rect x="11" y="14" style="&st3;" width="1" height="1"/>
	<polygon style="&st3;" points="14,13 16,13 16,12 15,12 15,11 14,11 14,12 13,12 13,13 12,13 12,14 14,14 	"/>
	<rect x="18" y="14" style="&st3;" width="2" height="1"/>
	<rect x="16" y="13" style="&st3;" width="2" height="1"/>
	<rect x="15" y="8" style="&st3;" width="1" height="3"/>
	<rect x="16" y="7" style="&st3;" width="1" height="1"/>
	<rect x="17" y="6" style="&st3;" width="1" height="1"/>
	<rect x="18" y="5" style="&st3;" width="1" height="1"/>
	<rect x="19" y="4" style="&st3;" width="1" height="1"/>
</g>
</svg>
