<?xml version="1.0" encoding="utf-8"?>
<!-- Generator: Adobe Illustrator 25.0.1, SVG Export Plug-In . SVG Version: 6.00 Build 0)  -->
<!DOCTYPE svg PUBLIC "-//W3C//DTD SVG 1.1//EN" "http://www.w3.org/Graphics/SVG/1.1/DTD/svg11.dtd" [
	<!ENTITY st0 "fill:#043B57;">
	<!ENTITY st1 "fill:#318EC8;">
	<!ENTITY st2 "fill:#A0A0A0;">
	<!ENTITY st3 "fill:#E9F800;">
]>
<svg version="1.1" id="Layer_1" xmlns="http://www.w3.org/2000/svg" xmlns:xlink="http://www.w3.org/1999/xlink" x="0px" y="0px"
	 viewBox="0 0 52 52" style="enable-background:new 0 0 52 52;" xml:space="preserve">
<polygon id="navy" style="&st0;" points="32,17 32,16 31,16 31,15 30,15 30,14 29,14 29,13 28,13 28,12 21,12 21,13 20,13 20,14 
	19,14 19,15 18,15 18,16 17,16 17,17 16,17 16,18 17,18 17,19 20,19 20,20 30,20 30,19 33,19 33,17 "/>
<polygon id="blue" style="&st1;" points="35,6 35,5 34,5 34,6 31,6 31,5 30,5 30,4 29,4 29,5 28,5 28,6 27,6 27,5 26,5 26,4 25,4 
	25,5 24,5 24,6 23,6 23,5 22,5 22,4 21,4 21,5 20,5 20,6 17,6 17,5 16,5 16,6 14,6 14,16 15,16 15,17 16,17 16,16 17,16 17,15 
	18,15 18,14 19,14 19,13 20,13 20,12 21,12 21,10 22,10 22,9 27,9 27,10 28,10 28,12 29,12 29,13 30,13 30,14 31,14 31,15 32,15 
	32,16 33,16 33,17 34,17 34,16 35,16 35,15 36,15 36,14 37,14 37,6 "/>
<polygon id="grey" style="&st2;" points="27,10 26,10 26,9 23,9 23,10 22,10 22,12 23,12 23,13 24,13 24,14 25,14 25,13 26,13 
	26,12 27,12 "/>
<polygon id="yellow" style="&st3;" points="26,10 23,10 23,12 24,12 24,13 25,13 25,12 26,12 "/>
<g id="outlines">
	<rect x="14" y="6" width="1" height="1"/>
	<rect x="15" y="5" width="1" height="1"/>
	<rect x="16" y="4" width="1" height="1"/>
	<rect x="17" y="5" width="1" height="1"/>
	<rect x="18" y="6" width="1" height="1"/>
	<rect x="19" y="5" width="1" height="1"/>
	<rect x="20" y="4" width="1" height="1"/>
	<rect x="21" y="3" width="1" height="1"/>
	<rect x="22" y="4" width="1" height="1"/>
	<rect x="23" y="5" width="1" height="1"/>
	<rect x="24" y="4" width="1" height="1"/>
	<rect x="25" y="3" width="1" height="1"/>
	<rect x="26" y="4" width="1" height="1"/>
	<rect x="27" y="5" width="1" height="1"/>
	<rect x="28" y="4" width="1" height="1"/>
	<rect x="29" y="3" width="1" height="1"/>
	<rect x="30" y="4" width="1" height="1"/>
	<rect x="31" y="5" width="1" height="1"/>
	<rect x="32" y="6" width="1" height="1"/>
	<rect x="33" y="5" width="1" height="1"/>
	<rect x="34" y="4" width="1" height="1"/>
	<rect x="35" y="5" width="1" height="1"/>
	<rect x="36" y="6" width="1" height="1"/>
	<polygon points="37,7 37,14 36,14 36,15 38,15 38,7 	"/>
	<rect x="35" y="15" width="1" height="1"/>
	<rect x="34" y="16" width="1" height="1"/>
	<rect x="33" y="17" width="1" height="2"/>
	<rect x="32" y="16" width="1" height="1"/>
	<rect x="31" y="15" width="1" height="1"/>
	<rect x="30" y="14" width="1" height="1"/>
	<rect x="29" y="13" width="1" height="1"/>
	<rect x="28" y="12" width="1" height="1"/>
	<rect x="27" y="10" width="1" height="2"/>
	<rect x="26" y="9" width="1" height="1"/>
	<rect x="23" y="8" width="3" height="1"/>
	<rect x="22" y="9" width="1" height="1"/>
	<rect x="21" y="10" width="1" height="2"/>
	<rect x="20" y="12" width="1" height="1"/>
	<rect x="19" y="13" width="1" height="1"/>
	<rect x="18" y="14" width="1" height="1"/>
	<rect x="17" y="15" width="1" height="1"/>
	<rect x="16" y="16" width="1" height="1"/>
	<rect x="15" y="17" width="1" height="1"/>
	<rect x="14" y="16" width="1" height="1"/>
	<rect x="16" y="18" width="1" height="1"/>
	<rect x="17" y="19" width="3" height="1"/>
	<rect x="20" y="20" width="10" height="1"/>
	<rect x="30" y="19" width="3" height="1"/>
	<rect x="13" y="7" width="1" height="9"/>
</g>
</svg>
