<?xml version="1.0" encoding="utf-8"?>
<!-- Generator: Adobe Illustrator 25.0.1, SVG Export Plug-In . SVG Version: 6.00 Build 0)  -->
<!DOCTYPE svg PUBLIC "-//W3C//DTD SVG 1.1//EN" "http://www.w3.org/Graphics/SVG/1.1/DTD/svg11.dtd" [
	<!ENTITY st0 "fill:#E9F800;">
]>
<svg version="1.1" id="Layer_1" xmlns="http://www.w3.org/2000/svg" xmlns:xlink="http://www.w3.org/1999/xlink" x="0px" y="0px"
	 viewBox="0 0 52 52" style="enable-background:new 0 0 52 52;" xml:space="preserve">
<polygon id="black" points="37,15 37,13 36,13 36,12 35,12 35,10 34,10 34,9 33,9 33,8 32,8 32,7 31,7 31,6 20,6 20,7 19,7 19,8 
	18,8 18,9 17,9 17,10 16,10 16,12 15,12 15,13 14,13 14,15 13,15 13,19 38,19 38,15 "/>
<g id="yellow">
	<rect x="14" y="16" style="&st0;" width="23" height="2"/>
	<polygon style="&st0;" points="25,15 26,15 26,10 28,10 28,9 26,9 26,7 25,7 25,9 23,9 23,10 25,10 	"/>
</g>
</svg>
