<?xml version="1.0" encoding="utf-8"?>
<!-- Generator: Adobe Illustrator 25.0.1, SVG Export Plug-In . SVG Version: 6.00 Build 0)  -->
<!DOCTYPE svg PUBLIC "-//W3C//DTD SVG 1.1//EN" "http://www.w3.org/Graphics/SVG/1.1/DTD/svg11.dtd" [
	<!ENTITY st0 "fill:#E9F800;">
	<!ENTITY st1 "fill:#F80000;">
]>
<svg version="1.1" id="Layer_1" xmlns="http://www.w3.org/2000/svg" xmlns:xlink="http://www.w3.org/1999/xlink" x="0px" y="0px"
	 viewBox="0 0 52 52" style="enable-background:new 0 0 52 52;" xml:space="preserve">
<polygon id="yellow" style="&st0;" points="35,7 35,6 34,6 34,7 33,7 33,8 31,8 31,7 30,7 30,6 29,6 29,8 28,8 28,7 27,7 27,6 29,6 
	29,5 28,5 28,4 27,4 27,3 26,3 26,2 25,2 25,3 24,3 24,4 23,4 23,5 22,5 22,6 24,6 24,7 23,7 23,8 22,8 22,7 21,7 21,6 20,6 20,7 
	19,7 19,8 17,8 17,7 16,7 16,6 15,6 15,7 14,7 14,12 36,12 36,7 "/>
<rect id="red" x="25" y="4" style="&st1;" width="1" height="1"/>
<g id="outline">
	<polygon points="36,7 36,12 14,12 14,7 13,7 13,13 37,13 37,7 	"/>
	<rect x="35" y="6" width="1" height="1"/>
	<rect x="34" y="5" width="1" height="1"/>
	<rect x="33" y="6" width="1" height="1"/>
	<rect x="31" y="7" width="2" height="1"/>
	<rect x="30" y="6" width="1" height="1"/>
	<rect x="29" y="5" width="1" height="1"/>
	<rect x="28" y="4" width="1" height="1"/>
	<rect x="27" y="3" width="1" height="1"/>
	<rect x="26" y="2" width="1" height="1"/>
	<rect x="25" y="1" width="1" height="1"/>
	<rect x="24" y="2" width="1" height="1"/>
	<rect x="23" y="3" width="1" height="1"/>
	<rect x="22" y="4" width="1" height="1"/>
	<rect x="20" y="5" width="1" height="1"/>
	<rect x="19" y="6" width="1" height="1"/>
	<rect x="16" y="6" width="1" height="1"/>
	<rect x="15" y="5" width="1" height="1"/>
	<rect x="14" y="6" width="1" height="1"/>
	<polygon points="22,7 22,8 23,8 23,7 24,7 24,6 21,6 21,7 	"/>
	<polygon points="27,7 28,7 28,8 29,8 29,6 27,6 	"/>
	<rect x="17" y="7" width="2" height="1"/>
</g>
</svg>
