<?xml version="1.0" encoding="utf-8"?>
<!-- Generator: Adobe Illustrator 25.0.1, SVG Export Plug-In . SVG Version: 6.00 Build 0)  -->
<!DOCTYPE svg PUBLIC "-//W3C//DTD SVG 1.1//EN" "http://www.w3.org/Graphics/SVG/1.1/DTD/svg11.dtd" [
	<!ENTITY st0 "fill:#F70000;">
	<!ENTITY st1 "fill:#FFFFFF;">
]>
<svg version="1.1" id="Layer_1" xmlns="http://www.w3.org/2000/svg" xmlns:xlink="http://www.w3.org/1999/xlink" x="0px" y="0px"
	 viewBox="0 0 52 52" style="enable-background:new 0 0 52 52;" xml:space="preserve">
<polygon id="red" style="&st0;" points="38,13 38,10 37,10 37,7 36,7 36,5 35,5 35,4 34,4 34,3 33,3 33,2 30,2 30,1 23,1 23,2 22,2 
	22,3 21,3 21,4 20,4 20,5 19,5 19,6 18,6 18,7 26,7 26,8 27,8 27,9 29,9 29,10 31,10 31,11 32,11 32,12 33,12 33,13 34,13 34,14 
	35,14 35,16 36,16 36,18 39,18 39,13 "/>
<g id="white">
	<polygon style="&st1;" points="35,18 35,17 34,17 34,14 33,14 33,13 32,13 32,12 31,12 31,11 29,11 29,10 27,10 27,9 26,9 26,8 
		16,8 16,9 15,9 15,10 14,10 14,13 16,13 16,12 17,12 17,11 25,11 25,12 27,12 27,13 29,13 29,14 30,14 30,15 31,15 31,16 32,16 
		32,17 33,17 33,19 34,19 34,20 36,20 36,18 	"/>
	<polygon style="&st1;" points="42,20 41,20 41,19 37,19 37,20 36,20 36,24 37,24 37,25 41,25 41,24 42,24 	"/>
</g>
<g id="outlines">
	<rect x="23" width="7" height="1"/>
	<rect x="30" y="1" width="3" height="1"/>
	<rect x="33" y="2" width="1" height="1"/>
	<rect x="34" y="3" width="1" height="1"/>
	<rect x="35" y="4" width="1" height="1"/>
	<rect x="36" y="5" width="1" height="2"/>
	<rect x="37" y="7" width="1" height="3"/>
	<rect x="38" y="10" width="1" height="3"/>
	<polygon points="42,19 42,18 40,18 40,13 39,13 39,18 36,18 36,20 37,20 37,19 41,19 41,20 42,20 42,24 41,24 41,25 37,25 37,26 
		42,26 42,25 43,25 43,19 	"/>
	<rect x="36" y="24" width="1" height="1"/>
	<polygon points="34,20 34,21 35,21 35,24 36,24 36,20 	"/>
	<rect x="33" y="19" width="1" height="1"/>
	<polygon points="33,17 32,17 32,16 31,16 31,15 30,15 30,14 29,14 29,13 27,13 27,14 28,14 28,15 29,15 29,16 30,16 30,17 31,17 
		31,18 32,18 32,19 33,19 	"/>
	<polygon points="25,12 25,11 17,11 17,12 16,12 16,13 14,13 14,10 13,10 13,14 14,14 14,15 15,15 15,14 17,14 17,13 18,13 18,12 
		24,12 24,13 27,13 27,12 	"/>
	<rect x="14" y="9" width="1" height="1"/>
	<rect x="15" y="8" width="1" height="1"/>
	<polygon points="26,8 26,7 18,7 18,6 17,6 17,7 16,7 16,8 	"/>
	<rect x="18" y="5" width="1" height="1"/>
	<rect x="19" y="4" width="1" height="1"/>
	<rect x="20" y="3" width="1" height="1"/>
	<rect x="21" y="2" width="1" height="1"/>
	<rect x="22" y="1" width="1" height="1"/>
	<rect x="26" y="8" width="1" height="1"/>
	<rect x="27" y="9" width="2" height="1"/>
	<rect x="29" y="10" width="2" height="1"/>
	<rect x="31" y="11" width="1" height="1"/>
	<rect x="32" y="12" width="1" height="1"/>
	<rect x="33" y="13" width="1" height="1"/>
	<polygon points="36,16 35,16 35,14 34,14 34,17 35,17 35,18 36,18 	"/>
	<rect x="33" y="11" width="1" height="1"/>
	<rect x="32" y="10" width="1" height="1"/>
	<rect x="31" y="9" width="1" height="1"/>
	<polygon points="31,7 30,7 30,6 29,6 29,8 30,8 30,9 31,9 	"/>
	<rect x="28" y="5" width="1" height="1"/>
</g>
</svg>
