<?xml version="1.0" encoding="utf-8"?>
<!-- Generator: Adobe Illustrator 25.0.1, SVG Export Plug-In . SVG Version: 6.00 Build 0)  -->
<!DOCTYPE svg PUBLIC "-//W3C//DTD SVG 1.1//EN" "http://www.w3.org/Graphics/SVG/1.1/DTD/svg11.dtd" [
	<!ENTITY st0 "fill:#06F800;">
	<!ENTITY st1 "fill:#F80000;">
]>
<svg version="1.1" id="Layer_1" xmlns="http://www.w3.org/2000/svg" xmlns:xlink="http://www.w3.org/1999/xlink" x="0px" y="0px"
	 viewBox="0 0 52 52" style="enable-background:new 0 0 52 52;" xml:space="preserve">
<g id="green">
	<polygon style="&st0;" points="47,14 46,14 46,13 5,13 5,14 4,14 4,16 5,16 5,17 46,17 46,16 47,16 	"/>
	<polygon style="&st0;" points="34,7 33,7 33,6 32,6 32,5 19,5 19,6 18,6 18,7 17,7 17,8 34,8 	"/>
</g>
<g id="red">
	<polygon style="&st1;" points="30,4 30,3 29,3 29,2 22,2 22,3 21,3 21,4 	"/>
	<rect x="16" y="9" style="&st1;" width="19" height="3"/>
	<polygon style="&st1;" points="44,16 44,15 43,15 43,14 42,14 42,13 41,13 41,14 40,14 40,15 39,15 39,16 38,16 38,17 45,17 45,16 
			"/>
	<polygon style="&st1;" points="36,15 35,15 35,14 34,14 34,13 33,13 33,14 32,14 32,15 31,15 31,16 30,16 30,17 37,17 37,16 36,16 
			"/>
	<polygon style="&st1;" points="28,15 27,15 27,14 26,14 26,13 25,13 25,14 24,14 24,15 23,15 23,16 22,16 22,17 29,17 29,16 28,16 
			"/>
	<polygon style="&st1;" points="20,15 19,15 19,14 18,14 18,13 17,13 17,14 16,14 16,15 15,15 15,16 14,16 14,17 21,17 21,16 20,16 
			"/>
	<polygon style="&st1;" points="12,15 11,15 11,14 10,14 10,13 9,13 9,14 8,14 8,15 7,15 7,16 6,16 6,17 13,17 13,16 12,16 	"/>
</g>
<g id="outlines">
	<rect x="22" y="1" width="7" height="1"/>
	<rect x="29" y="2" width="1" height="1"/>
	<polygon points="32,5 32,4 31,4 31,3 30,3 30,4 21,4 21,3 20,3 20,4 19,4 19,5 	"/>
	<rect x="21" y="2" width="1" height="1"/>
	<rect x="18" y="5" width="1" height="1"/>
	<rect x="17" y="6" width="1" height="1"/>
	<rect x="33" y="6" width="1" height="1"/>
	<rect x="32" y="5" width="1" height="1"/>
	<path d="M46,12H36V8h-1V7h-1v1H17V7h-1v1h-1v4H5v1h41V12z M16,12V9h19v3H16z"/>
	<rect x="4" y="13" width="1" height="1"/>
	<rect x="3" y="14" width="1" height="2"/>
	<rect x="4" y="16" width="1" height="1"/>
	<rect x="5" y="17" width="41" height="1"/>
	<rect x="46" y="16" width="1" height="1"/>
	<rect x="47" y="14" width="1" height="2"/>
	<rect x="46" y="13" width="1" height="1"/>
</g>
</svg>
