<?xml version="1.0" encoding="utf-8"?>
<!-- Generator: Adobe Illustrator 25.0.1, SVG Export Plug-In . SVG Version: 6.00 Build 0)  -->
<!DOCTYPE svg PUBLIC "-//W3C//DTD SVG 1.1//EN" "http://www.w3.org/Graphics/SVG/1.1/DTD/svg11.dtd" [
	<!ENTITY st0 "fill:#DEEC02;">
]>
<svg version="1.1" id="Layer_1" xmlns="http://www.w3.org/2000/svg" xmlns:xlink="http://www.w3.org/1999/xlink" x="0px" y="0px"
	 viewBox="0 0 52 52" style="enable-background:new 0 0 52 52;" xml:space="preserve">
<polygon id="black" points="35,12 35,10 33,10 33,7 34,7 34,2 33,2 33,1 21,1 21,2 18,2 18,3 16,3 16,4 15,4 15,6 16,6 16,7 17,7 
	17,13 16,13 16,14 15,14 15,15 14,15 14,18 15,18 15,19 16,19 16,20 31,20 31,19 35,19 35,18 36,18 36,17 37,17 37,12 "/>
<polygon id="yellow" style="&st0;" points="32,11 32,13 31,13 31,14 29,14 29,15 20,15 20,14 17,14 17,13 16,13 16,15 17,15 17,16 
	18,16 18,17 20,17 20,18 28,18 28,17 30,17 30,16 31,16 31,15 32,15 32,14 33,14 33,13 34,13 34,11 "/>
</svg>
