<?xml version="1.0" encoding="utf-8"?>
<!-- Generator: Adobe Illustrator 25.0.1, SVG Export Plug-In . SVG Version: 6.00 Build 0)  -->
<!DOCTYPE svg PUBLIC "-//W3C//DTD SVG 1.1//EN" "http://www.w3.org/Graphics/SVG/1.1/DTD/svg11.dtd" [
	<!ENTITY st0 "fill:#0086F8;">
	<!ENTITY st1 "fill:#FFFFFF;">
	<!ENTITY st2 "fill:#021562;">
	<!ENTITY st3 "fill:#00176D;">
	<!ENTITY st4 "fill:#011D88;">
	<!ENTITY st5 "fill:#0020A1;">
	<!ENTITY st6 "fill:#0025B2;">
	<!ENTITY st7 "fill:#002BCD;">
	<!ENTITY st8 "fill:#0025B0;">
	<!ENTITY st9 "fill:#0223A0;">
	<!ENTITY st10 "fill:#001B89;">
	<!ENTITY st11 "fill:#011C6C;">
	<!ENTITY st12 "fill:#001461;">
	<!ENTITY st13 "fill:#00186D;">
	<!ENTITY st14 "fill:#001D88;">
	<!ENTITY st15 "fill:#00229F;">
	<!ENTITY st16 "fill:#002ACB;">
	<!ENTITY st17 "fill:#0127B2;">
	<!ENTITY st18 "fill:#0121A0;">
	<!ENTITY st19 "fill:#00176F;">
	<!ENTITY st20 "fill:#001762;">
	<!ENTITY st21 "fill:#0021A0;">
	<!ENTITY st22 "fill:#0225B1;">
	<!ENTITY st23 "fill:#0021A2;">
	<!ENTITY st24 "fill:#0027B2;">
	<!ENTITY st25 "fill:#021E89;">
	<!ENTITY st26 "fill:#00249F;">
]>
<svg version="1.1" id="Layer_1" xmlns="http://www.w3.org/2000/svg" xmlns:xlink="http://www.w3.org/1999/xlink" x="0px" y="0px"
	 viewBox="0 0 52 52" style="enable-background:new 0 0 52 52;" xml:space="preserve">
<polygon id="shirt" style="&st0;" points="41,51 41,50 40,50 40,43 39,43 39,39 38,39 38,37 36,37 36,35 15,35 15,37 13,37 13,39 
	12,39 12,44 11,44 11,50 10,50 10,51 9,51 9,52 13,52 13,50 15,50 15,44 18,44 18,45 19,45 19,50 20,50 20,51 21,51 21,52 30,52 
	30,51 31,51 31,50 32,50 32,45 33,45 33,44 36,44 36,50 38,50 38,52 42,52 42,51 "/>
<g id="white">
	<rect x="20" y="35" style="&st1;" width="1" height="1"/>
	<rect x="19" y="36" style="&st1;" width="1" height="1"/>
	<rect x="18" y="37" style="&st1;" width="1" height="1"/>
	<rect x="17" y="38" style="&st1;" width="1" height="1"/>
	<rect x="16" y="39" style="&st1;" width="1" height="1"/>
	<rect x="15" y="40" style="&st1;" width="1" height="1"/>
	<rect x="14" y="41" style="&st1;" width="1" height="4"/>
	<rect x="10" y="51" style="&st1;" width="1" height="1"/>
	<rect x="11" y="50" style="&st1;" width="1" height="1"/>
	<rect x="12" y="40" style="&st1;" width="1" height="10"/>
	<rect x="13" y="39" style="&st1;" width="1" height="1"/>
	<rect x="14" y="38" style="&st1;" width="1" height="1"/>
	<rect x="15" y="37" style="&st1;" width="1" height="1"/>
	<rect x="16" y="36" style="&st1;" width="1" height="1"/>
	<rect x="17" y="35" style="&st1;" width="1" height="1"/>
	<rect x="30" y="35" style="&st1;" width="1" height="1"/>
	<rect x="31" y="36" style="&st1;" width="1" height="1"/>
	<rect x="30" y="38" style="&st1;" width="1" height="1"/>
	<rect x="29" y="39" style="&st1;" width="1" height="1"/>
	<rect x="28" y="40" style="&st1;" width="1" height="1"/>
	<rect x="27" y="39" style="&st1;" width="1" height="1"/>
	<rect x="32" y="37" style="&st1;" width="1" height="1"/>
	<rect x="33" y="38" style="&st1;" width="1" height="1"/>
	<rect x="34" y="39" style="&st1;" width="1" height="1"/>
	<rect x="35" y="40" style="&st1;" width="1" height="1"/>
	<rect x="36" y="41" style="&st1;" width="1" height="4"/>
	<rect x="40" y="51" style="&st1;" width="1" height="1"/>
	<rect x="39" y="50" style="&st1;" width="1" height="1"/>
	<rect x="38" y="40" style="&st1;" width="1" height="10"/>
	<rect x="37" y="39" style="&st1;" width="1" height="1"/>
	<rect x="36" y="38" style="&st1;" width="1" height="1"/>
	<rect x="35" y="37" style="&st1;" width="1" height="1"/>
	<rect x="34" y="36" style="&st1;" width="1" height="1"/>
	<rect x="33" y="35" style="&st1;" width="1" height="1"/>
</g>
<g id="fades">
	<rect x="29" y="34" style="&st2;" width="1" height="1"/>
	<rect x="21" y="34" style="&st2;" width="1" height="1"/>
	<rect x="35" y="35" style="&st2;" width="1" height="1"/>
	<rect x="36" y="36" style="&st3;" width="1" height="1"/>
	<rect x="37" y="37" style="&st4;" width="1" height="1"/>
	<rect x="38" y="38" style="&st5;" width="1" height="1"/>
	<rect x="39" y="39" style="&st6;" width="1" height="1"/>
	<rect x="39" y="40" style="&st7;" width="1" height="1"/>
	<rect x="39" y="41" style="&st8;" width="1" height="1"/>
	<rect x="11" y="41" style="&st8;" width="1" height="1"/>
	<rect x="39" y="42" style="&st9;" width="1" height="1"/>
	<rect x="39" y="43" style="&st10;" width="1" height="1"/>
	<rect x="39" y="44" style="&st11;" width="1" height="1"/>
	<rect x="39" y="45" style="&st12;" width="1" height="1"/>
	<rect x="33" y="44" style="&st12;" width="1" height="1"/>
	<rect x="36" y="49" style="&st12;" width="1" height="1"/>
	<rect x="37" y="50" style="&st12;" width="1" height="1"/>
	<rect x="13" y="50" style="&st12;" width="1" height="1"/>
	<rect x="14" y="49" style="&st12;" width="1" height="1"/>
	<rect x="17" y="44" style="&st12;" width="1" height="1"/>
	<rect x="11" y="45" style="&st12;" width="1" height="1"/>
	<rect x="11" y="44" style="&st13;" width="1" height="1"/>
	<rect x="11" y="43" style="&st14;" width="1" height="1"/>
	<rect x="11" y="42" style="&st15;" width="1" height="1"/>
	<rect x="11" y="40" style="&st16;" width="1" height="1"/>
	<rect x="11" y="39" style="&st17;" width="1" height="1"/>
	<rect x="12" y="38" style="&st18;" width="1" height="1"/>
	<rect x="13" y="37" style="&st4;" width="1" height="1"/>
	<rect x="14" y="36" style="&st19;" width="1" height="1"/>
	<rect x="15" y="35" style="&st20;" width="1" height="1"/>
	<rect x="16" y="35" style="&st21;" width="1" height="1"/>
	<rect x="19" y="34" style="&st22;" width="1" height="1"/>
	<rect x="20" y="34" style="&st23;" width="1" height="1"/>
	<rect x="30" y="34" style="&st23;" width="1" height="1"/>
	<rect x="31" y="34" style="&st24;" width="1" height="1"/>
	<rect x="32" y="45" style="&st24;" width="1" height="1"/>
	<rect x="34" y="43" style="&st24;" width="1" height="1"/>
	<rect x="35" y="44" style="&st24;" width="1" height="1"/>
	<rect x="36" y="48" style="&st25;" width="1" height="1"/>
	<rect x="14" y="48" style="&st25;" width="1" height="1"/>
	<rect x="15" y="44" style="&st26;" width="1" height="1"/>
	<rect x="16" y="43" style="&st26;" width="1" height="1"/>
	<rect x="18" y="45" style="&st26;" width="1" height="1"/>
</g>
</svg>
