<?xml version="1.0" encoding="utf-8"?>
<!-- Generator: Adobe Illustrator 25.0.1, SVG Export Plug-In . SVG Version: 6.00 Build 0)  -->
<!DOCTYPE svg PUBLIC "-//W3C//DTD SVG 1.1//EN" "http://www.w3.org/Graphics/SVG/1.1/DTD/svg11.dtd" [
	<!ENTITY st0 "fill:#FFFFFF;">
	<!ENTITY st1 "fill:#EAEAEA;">
	<!ENTITY st2 "fill:#CACACA;">
	<!ENTITY st3 "fill:#BCBBBB;">
	<!ENTITY st4 "fill:#F700E9;">
	<!ENTITY st5 "fill:#E900F8;">
]>
<svg version="1.1" id="Layer_1" xmlns="http://www.w3.org/2000/svg" xmlns:xlink="http://www.w3.org/1999/xlink" x="0px" y="0px"
	 viewBox="0 0 52 52" style="enable-background:new 0 0 52 52;" xml:space="preserve">
<polygon style="&st0;" points="41,51 41,50 40,50 40,39 38,39 38,37 36,37 36,35 15,35 15,37 13,37 13,39 11,39 11,50 10,50 10,51 
	9,51 9,52 13,52 13,50 15,50 15,44 18,44 18,46 19,46 19,50 21,50 21,52 30,52 30,50 32,50 32,46 33,46 33,44 36,44 36,50 38,50 
	38,52 42,52 42,51 "/>
<g id="shading">
	<rect x="21" y="43" style="&st1;" width="1" height="9"/>
	<rect x="22" y="42" style="&st1;" width="1" height="1"/>
	<rect x="23" y="41" style="&st1;" width="5" height="1"/>
	<rect x="28" y="42" style="&st1;" width="1" height="1"/>
	<rect x="29" y="43" style="&st1;" width="1" height="9"/>
	<rect x="11" y="46" style="&st2;" width="1" height="1"/>
	<rect x="11" y="45" style="&st3;" width="1" height="1"/>
	<rect x="11" y="44" style="&st2;" width="1" height="1"/>
	<rect x="11" y="43" style="&st3;" width="1" height="1"/>
	<rect x="11" y="42" style="&st2;" width="1" height="1"/>
	<rect x="11" y="41" style="&st2;" width="1" height="1"/>
	<rect x="11" y="40" style="&st3;" width="1" height="1"/>
	<rect x="11" y="39" style="&st2;" width="1" height="1"/>
	<rect x="12" y="38" style="&st2;" width="1" height="1"/>
	<rect x="13" y="37" style="&st2;" width="1" height="1"/>
	<rect x="14" y="36" style="&st2;" width="1" height="1"/>
	<rect x="15" y="35" style="&st2;" width="1" height="1"/>
	<rect x="16" y="35" style="&st3;" width="1" height="1"/>
	<rect x="17" y="35" style="&st2;" width="1" height="1"/>
	<rect x="18" y="35" style="&st2;" width="1" height="1"/>
	<rect x="19" y="34" style="&st2;" width="1" height="1"/>
	<rect x="20" y="34" style="&st2;" width="1" height="1"/>
	<rect x="21" y="34" style="&st3;" width="1" height="1"/>
	<rect x="29" y="34" style="&st3;" width="1" height="1"/>
	<rect x="30" y="34" style="&st2;" width="1" height="1"/>
	<rect x="31" y="34" style="&st2;" width="1" height="1"/>
	<rect x="32" y="35" style="&st2;" width="1" height="1"/>
	<rect x="33" y="35" style="&st3;" width="1" height="1"/>
	<rect x="34" y="35" style="&st2;" width="1" height="1"/>
	<rect x="35" y="35" style="&st2;" width="1" height="1"/>
	<rect x="36" y="36" style="&st3;" width="1" height="1"/>
	<rect x="37" y="37" style="&st2;" width="1" height="1"/>
	<rect x="38" y="38" style="&st2;" width="1" height="1"/>
	<rect x="39" y="39" style="&st3;" width="1" height="1"/>
	<rect x="39" y="40" style="&st2;" width="1" height="1"/>
	<rect x="39" y="41" style="&st2;" width="1" height="1"/>
	<rect x="39" y="42" style="&st3;" width="1" height="1"/>
	<rect x="39" y="43" style="&st2;" width="1" height="1"/>
	<rect x="39" y="44" style="&st2;" width="1" height="1"/>
	<rect x="39" y="45" style="&st2;" width="1" height="1"/>
	<rect x="39" y="46" style="&st3;" width="1" height="1"/>
	<rect x="36" y="49" style="&st3;" width="1" height="1"/>
	<rect x="37" y="50" style="&st2;" width="1" height="1"/>
	<rect x="30" y="50" style="&st2;" width="1" height="1"/>
	<rect x="31" y="49" style="&st3;" width="1" height="1"/>
	<rect x="32" y="45" style="&st2;" width="1" height="1"/>
	<rect x="33" y="44" style="&st3;" width="1" height="1"/>
	<rect x="35" y="44" style="&st2;" width="1" height="1"/>
	<rect x="15" y="44" style="&st2;" width="1" height="1"/>
	<rect x="17" y="44" style="&st3;" width="1" height="1"/>
	<rect x="18" y="45" style="&st2;" width="1" height="1"/>
	<rect x="19" y="49" style="&st3;" width="1" height="1"/>
	<rect x="20" y="50" style="&st2;" width="1" height="1"/>
	<rect x="13" y="50" style="&st2;" width="1" height="1"/>
	<rect x="14" y="49" style="&st3;" width="1" height="1"/>
</g>
<g id="pink">
	<rect x="22" y="43" style="&st4;" width="1" height="9"/>
	<rect x="23" y="42" style="&st4;" width="5" height="1"/>
	<rect x="28" y="43" style="&st4;" width="1" height="9"/>
	<rect x="23" y="43" style="&st5;" width="5" height="9"/>
</g>
</svg>
