<?xml version="1.0" encoding="utf-8"?>
<!-- Generator: Adobe Illustrator 25.0.1, SVG Export Plug-In . SVG Version: 6.00 Build 0)  -->
<!DOCTYPE svg PUBLIC "-//W3C//DTD SVG 1.1//EN" "http://www.w3.org/Graphics/SVG/1.1/DTD/svg11.dtd" [
	<!ENTITY st0 "fill:#1DEE96;">
	<!ENTITY st1 "fill:#1FEC98;">
	<!ENTITY st2 "fill:#21EA99;">
	<!ENTITY st3 "fill:#24E79B;">
	<!ENTITY st4 "fill:#27E49D;">
	<!ENTITY st5 "fill:#2AE1A0;">
	<!ENTITY st6 "fill:#2DDEA2;">
	<!ENTITY st7 "fill:#31DBA5;">
	<!ENTITY st8 "fill:#35D7A7;">
	<!ENTITY st9 "fill:#39D3AA;">
	<!ENTITY st10 "fill:#3DCFAD;">
	<!ENTITY st11 "fill:#41CBB1;">
	<!ENTITY st12 "fill:#45C7B4;">
	<!ENTITY st13 "fill:#4AC3B7;">
	<!ENTITY st14 "fill:#4EBEBA;">
	<!ENTITY st15 "fill:#53BABE;">
	<!ENTITY st16 "fill:#58B5C1;">
	<!ENTITY st17 "fill:#5CB1C5;">
	<!ENTITY st18 "fill:#61ACC8;">
	<!ENTITY st19 "fill:#66A8CC;">
	<!ENTITY st20 "fill:#6BA3CF;">
	<!ENTITY st21 "fill:#6F9FD3;">
	<!ENTITY st22 "fill:#749AD6;">
	<!ENTITY st23 "fill:#7996DA;">
	<!ENTITY st24 "fill:#7D91DD;">
	<!ENTITY st25 "fill:#828DE0;">
	<!ENTITY st26 "fill:#8689E3;">
	<!ENTITY st27 "fill:#8A85E7;">
	<!ENTITY st28 "fill:#8E81EA;">
	<!ENTITY st29 "fill:#927DED;">
	<!ENTITY st30 "fill:#9679EF;">
	<!ENTITY st31 "fill:#9A76F2;">
	<!ENTITY st32 "fill:#AA66FE;">
	<!ENTITY st33 "fill:#A769FC;">
	<!ENTITY st34 "fill:#A36CF9;">
	<!ENTITY st35 "fill:#9F70F6;">
	<!ENTITY st36 "fill:#9B75F3;">
	<!ENTITY st37 "fill:#967AEF;">
	<!ENTITY st38 "fill:#907FEB;">
	<!ENTITY st39 "fill:#8A84E7;">
	<!ENTITY st40 "fill:#848AE2;">
	<!ENTITY st41 "fill:#7E90DE;">
	<!ENTITY st42 "fill:#7897D9;">
	<!ENTITY st43 "fill:#719DD4;">
	<!ENTITY st44 "fill:#6AA3CF;">
	<!ENTITY st45 "fill:#64AACA;">
	<!ENTITY st46 "fill:#5DB1C5;">
	<!ENTITY st47 "fill:#56B7C0;">
	<!ENTITY st48 "fill:#4FBDBB;">
	<!ENTITY st49 "fill:#49C4B6;">
	<!ENTITY st50 "fill:#29E39F;">
	<!ENTITY st51 "fill:#4EBFBA;">
	<!ENTITY st52 "fill:#8D82E9;">
	<!ENTITY st53 "fill:#9E71F5;">
]>
<svg version="1.1" id="Layer_1" xmlns="http://www.w3.org/2000/svg" xmlns:xlink="http://www.w3.org/1999/xlink" x="0px" y="0px"
	 viewBox="0 0 52 52" style="enable-background:new 0 0 52 52;" xml:space="preserve">
<g id="shades">
	<rect x="20" y="2" style="&st0;" width="10" height="1"/>
	<rect x="18" y="3" style="&st1;" width="14" height="1"/>
	<rect x="16" y="4" style="&st2;" width="18" height="1"/>
	<rect x="15" y="5" style="&st3;" width="5" height="1"/>
	<rect x="30" y="5" style="&st3;" width="5" height="1"/>
	<rect x="14" y="6" style="&st4;" width="5" height="1"/>
	<rect x="31" y="6" style="&st4;" width="5" height="1"/>
	<rect x="32" y="7" style="&st5;" width="5" height="1"/>
	<rect x="13" y="7" style="&st5;" width="5" height="1"/>
	<rect x="12" y="8" style="&st6;" width="5" height="1"/>
	<rect x="33" y="8" style="&st6;" width="5" height="1"/>
	<rect x="34" y="9" style="&st7;" width="5" height="1"/>
	<rect x="11" y="9" style="&st7;" width="5" height="1"/>
	<rect x="11" y="10" style="&st8;" width="4" height="1"/>
	<rect x="35" y="10" style="&st8;" width="4" height="1"/>
	<rect x="36" y="11" style="&st9;" width="3" height="1"/>
	<rect x="11" y="11" style="&st9;" width="4" height="1"/>
	<rect x="10" y="12" style="&st10;" width="4" height="1"/>
	<rect x="36" y="12" style="&st10;" width="4" height="1"/>
	<rect x="37" y="13" style="&st11;" width="3" height="1"/>
	<rect x="10" y="13" style="&st11;" width="3" height="1"/>
	<rect x="10" y="14" style="&st12;" width="3" height="1"/>
	<rect x="38" y="14" style="&st12;" width="2" height="1"/>
	<rect x="10" y="15" style="&st13;" width="3" height="1"/>
	<rect x="10" y="16" style="&st14;" width="3" height="1"/>
	<rect x="10" y="17" style="&st15;" width="3" height="1"/>
	<rect x="10" y="18" style="&st16;" width="3" height="1"/>
	<rect x="10" y="19" style="&st17;" width="3" height="1"/>
	<rect x="38" y="15" style="&st13;" width="2" height="1"/>
	<rect x="38" y="16" style="&st14;" width="2" height="1"/>
	<rect x="38" y="17" style="&st15;" width="2" height="1"/>
	<rect x="38" y="18" style="&st16;" width="2" height="1"/>
	<rect x="38" y="19" style="&st17;" width="2" height="1"/>
	<rect x="38" y="20" style="&st18;" width="2" height="1"/>
	<rect x="11" y="20" style="&st18;" width="2" height="1"/>
	<rect x="11" y="21" style="&st19;" width="3" height="1"/>
	<rect x="11" y="21" style="&st19;" width="3" height="1"/>
	<rect x="37" y="21" style="&st19;" width="3" height="1"/>
	<rect x="11" y="22" style="&st20;" width="4" height="1"/>
	<rect x="11" y="23" style="&st21;" width="4" height="1"/>
	<rect x="11" y="24" style="&st22;" width="4" height="1"/>
	<rect x="36" y="22" style="&st20;" width="4" height="1"/>
	<rect x="36" y="23" style="&st21;" width="4" height="1"/>
	<rect x="36" y="24" style="&st22;" width="3" height="1"/>
	<rect x="12" y="25" style="&st23;" width="3" height="1"/>
	<rect x="12" y="26" style="&st24;" width="4" height="1"/>
	<rect x="12" y="27" style="&st25;" width="4" height="1"/>
	<rect x="36" y="25" style="&st23;" width="3" height="1"/>
	<rect x="35" y="26" style="&st24;" width="4" height="1"/>
	<rect x="35" y="27" style="&st25;" width="3" height="1"/>
	<rect x="13" y="28" style="&st26;" width="4" height="1"/>
	<rect x="34" y="28" style="&st26;" width="4" height="1"/>
	<rect x="14" y="29" style="&st27;" width="5" height="1"/>
	<rect x="32" y="29" style="&st27;" width="5" height="1"/>
	<rect x="14" y="30" style="&st28;" width="5" height="1"/>
	<rect x="32" y="30" style="&st28;" width="5" height="1"/>
	<rect x="14" y="31" style="&st29;" width="5" height="1"/>
	<rect x="32" y="31" style="&st29;" width="5" height="1"/>
	<rect x="15" y="32" style="&st30;" width="5" height="1"/>
	<rect x="31" y="32" style="&st30;" width="6" height="1"/>
	<rect x="15" y="33" style="&st31;" width="4" height="1"/>
	<rect x="32" y="33" style="&st31;" width="4" height="1"/>
	<rect x="19" y="34" style="&st32;" width="3" height="1"/>
	<rect x="29" y="34" style="&st32;" width="3" height="1"/>
	<rect x="15" y="35" style="&st33;" width="21" height="1"/>
	<rect x="14" y="36" style="&st34;" width="23" height="1"/>
	<rect x="13" y="37" style="&st35;" width="25" height="1"/>
	<rect x="12" y="38" style="&st36;" width="27" height="1"/>
	<rect x="11" y="39" style="&st37;" width="29" height="1"/>
	<rect x="11" y="40" style="&st38;" width="29" height="1"/>
	<rect x="11" y="41" style="&st39;" width="29" height="1"/>
	<rect x="11" y="42" style="&st40;" width="29" height="1"/>
	<rect x="11" y="43" style="&st41;" width="29" height="1"/>
	<rect x="11" y="44" style="&st42;" width="5" height="1"/>
	<rect x="11" y="45" style="&st43;" width="4" height="1"/>
	<rect x="11" y="46" style="&st44;" width="4" height="1"/>
	<rect x="11" y="47" style="&st45;" width="4" height="1"/>
	<rect x="11" y="48" style="&st46;" width="4" height="1"/>
	<rect x="11" y="49" style="&st47;" width="4" height="1"/>
	<rect x="10" y="50" style="&st48;" width="4" height="1"/>
	<rect x="9" y="51" style="&st49;" width="4" height="1"/>
	<rect x="35" y="44" transform="matrix(-1 -4.474744e-11 4.474744e-11 -1 75 89)" style="&st42;" width="5" height="1"/>
	<rect x="36" y="45" transform="matrix(-1 -4.456536e-11 4.456536e-11 -1 76 91)" style="&st43;" width="4" height="1"/>
	<rect x="36" y="46" transform="matrix(-1 -4.456536e-11 4.456536e-11 -1 76 93)" style="&st44;" width="4" height="1"/>
	<rect x="36" y="47" transform="matrix(-1 -4.456536e-11 4.456536e-11 -1 76 95)" style="&st45;" width="4" height="1"/>
	<rect x="36" y="48" transform="matrix(-1 -4.456536e-11 4.456536e-11 -1 76 97)" style="&st46;" width="4" height="1"/>
	<rect x="36" y="49" transform="matrix(-1 -4.456536e-11 4.456536e-11 -1 76 99)" style="&st47;" width="4" height="1"/>
	<rect x="37" y="50" transform="matrix(-1 -4.502011e-11 4.502011e-11 -1 78 101)" style="&st48;" width="4" height="1"/>
	<rect x="38" y="51" transform="matrix(-1 -4.502011e-11 4.502011e-11 -1 80 103)" style="&st49;" width="4" height="1"/>
	<rect x="17" y="44" transform="matrix(-1 -1.316115e-11 1.316115e-11 -1 51 89)" style="&st42;" width="17" height="1"/>
	<rect x="18" y="45" transform="matrix(-1 -1.188439e-11 1.188439e-11 -1 51 91)" style="&st43;" width="15" height="1"/>
	<rect x="19" y="46" transform="matrix(-1 -1.371271e-11 1.371271e-11 -1 51 93)" style="&st44;" width="13" height="1"/>
	<rect x="19" y="47" transform="matrix(-1 -1.371271e-11 1.371271e-11 -1 51 95)" style="&st45;" width="13" height="1"/>
	<rect x="19" y="48" transform="matrix(-1 -1.371271e-11 1.371271e-11 -1 51 97)" style="&st46;" width="13" height="1"/>
	<rect x="19" y="49" transform="matrix(-1 -1.371271e-11 1.371271e-11 -1 51 99)" style="&st47;" width="13" height="1"/>
	<rect x="20" y="50" transform="matrix(-1 -1.637103e-11 1.637103e-11 -1 51 101)" style="&st48;" width="11" height="1"/>
	<rect x="21" y="51" transform="matrix(-1 -2.000901e-11 2.000901e-11 -1 51 103)" style="&st49;" width="9" height="1"/>
</g>
<g id="logo-shades">
	<rect x="20" y="39" style="&st0;" width="11" height="1"/>
	<rect x="20" y="40" style="&st50;" width="11" height="1"/>
	<rect x="20" y="42" style="&st51;" width="11" height="1"/>
	<rect x="20" y="43" style="&st45;" width="11" height="1"/>
	<rect x="20" y="45" style="&st52;" width="11" height="1"/>
	<rect x="20" y="46" style="&st53;" width="11" height="1"/>
</g>
<g id="outlines">
	<rect x="40" y="12" width="1" height="12"/>
	<rect x="9" y="12" width="1" height="8"/>
	<rect x="10" y="20" width="1" height="5"/>
	<rect x="11" y="25" width="1" height="3"/>
	<rect x="12" y="28" width="1" height="1"/>
	<rect x="13" y="29" width="1" height="3"/>
	<rect x="14" y="32" width="1" height="4"/>
	<rect x="36" y="33" width="1" height="2"/>
	<rect x="37" y="29" width="1" height="4"/>
	<rect x="38" y="27" width="1" height="2"/>
	<rect x="39" y="24" width="1" height="3"/>
	<rect x="39" y="9" width="1" height="3"/>
	<rect x="38" y="8" width="1" height="1"/>
	<rect x="37" y="7" width="1" height="1"/>
	<rect x="36" y="6" width="1" height="1"/>
	<rect x="35" y="5" width="1" height="1"/>
	<rect x="34" y="4" width="1" height="1"/>
	<rect x="32" y="3" width="2" height="1"/>
	<rect x="30" y="2" width="2" height="1"/>
	<rect x="20" y="1" width="10" height="1"/>
	<rect x="18" y="2" width="2" height="1"/>
	<rect x="16" y="3" width="2" height="1"/>
	<rect x="15" y="4" width="1" height="1"/>
	<rect x="14" y="5" width="1" height="1"/>
	<rect x="13" y="6" width="1" height="1"/>
	<rect x="12" y="7" width="1" height="1"/>
	<rect x="11" y="8" width="1" height="1"/>
	<rect x="10" y="9" width="1" height="3"/>
	<rect x="20" y="38" width="11" height="1"/>
	<rect x="20" y="41" width="11" height="1"/>
	<rect x="20" y="44" width="11" height="1"/>
	<rect x="20" y="47" width="11" height="1"/>
	<rect x="31" y="39" width="1" height="2"/>
	<rect x="31" y="42" width="1" height="2"/>
	<rect x="31" y="45" width="1" height="2"/>
	<rect x="19" y="45" width="1" height="2"/>
	<rect x="19" y="42" width="1" height="2"/>
	<rect x="19" y="39" width="1" height="2"/>
</g>
</svg>
