<?xml version="1.0" encoding="utf-8"?>
<!-- Generator: Adobe Illustrator 25.0.1, SVG Export Plug-In . SVG Version: 6.00 Build 0)  -->
<!DOCTYPE svg PUBLIC "-//W3C//DTD SVG 1.1//EN" "http://www.w3.org/Graphics/SVG/1.1/DTD/svg11.dtd" [
	<!ENTITY st0 "fill:#009D00;">
	<!ENTITY st1 "fill:#008800;">
	<!ENTITY st2 "fill:#E9F800;">
	<!ENTITY st3 "fill:#9D5500;">
	<!ENTITY st4 "fill:#00DFF4;">
	<!ENTITY st5 "fill:#F40000;">
]>
<svg version="1.1" id="Layer_1" xmlns="http://www.w3.org/2000/svg" xmlns:xlink="http://www.w3.org/1999/xlink" x="0px" y="0px"
	 viewBox="0 0 52 52" style="enable-background:new 0 0 52 52;" xml:space="preserve">
<polygon id="green" style="&st0;" points="41,51 41,50 40,50 40,39 39,39 39,38 38,38 38,37 37,37 37,36 36,36 36,35 15,35 15,36 
	14,36 14,37 13,37 13,38 12,38 12,39 11,39 11,50 10,50 10,51 9,51 9,52 13,52 13,51 14,51 14,50 15,50 15,45 16,45 16,44 17,44 
	17,45 18,45 18,46 19,46 19,50 20,50 20,51 21,51 21,52 30,52 30,51 31,51 31,50 32,50 32,46 33,46 33,45 34,45 34,44 35,44 35,45 
	36,45 36,50 37,50 37,51 38,51 38,52 42,52 42,51 "/>
<g id="olive">
	<rect x="36" y="36" style="&st1;" width="1" height="1"/>
	<rect x="31" y="36" style="&st1;" width="1" height="1"/>
	<polygon style="&st1;" points="27,39 29,39 29,38 30,38 30,39 31,39 31,37 30,37 30,36 29,36 29,37 28,37 28,38 27,38 	"/>
	<rect x="25" y="36" style="&st1;" width="2" height="1"/>
	<rect x="20" y="36" style="&st1;" width="1" height="1"/>
	<rect x="15" y="36" style="&st1;" width="2" height="1"/>
	<rect x="38" y="38" style="&st1;" width="1" height="1"/>
	<rect x="34" y="38" style="&st1;" width="3" height="1"/>
	<rect x="23" y="38" style="&st1;" width="3" height="1"/>
	<polygon style="&st1;" points="19,39 20,39 20,37 19,37 19,36 18,36 18,38 19,38 	"/>
	<rect x="16" y="38" style="&st1;" width="2" height="1"/>
	<rect x="13" y="38" style="&st1;" width="2" height="1"/>
	<rect x="14" y="40" style="&st1;" width="2" height="1"/>
	<rect x="17" y="40" style="&st1;" width="1" height="1"/>
	<polygon style="&st1;" points="24,42 26,42 26,41 25,41 25,40 20,40 20,41 24,41 	"/>
	<rect x="26" y="40" style="&st1;" width="1" height="1"/>
	<rect x="16" y="42" style="&st1;" width="2" height="2"/>
	<rect x="27" y="42" style="&st1;" width="1" height="1"/>
	<rect x="31" y="42" style="&st1;" width="1" height="1"/>
	<polygon style="&st1;" points="39,43 39,42 38,42 38,41 40,41 40,40 37,40 37,41 36,41 36,40 32,40 32,41 35,41 35,42 37,42 37,43 
			"/>
	<rect x="33" y="43" style="&st1;" width="2" height="2"/>
	<polygon style="&st1;" points="21,44 21,43 22,43 22,42 20,42 20,41 18,41 18,42 19,42 19,43 20,43 20,44 	"/>
	<polygon style="&st1;" points="13,43 13,42 14,42 14,41 13,41 13,40 11,40 11,41 12,41 12,44 11,44 11,47 12,47 12,45 13,45 13,44 
		14,44 14,43 	"/>
	<rect x="14" y="44" style="&st1;" width="2" height="1"/>
	<rect x="27" y="44" style="&st1;" width="1" height="1"/>
	<rect x="31" y="44" style="&st1;" width="1" height="1"/>
	<rect x="38" y="44" style="&st1;" width="2" height="1"/>
	<rect x="18" y="45" style="&st1;" width="2" height="1"/>
	<rect x="14" y="46" style="&st1;" width="1" height="3"/>
	<rect x="27" y="46" style="&st1;" width="2" height="1"/>
	<rect x="30" y="46" style="&st1;" width="2" height="1"/>
	<rect x="36" y="46" style="&st1;" width="1" height="3"/>
	<rect x="38" y="46" style="&st1;" width="1" height="1"/>
	<polygon style="&st1;" points="26,47 26,46 23,46 23,45 24,45 24,43 23,43 23,44 22,44 22,47 25,47 25,49 27,49 27,47 	"/>
	<polygon style="&st1;" points="22,49 21,49 21,50 22,50 22,51 21,51 21,52 24,52 24,48 22,48 	"/>
	<polygon style="&st1;" points="29,49 30,49 30,51 31,51 31,50 32,50 32,48 29,48 	"/>
	<polygon style="&st1;" points="13,48 11,48 11,52 13,52 13,51 14,51 14,50 13,50 	"/>
	<polygon style="&st1;" points="27,50 26,50 26,52 28,52 28,49 27,49 	"/>
	<polygon style="&st1;" points="39,51 39,50 40,50 40,48 39,48 39,49 38,49 38,52 42,52 42,51 	"/>
	<rect x="9" y="51" style="&st1;" width="1" height="1"/>
</g>
<g id="black">
	<rect x="19" y="34" width="3" height="1"/>
	<rect x="29" y="34" width="3" height="1"/>
</g>
<g id="yellow">
	<polygon style="&st2;" points="32,40 31,40 31,39 30,39 30,38 29,38 29,39 28,39 28,40 27,40 27,41 28,41 28,42 29,42 29,43 30,43 
		30,42 31,42 31,41 32,41 	"/>
	<rect x="26" y="44" style="&st2;" width="1" height="1"/>
	<rect x="28" y="44" style="&st2;" width="1" height="1"/>
	<rect x="30" y="44" style="&st2;" width="1" height="1"/>
	<rect x="32" y="44" style="&st2;" width="1" height="1"/>
</g>
<g id="brown">
	<rect x="26" y="35" style="&st3;" width="1" height="1"/>
	<rect x="33" y="36" style="&st3;" width="2" height="1"/>
	<rect x="22" y="36" style="&st3;" width="2" height="1"/>
	<polygon style="&st3;" points="14,37 14,38 15,38 15,39 14,39 14,40 16,40 16,41 17,41 17,39 16,39 16,38 18,38 18,37 	"/>
	<polygon style="&st3;" points="34,39 34,38 31,38 31,40 32,40 32,39 	"/>
	<rect x="20" y="38" style="&st3;" width="3" height="1"/>
	<polygon style="&st3;" points="37,40 39,40 39,39 38,39 38,38 37,38 37,39 36,39 36,41 37,41 	"/>
	<polygon style="&st3;" points="26,40 28,40 28,39 27,39 27,38 26,38 26,39 25,39 25,41 26,41 	"/>
	<polygon style="&st3;" points="24,41 20,41 20,42 22,42 22,44 23,44 23,43 25,43 25,42 24,42 	"/>
	<polygon style="&st3;" points="35,41 33,41 33,43 36,43 36,42 35,42 	"/>
	<rect x="39" y="41" style="&st3;" width="1" height="2"/>
	<path style="&st3;" d="M37,45v3h1v1h1v-1h1v-3H37z M39,47h-1v-1h1V47z"/>
	<polygon style="&st3;" points="29,45 26,45 26,47 27,47 27,46 28,46 28,47 30,47 30,46 29,46 	"/>
	<polygon style="&st3;" points="14,44 13,44 13,45 12,45 12,47 11,47 11,48 14,48 14,46 15,46 15,45 14,45 	"/>
	<polygon style="&st3;" points="22,47 22,46 20,46 20,48 24,48 24,49 25,49 25,47 	"/>
	<polygon style="&st3;" points="29,50 28,50 28,52 30,52 30,49 29,49 	"/>
	<rect x="20" y="50" style="&st3;" width="2" height="1"/>
</g>
<g id="blue">
	<rect x="26" y="41" style="&st4;" width="1" height="3"/>
	<rect x="30" y="42" style="&st4;" width="1" height="2"/>
</g>
<g id="red">
	<rect x="28" y="42" style="&st5;" width="1" height="2"/>
	<rect x="32" y="41" style="&st5;" width="1" height="3"/>
</g>
</svg>
