<?xml version="1.0" encoding="utf-8"?>
<!-- Generator: Adobe Illustrator 25.0.1, SVG Export Plug-In . SVG Version: 6.00 Build 0)  -->
<!DOCTYPE svg PUBLIC "-//W3C//DTD SVG 1.1//EN" "http://www.w3.org/Graphics/SVG/1.1/DTD/svg11.dtd" [
	<!ENTITY st0 "fill:#F87100;">
	<!ENTITY st1 "fill:#604700;">
	<!ENTITY st2 "fill:#9F7A00;">
	<!ENTITY st3 "fill:#FFFFFF;">
	<!ENTITY st4 "fill:#9D7900;">
	<!ENTITY st5 "fill:#624D00;">
	<!ENTITY st6 "fill:#6D5600;">
	<!ENTITY st7 "fill:#886C01;">
	<!ENTITY st8 "fill:#B28C00;">
	<!ENTITY st9 "fill:#CDA200;">
	<!ENTITY st10 "fill:#B08A00;">
	<!ENTITY st11 "fill:#A07F02;">
	<!ENTITY st12 "fill:#896E00;">
	<!ENTITY st13 "fill:#6C5101;">
	<!ENTITY st14 "fill:#614D00;">
	<!ENTITY st15 "fill:#6D5500;">
	<!ENTITY st16 "fill:#896D02;">
	<!ENTITY st17 "fill:#9F7C00;">
	<!ENTITY st18 "fill:#624E00;">
	<!ENTITY st19 "fill:#B28A00;">
]>
<svg version="1.1" id="Layer_1" xmlns="http://www.w3.org/2000/svg" xmlns:xlink="http://www.w3.org/1999/xlink" x="0px" y="0px"
	 viewBox="0 0 52 52" style="enable-background:new 0 0 52 52;" xml:space="preserve">
<polygon id="orange" style="&st0;" points="41,51 41,50 40,50 40,39 39,39 39,38 38,38 38,37 37,37 37,36 36,36 36,35 32,35 32,34 
	29,34 29,35 28,35 28,36 27,36 27,37 24,37 24,36 23,36 23,35 22,35 22,34 19,34 19,35 15,35 15,36 14,36 14,37 13,37 13,38 12,38 
	12,39 11,39 11,50 10,50 10,51 9,51 9,52 13,52 13,51 14,51 14,50 15,50 15,45 16,45 16,44 17,44 17,45 18,45 18,46 19,46 19,50 
	20,50 20,51 21,51 21,52 30,52 30,51 31,51 31,50 32,50 32,46 33,46 33,45 34,45 34,44 35,44 35,45 36,45 36,50 37,50 37,51 38,51 
	38,52 42,52 42,51 "/>
<g id="dark">
	<rect x="29" y="34" style="&st1;" width="1" height="2"/>
	<polygon style="&st1;" points="28,37 27,37 27,38 24,38 24,37 23,37 23,36 22,36 22,38 23,38 23,39 24,39 24,41 25,41 25,42 26,42 
		26,41 27,41 27,39 28,39 28,38 29,38 29,36 28,36 	"/>
	<rect x="21" y="34" style="&st1;" width="1" height="2"/>
</g>
<g id="light">
	<rect x="20" y="34" style="&st2;" width="1" height="2"/>
	<rect x="21" y="36" style="&st2;" width="1" height="2"/>
	<rect x="22" y="38" style="&st2;" width="1" height="1"/>
	<rect x="23" y="39" style="&st2;" width="1" height="2"/>
	<rect x="24" y="41" style="&st2;" width="1" height="1"/>
	<rect x="25" y="42" style="&st2;" width="1" height="1"/>
	<rect x="26" y="41" style="&st2;" width="1" height="1"/>
	<rect x="27" y="39" style="&st2;" width="1" height="2"/>
	<rect x="28" y="38" style="&st2;" width="1" height="1"/>
	<rect x="29" y="36" style="&st2;" width="1" height="2"/>
	<rect x="30" y="34" style="&st2;" width="1" height="2"/>
</g>
<g id="white">
	<polygon style="&st3;" points="31,36 30,36 30,38 31,38 31,37 32,37 32,34 31,34 	"/>
	<rect x="29" y="38" style="&st3;" width="1" height="1"/>
	<rect x="28" y="39" style="&st3;" width="1" height="2"/>
	<rect x="27" y="41" style="&st3;" width="1" height="1"/>
	<rect x="26" y="42" style="&st3;" width="1" height="1"/>
	<rect x="24" y="42" style="&st3;" width="1" height="1"/>
	<rect x="23" y="41" style="&st3;" width="1" height="1"/>
	<rect x="22" y="39" style="&st3;" width="1" height="2"/>
	<rect x="21" y="38" style="&st3;" width="1" height="1"/>
	<polygon style="&st3;" points="21,36 20,36 20,34 19,34 19,37 20,37 20,38 21,38 	"/>
	<rect x="17" y="35" style="&st3;" width="1" height="1"/>
	<rect x="16" y="36" style="&st3;" width="1" height="1"/>
	<rect x="15" y="37" style="&st3;" width="1" height="1"/>
	<rect x="14" y="38" style="&st3;" width="1" height="1"/>
	<rect x="13" y="39" style="&st3;" width="1" height="1"/>
	<rect x="12" y="40" style="&st3;" width="1" height="10"/>
	<rect x="11" y="50" style="&st3;" width="1" height="1"/>
	<rect x="10" y="51" style="&st3;" width="1" height="1"/>
	<rect x="40" y="51" style="&st3;" width="1" height="1"/>
	<rect x="39" y="50" style="&st3;" width="1" height="1"/>
	<rect x="38" y="40" style="&st3;" width="1" height="10"/>
	<rect x="37" y="39" style="&st3;" width="1" height="1"/>
	<rect x="36" y="38" style="&st3;" width="1" height="1"/>
	<rect x="35" y="37" style="&st3;" width="1" height="1"/>
	<rect x="34" y="36" style="&st3;" width="1" height="1"/>
	<rect x="33" y="35" style="&st3;" width="1" height="1"/>
	<rect x="31" y="42" style="&st3;" width="1" height="1"/>
	<rect x="30" y="43" style="&st3;" width="1" height="1"/>
	<rect x="29" y="44" style="&st3;" width="1" height="1"/>
	<rect x="28" y="43" style="&st3;" width="1" height="1"/>
</g>
<g id="shade">
	<rect x="34" y="35" style="&st4;" width="1" height="1"/>
	<rect x="35" y="35" style="&st5;" width="1" height="1"/>
	<rect x="36" y="36" style="&st6;" width="1" height="1"/>
	<rect x="37" y="37" style="&st7;" width="1" height="1"/>
	<rect x="38" y="38" style="&st7;" width="1" height="1"/>
	<rect x="39" y="39" style="&st8;" width="1" height="1"/>
	<rect x="39" y="40" style="&st9;" width="1" height="1"/>
	<rect x="39" y="41" style="&st10;" width="1" height="1"/>
	<rect x="39" y="42" style="&st11;" width="1" height="1"/>
	<rect x="39" y="43" style="&st12;" width="1" height="1"/>
	<rect x="39" y="44" style="&st13;" width="1" height="1"/>
	<rect x="39" y="45" style="&st14;" width="1" height="1"/>
	<rect x="37" y="50" style="&st14;" width="1" height="1"/>
	<rect x="36" y="49" style="&st15;" width="1" height="1"/>
	<rect x="36" y="48" style="&st16;" width="1" height="1"/>
	<rect x="35" y="44" style="&st17;" width="1" height="1"/>
	<rect x="34" y="43" style="&st17;" width="1" height="1"/>
	<rect x="33" y="44" style="&st18;" width="1" height="1"/>
	<rect x="32" y="45" style="&st19;" width="1" height="1"/>
	<rect x="16" y="35" transform="matrix(-1 -4.547486e-11 4.547486e-11 -1 33 71)" style="&st4;" width="1" height="1"/>
	<rect x="15" y="35" transform="matrix(-1 -4.365587e-11 4.365587e-11 -1 31 71)" style="&st5;" width="1" height="1"/>
	<rect x="14" y="36" transform="matrix(-1 -4.547486e-11 4.547486e-11 -1 29 73)" style="&st6;" width="1" height="1"/>
	<rect x="13" y="37" transform="matrix(-1 -4.547486e-11 4.547486e-11 -1 27 75)" style="&st7;" width="1" height="1"/>
	<rect x="12" y="38" transform="matrix(-1 -4.365587e-11 4.365587e-11 -1 25 77)" style="&st7;" width="1" height="1"/>
	<rect x="11" y="39" transform="matrix(-1 -4.547486e-11 4.547486e-11 -1 23 79)" style="&st8;" width="1" height="1"/>
	<rect x="11" y="40" transform="matrix(-1 -4.547486e-11 4.547486e-11 -1 23 81)" style="&st9;" width="1" height="1"/>
	<rect x="11" y="41" transform="matrix(-1 -4.547486e-11 4.547486e-11 -1 23 83)" style="&st10;" width="1" height="1"/>
	<rect x="11" y="42" transform="matrix(-1 -4.547486e-11 4.547486e-11 -1 23 85)" style="&st11;" width="1" height="1"/>
	<rect x="11" y="43" transform="matrix(-1 -4.547486e-11 4.547486e-11 -1 23 87)" style="&st12;" width="1" height="1"/>
	<rect x="11" y="44" transform="matrix(-1 -4.547486e-11 4.547486e-11 -1 23 89)" style="&st13;" width="1" height="1"/>
	<rect x="11" y="45" transform="matrix(-1 -4.547486e-11 4.547486e-11 -1 23 91)" style="&st14;" width="1" height="1"/>
	<rect x="13" y="50" transform="matrix(-1 -4.547486e-11 4.547486e-11 -1 27 101)" style="&st14;" width="1" height="1"/>
	<rect x="14" y="49" transform="matrix(-1 -4.547486e-11 4.547486e-11 -1 29 99)" style="&st15;" width="1" height="1"/>
	<rect x="14" y="48" transform="matrix(-1 -4.547486e-11 4.547486e-11 -1 29 97)" style="&st16;" width="1" height="1"/>
	<rect x="15" y="44" transform="matrix(-1 -4.365587e-11 4.365587e-11 -1 31 89)" style="&st17;" width="1" height="1"/>
	<rect x="16" y="43" transform="matrix(-1 -4.547486e-11 4.547486e-11 -1 33 87)" style="&st17;" width="1" height="1"/>
	<rect x="17" y="44" transform="matrix(-1 -4.547486e-11 4.547486e-11 -1 35 89)" style="&st18;" width="1" height="1"/>
	<rect x="18" y="45" transform="matrix(-1 -4.365587e-11 4.365587e-11 -1 37 91)" style="&st19;" width="1" height="1"/>
</g>
<g id="black">
	<rect x="28" y="35" width="1" height="1"/>
	<rect x="27" y="36" width="1" height="1"/>
	<rect x="24" y="37" width="3" height="1"/>
	<rect x="23" y="36" width="1" height="1"/>
	<rect x="22" y="35" width="1" height="1"/>
	<rect x="25" y="43" width="1" height="2"/>
</g>
</svg>
