<?xml version="1.0" encoding="utf-8"?>
<!-- Generator: Adobe Illustrator 25.0.1, SVG Export Plug-In . SVG Version: 6.00 Build 0)  -->
<!DOCTYPE svg PUBLIC "-//W3C//DTD SVG 1.1//EN" "http://www.w3.org/Graphics/SVG/1.1/DTD/svg11.dtd" [
	<!ENTITY st0 "fill:#318EC8;">
	<!ENTITY st1 "fill:#043B57;">
	<!ENTITY st2 "fill:#959595;">
	<!ENTITY st3 "fill:#A0A0A0;">
	<!ENTITY st4 "fill:#E9F800;">
]>
<svg version="1.1" id="Layer_1" xmlns="http://www.w3.org/2000/svg" xmlns:xlink="http://www.w3.org/1999/xlink" x="0px" y="0px"
	 viewBox="0 0 52 52" style="enable-background:new 0 0 52 52;" xml:space="preserve">
<polygon id="blue" style="&st0;" points="41,51 41,50 40,50 40,39 39,39 39,38 38,38 38,37 37,37 37,36 36,36 36,35 32,35 32,34 
	29,34 29,35 28,35 28,36 27,36 27,37 24,37 24,36 23,36 23,35 22,35 22,34 19,34 19,35 15,35 15,36 14,36 14,37 13,37 13,38 12,38 
	12,39 11,39 11,50 10,50 10,51 9,51 9,52 13,52 13,51 14,51 14,50 15,50 15,45 16,45 16,44 17,44 17,45 18,45 18,46 19,46 19,50 
	20,50 20,51 21,51 21,52 30,52 30,51 31,51 31,50 32,50 32,46 33,46 33,45 34,45 34,44 35,44 35,45 36,45 36,50 37,50 37,51 38,51 
	38,52 42,52 42,51 "/>
<g id="shading">
	<rect x="27" y="39" style="&st1;" width="1" height="1"/>
	<rect x="28" y="38" style="&st1;" width="1" height="1"/>
	<rect x="29" y="36" style="&st1;" width="1" height="2"/>
	<polygon style="&st1;" points="30,34 30,36 31,36 31,35 32,35 32,34 	"/>
	<rect x="32" y="35" style="&st1;" width="4" height="1"/>
	<rect x="36" y="36" style="&st1;" width="1" height="1"/>
	<rect x="37" y="37" style="&st1;" width="1" height="1"/>
	<rect x="38" y="38" style="&st1;" width="1" height="1"/>
	<rect x="39" y="39" style="&st1;" width="1" height="10"/>
	<rect x="38" y="51" style="&st1;" width="1" height="1"/>
	<rect x="37" y="50" style="&st1;" width="1" height="1"/>
	<rect x="36" y="45" style="&st1;" width="1" height="5"/>
	<rect x="33" y="44" style="&st1;" width="3" height="1"/>
	<rect x="32" y="45" style="&st1;" width="1" height="1"/>
	<rect x="31" y="46" style="&st1;" width="1" height="4"/>
	<rect x="30" y="50" style="&st1;" width="1" height="1"/>
	<rect x="29" y="51" style="&st1;" width="1" height="1"/>
	<rect x="21" y="51" style="&st1;" width="1" height="1"/>
	<rect x="20" y="50" style="&st1;" width="1" height="1"/>
	<rect x="19" y="46" style="&st1;" width="1" height="4"/>
	<rect x="18" y="45" style="&st1;" width="1" height="1"/>
	<rect x="15" y="44" style="&st1;" width="3" height="1"/>
	<rect x="14" y="48" style="&st1;" width="1" height="2"/>
	<rect x="13" y="50" style="&st1;" width="1" height="1"/>
	<rect x="12" y="51" style="&st1;" width="1" height="1"/>
	<rect x="11" y="39" style="&st1;" width="1" height="9"/>
	<rect x="12" y="38" style="&st1;" width="1" height="1"/>
	<rect x="13" y="37" style="&st1;" width="1" height="1"/>
	<rect x="14" y="36" style="&st1;" width="1" height="1"/>
	<rect x="15" y="35" style="&st1;" width="4" height="1"/>
	<polygon style="&st1;" points="21,34 19,34 19,35 20,35 20,36 21,36 	"/>
	<rect x="21" y="36" style="&st1;" width="1" height="2"/>
	<rect x="22" y="38" style="&st1;" width="1" height="1"/>
	<rect x="23" y="39" style="&st1;" width="1" height="1"/>
</g>
<g id="outline">
	<polygon points="21,34 21,36 22,36 22,35 29,35 29,36 30,36 30,34 	"/>
	<polygon points="28,37 27,37 27,39 28,39 28,38 29,38 29,36 28,36 	"/>
	<rect x="24" y="39" width="3" height="1"/>
	<polygon points="24,37 23,37 23,36 22,36 22,38 23,38 23,39 24,39 	"/>
	<rect x="23" y="40" width="1" height="10"/>
	<rect x="24" y="50" width="1" height="1"/>
	<rect x="25" y="51" width="1" height="1"/>
	<rect x="26" y="50" width="1" height="1"/>
	<rect x="27" y="40" width="1" height="10"/>
</g>
<g id="tie">
	<polygon style="&st2;" points="22,35 22,36 23,36 23,37 24,37 24,39 27,39 27,37 28,37 28,36 29,36 29,35 	"/>
	<polygon style="&st2;" points="24,40 24,50 25,50 25,51 26,51 26,50 27,50 27,40 	"/>
</g>
<polygon id="badge" style="&st3;" points="33,40 33,39 30,39 30,40 29,40 29,42 30,42 30,43 31,43 31,44 32,44 32,43 33,43 33,42 
	34,42 34,40 "/>
<polygon id="yellow" style="&st4;" points="30,40 30,42 31,42 31,43 32,43 32,42 33,42 33,40 "/>
</svg>
