<?xml version="1.0" encoding="utf-8"?>
<!-- Generator: Adobe Illustrator 25.0.1, SVG Export Plug-In . SVG Version: 6.00 Build 0)  -->
<!DOCTYPE svg PUBLIC "-//W3C//DTD SVG 1.1//EN" "http://www.w3.org/Graphics/SVG/1.1/DTD/svg11.dtd" [
	<!ENTITY st0 "fill:#FFFFFF;">
]>
<svg version="1.1" id="Layer_1" xmlns="http://www.w3.org/2000/svg" xmlns:xlink="http://www.w3.org/1999/xlink" x="0px" y="0px"
	 viewBox="0 0 52 52" style="enable-background:new 0 0 52 52;" xml:space="preserve">
<polygon id="black" points="41,51 41,50 40,50 40,39 39,39 39,38 38,38 38,37 37,37 37,36 36,36 36,35 32,35 32,34 19,34 19,35 
	15,35 15,36 14,36 14,37 13,37 13,38 12,38 12,39 11,39 11,50 10,50 10,51 9,51 9,52 13,52 13,51 14,51 14,50 15,50 15,45 16,45 
	16,44 17,44 17,45 18,45 18,46 19,46 19,50 20,50 20,51 21,51 21,52 30,52 30,51 31,51 31,50 32,50 32,46 33,46 33,45 34,45 34,44 
	35,44 35,45 36,45 36,50 37,50 37,51 38,51 38,52 42,52 42,51 "/>
<polygon id="white" style="&st0;" points="30,33 30,34 28,34 28,35 23,35 23,34 21,34 21,33 20,33 20,35 21,35 21,36 23,36 23,37 
	28,37 28,36 30,36 30,35 31,35 31,33 "/>
</svg>
