<?xml version="1.0" encoding="utf-8"?>
<!-- Generator: Adobe Illustrator 25.0.1, SVG Export Plug-In . SVG Version: 6.00 Build 0)  -->
<!DOCTYPE svg PUBLIC "-//W3C//DTD SVG 1.1//EN" "http://www.w3.org/Graphics/SVG/1.1/DTD/svg11.dtd" [
	<!ENTITY st0 "fill:#061414;">
	<!ENTITY st1 "fill:#FFFFFF;">
	<!ENTITY st2 "fill:#FC0000;">
	<!ENTITY st3 "fill:#5D5D5D;">
]>
<svg version="1.1" id="Layer_1" xmlns="http://www.w3.org/2000/svg" xmlns:xlink="http://www.w3.org/1999/xlink" x="0px" y="0px"
	 viewBox="0 0 52 52" style="enable-background:new 0 0 52 52;" xml:space="preserve">
<polygon id="black" style="&st0;" points="41,51 41,50 40,50 40,39 39,39 39,38 38,38 38,37 37,37 37,36 36,36 36,35 34,35 34,34 
	18,34 18,35 15,35 15,36 14,36 14,37 13,37 13,38 12,38 12,39 11,39 11,50 10,50 10,51 9,51 9,52 13,52 13,51 14,51 14,50 15,50 
	15,45 16,45 16,44 17,44 17,45 18,45 18,46 19,46 19,50 20,50 20,51 21,51 21,52 30,52 30,51 31,51 31,50 32,50 32,46 33,46 33,45 
	34,45 34,44 35,44 35,45 36,45 36,50 37,50 37,51 38,51 38,52 42,52 42,51 "/>
<polygon id="white" style="&st1;" points="31,34 31,33 29,33 29,34 22,34 22,33 20,33 20,34 19,34 19,36 20,36 20,38 21,38 21,40 
	22,40 22,41 23,41 23,52 28,52 28,41 29,41 29,40 30,40 30,37 31,37 31,35 32,35 32,34 "/>
<g id="buttons">
	<rect x="25" y="50" style="&st0;" width="1" height="1"/>
	<rect x="25" y="47" style="&st0;" width="1" height="1"/>
</g>
<polygon id="red" style="&st2;" points="23,35 23,36 24,36 24,37 25,37 25,38 24,38 24,44 25,44 25,45 26,45 26,44 27,44 27,38 
	26,38 26,37 27,37 27,36 28,36 28,35 "/>
<g id="grey">
	<rect x="18" y="35" style="&st3;" width="1" height="1"/>
	<rect x="19" y="36" style="&st3;" width="1" height="2"/>
	<rect x="20" y="38" style="&st3;" width="1" height="2"/>
	<rect x="21" y="40" style="&st3;" width="1" height="1"/>
	<rect x="22" y="41" style="&st3;" width="1" height="11"/>
	<rect x="28" y="41" style="&st3;" width="1" height="11"/>
	<rect x="29" y="40" style="&st3;" width="1" height="1"/>
	<rect x="30" y="37" style="&st3;" width="1" height="3"/>
	<rect x="31" y="35" style="&st3;" width="1" height="2"/>
	<rect x="32" y="34" style="&st3;" width="1" height="1"/>
</g>
</svg>
