<?xml version="1.0" encoding="utf-8"?>
<!-- Generator: Adobe Illustrator 25.0.1, SVG Export Plug-In . SVG Version: 6.00 Build 0)  -->
<!DOCTYPE svg PUBLIC "-//W3C//DTD SVG 1.1//EN" "http://www.w3.org/Graphics/SVG/1.1/DTD/svg11.dtd" [
	<!ENTITY st0 "fill:#FFFFFF;">
]>
<svg version="1.1" id="Layer_1" xmlns="http://www.w3.org/2000/svg" xmlns:xlink="http://www.w3.org/1999/xlink" x="0px" y="0px"
	 viewBox="0 0 52 52" style="enable-background:new 0 0 52 52;" xml:space="preserve">
<polygon id="white" style="&st0;" points="32,35 32,34 30,34 30,36 29,36 29,38 27,38 27,39 24,39 24,38 22,38 22,36 21,36 21,34 
	19,34 19,35 15,35 15,45 16,45 16,44 17,44 17,45 18,45 18,46 19,46 19,50 20,50 20,51 21,51 21,52 30,52 30,51 31,51 31,50 32,50 
	32,46 33,46 33,45 34,45 34,44 35,44 35,45 36,45 36,35 "/>
<g id="outlines">
	<rect x="36" y="36" width="1" height="10"/>
	<rect x="14" y="35" width="1" height="11"/>
	<rect x="22" y="37" width="1" height="1"/>
	<rect x="28" y="37" width="1" height="1"/>
</g>
</svg>
