<?xml version="1.0" encoding="utf-8"?>
<!-- Generator: Adobe Illustrator 25.0.1, SVG Export Plug-In . SVG Version: 6.00 Build 0)  -->
<svg version="1.1" id="Layer_1" xmlns="http://www.w3.org/2000/svg" xmlns:xlink="http://www.w3.org/1999/xlink" x="0px" y="0px"
	 viewBox="0 0 52 52" style="enable-background:new 0 0 52 52;" xml:space="preserve">
<style type="text/css">
	.st0{fill:#FFFFFF;}
	.st1{fill:#00F5F8;}
	.st2{fill:#F80000;}
</style>
<g id="white">
	<polygon class="st0" points="33,22 26,22 26,23 25,23 25,22 18,22 18,24 17,24 17,25 18,25 18,26 25,26 25,25 26,25 26,26 33,26 
		33,25 34,25 34,24 33,24 	"/>
	<rect x="34" y="23" class="st0" width="1" height="1"/>
	<rect x="35" y="22" class="st0" width="1" height="1"/>
	<rect x="15" y="22" class="st0" width="1" height="1"/>
	<rect x="16" y="23" class="st0" width="1" height="1"/>
</g>
<g id="blue">
	<rect x="19" y="23" class="st1" width="5" height="1"/>
	<rect x="27" y="23" class="st1" width="5" height="1"/>
</g>
<g id="red">
	<rect x="19" y="24" class="st2" width="5" height="1"/>
	<rect x="27" y="24" class="st2" width="5" height="1"/>
</g>
</svg>
