<?xml version="1.0" encoding="utf-8"?>
<!-- Generator: Adobe Illustrator 25.0.1, SVG Export Plug-In . SVG Version: 6.00 Build 0)  -->
<!DOCTYPE svg PUBLIC "-//W3C//DTD SVG 1.1//EN" "http://www.w3.org/Graphics/SVG/1.1/DTD/svg11.dtd" [
	<!ENTITY st0 "fill:#FFFFFF;">
]>
<svg version="1.1" id="Layer_1" xmlns="http://www.w3.org/2000/svg" xmlns:xlink="http://www.w3.org/1999/xlink" x="0px" y="0px"
	 viewBox="0 0 52 52" style="enable-background:new 0 0 52 52;" xml:space="preserve">
<g id="white">
	<polygon style="&st0;" points="49,25 49,18 47,18 47,19 45,19 45,20 44,20 44,21 42,21 42,22 40,22 40,23 39,23 39,24 38,24 38,26 
		37,26 37,27 35,27 35,28 34,28 34,29 32,29 32,34 37,34 37,35 38,35 38,37 39,37 39,38 40,38 40,39 41,39 41,40 44,40 44,37 46,37 
		46,35 47,35 47,33 48,33 48,29 49,29 49,26 50,26 50,25 	"/>
	<polygon style="&st0;" points="19,29 17,29 17,28 16,28 16,26 15,26 15,25 14,25 14,24 13,24 13,23 12,23 12,22 10,22 10,21 8,21 
		8,20 7,20 7,19 5,19 5,18 3,18 3,25 2,25 2,26 3,26 3,28 4,28 4,33 5,33 5,34 6,34 6,35 7,35 7,39 9,39 9,40 10,40 10,39 11,39 
		11,38 12,38 12,37 13,37 13,36 14,36 14,35 15,35 15,34 19,34 19,33 20,33 20,31 19,31 	"/>
</g>
<g id="outlines">
	<rect x="19" y="31" width="1" height="1"/>
	<rect x="18" y="30" width="1" height="1"/>
	<rect x="17" y="31" width="1" height="1"/>
	<rect x="16" y="32" width="1" height="1"/>
	<rect x="15" y="33" width="1" height="1"/>
	<rect x="9" y="40" width="1" height="1"/>
	<rect x="8" y="39" width="1" height="1"/>
	<rect x="7" y="38" width="1" height="1"/>
	<rect x="6" y="35" width="1" height="2"/>
	<rect x="5" y="34" width="1" height="1"/>
	<rect x="4" y="33" width="1" height="1"/>
	<rect x="3" y="30" width="1" height="3"/>
	<rect x="7" y="32" width="1" height="1"/>
	<rect x="6" y="31" width="1" height="1"/>
	<rect x="5" y="30" width="1" height="1"/>
	<rect x="4" y="29" width="1" height="1"/>
	<rect x="3" y="28" width="1" height="1"/>
	<rect x="2" y="26" width="1" height="2"/>
	<rect x="1" y="25" width="1" height="1"/>
	<rect x="2" y="24" width="1" height="1"/>
	<rect x="3" y="23" width="1" height="1"/>
	<rect x="4" y="24" width="1" height="1"/>
	<rect x="5" y="25" width="1" height="1"/>
	<rect x="6" y="26" width="1" height="1"/>
	<rect x="7" y="27" width="1" height="1"/>
	<rect x="8" y="28" width="1" height="1"/>
	<rect x="2" y="18" width="1" height="5"/>
	<rect x="3" y="17" width="2" height="1"/>
	<rect x="5" y="18" width="2" height="1"/>
	<rect x="7" y="19" width="1" height="1"/>
	<rect x="8" y="20" width="1" height="1"/>
	<rect x="9" y="21" width="1" height="1"/>
	<rect x="10" y="22" width="2" height="1"/>
	<rect x="12" y="23" width="1" height="1"/>
	<rect x="13" y="24" width="1" height="1"/>
	<rect x="14" y="25" width="1" height="1"/>
	<rect x="15" y="26" width="1" height="1"/>
	<rect x="31" y="32" width="1" height="1"/>
	<rect x="32" y="31" width="1" height="1"/>
	<rect x="33" y="30" width="1" height="1"/>
	<rect x="34" y="31" width="1" height="1"/>
	<rect x="35" y="32" width="1" height="1"/>
	<rect x="36" y="33" width="1" height="2"/>
	<rect x="37" y="35" width="1" height="1"/>
	<polygon points="41,40 41,42 42,42 42,41 43,41 43,40 	"/>
	<rect x="43" y="39" width="1" height="1"/>
	<rect x="44" y="37" width="1" height="2"/>
	<rect x="45" y="35" width="1" height="2"/>
	<rect x="46" y="34" width="1" height="1"/>
	<rect x="47" y="33" width="1" height="1"/>
	<rect x="48" y="30" width="1" height="3"/>
	<rect x="44" y="32" width="1" height="1"/>
	<rect x="45" y="31" width="1" height="1"/>
	<rect x="46" y="30" width="1" height="1"/>
	<rect x="47" y="29" width="1" height="1"/>
	<rect x="48" y="28" width="1" height="1"/>
	<rect x="49" y="26" width="1" height="2"/>
	<rect x="50" y="25" width="1" height="1"/>
	<rect x="49" y="24" width="1" height="1"/>
	<rect x="48" y="23" width="1" height="1"/>
	<rect x="47" y="24" width="1" height="1"/>
	<rect x="46" y="25" width="1" height="1"/>
	<rect x="45" y="26" width="1" height="1"/>
	<rect x="44" y="27" width="1" height="1"/>
	<rect x="43" y="28" width="1" height="1"/>
	<rect x="49" y="18" width="1" height="5"/>
	<rect x="47" y="17" width="2" height="1"/>
	<rect x="45" y="18" width="2" height="1"/>
	<rect x="44" y="19" width="1" height="1"/>
	<rect x="43" y="20" width="1" height="1"/>
	<rect x="42" y="21" width="1" height="1"/>
	<rect x="40" y="22" width="2" height="1"/>
	<rect x="39" y="23" width="1" height="1"/>
	<rect x="38" y="24" width="1" height="1"/>
	<rect x="37" y="25" width="1" height="1"/>
	<rect x="35" y="26" width="2" height="1"/>
</g>
</svg>
