<?xml version="1.0" encoding="utf-8"?>
<!-- Generator: Adobe Illustrator 25.0.1, SVG Export Plug-In . SVG Version: 6.00 Build 0)  -->
<!DOCTYPE svg PUBLIC "-//W3C//DTD SVG 1.1//EN" "http://www.w3.org/Graphics/SVG/1.1/DTD/svg11.dtd">
<svg version="1.1" id="Layer_1" xmlns="http://www.w3.org/2000/svg" xmlns:xlink="http://www.w3.org/1999/xlink" x="0px" y="0px"
	 viewBox="0 0 52 52" style="enable-background:new 0 0 52 52;" xml:space="preserve">
<g id="patch">
	<rect x="14" y="13" width="1" height="1"/>
	<rect x="15" y="14" width="2" height="1"/>
	<rect x="17" y="15" width="2" height="1"/>
	<rect x="19" y="16" width="2" height="1"/>
	<rect x="21" y="17" width="3" height="1"/>
	<rect x="24" y="18" width="2" height="1"/>
	<polygon points="31,19 31,18 30,18 30,19 26,19 26,20 28,20 28,21 27,21 27,22 26,22 26,26 27,26 27,27 28,27 28,28 29,28 29,29 
		30,29 30,28 31,28 31,27 32,27 32,26 33,26 33,25 34,25 34,21 33,21 33,20 37,20 37,19 	"/>
</g>
</svg>
