<?xml version="1.0" encoding="utf-8"?>
<!-- Generator: Adobe Illustrator 25.0.1, SVG Export Plug-In . SVG Version: 6.00 Build 0)  -->
<!DOCTYPE svg PUBLIC "-//W3C//DTD SVG 1.1//EN" "http://www.w3.org/Graphics/SVG/1.1/DTD/svg11.dtd" [
	<!ENTITY st0 "fill:#FFFFFF;">
]>
<svg version="1.1" id="Layer_1" xmlns="http://www.w3.org/2000/svg" xmlns:xlink="http://www.w3.org/1999/xlink" x="0px" y="0px"
	 viewBox="0 0 52 52" style="enable-background:new 0 0 52 52;" xml:space="preserve">
<polygon id="outlines" points="36,19 36,20 34,20 34,21 33,21 33,20 27,20 27,21 26,21 26,22 25,22 25,21 24,21 24,20 18,20 18,21 
	16,21 16,20 15,20 15,19 14,19 14,21 15,21 15,22 16,22 16,23 18,23 18,27 24,27 24,23 27,23 27,27 33,27 33,23 34,23 34,22 36,22 
	36,21 37,21 37,19 "/>
<g id="white">
	<rect x="19" y="24" style="&st0;" width="1" height="1"/>
	<rect x="28" y="24" style="&st0;" width="1" height="1"/>
</g>
</svg>
