<?xml version="1.0" encoding="utf-8"?>
<!-- Generator: Adobe Illustrator 25.0.1, SVG Export Plug-In . SVG Version: 6.00 Build 0)  -->
<!DOCTYPE svg PUBLIC "-//W3C//DTD SVG 1.1//EN" "http://www.w3.org/Graphics/SVG/1.1/DTD/svg11.dtd" [
	<!ENTITY st0 "fill:#F80000;">
	<!ENTITY st1 "fill:#F88600;">
	<!ENTITY st2 "fill:#E9F800;">
	<!ENTITY st3 "fill:#29F800;">
	<!ENTITY st4 "fill:#00DDF3;">
	<!ENTITY st5 "fill:#0022F3;">
]>
<svg version="1.1" id="Layer_1" xmlns="http://www.w3.org/2000/svg" xmlns:xlink="http://www.w3.org/1999/xlink" x="0px" y="0px"
	 viewBox="0 0 52 52" style="enable-background:new 0 0 52 52;" xml:space="preserve">
<rect id="red" x="18" y="21" style="&st0;" width="14" height="1"/>
<rect id="orange" x="17" y="22" style="&st1;" width="16" height="1"/>
<rect id="yellow" x="17" y="23" style="&st2;" width="16" height="1"/>
<g id="green">
	<rect x="26" y="24" style="&st3;" width="7" height="1"/>
	<rect x="17" y="24" style="&st3;" width="7" height="1"/>
</g>
<g id="cyan">
	<rect x="27" y="25" style="&st4;" width="5" height="1"/>
	<rect x="18" y="25" style="&st4;" width="5" height="1"/>
</g>
<g id="blue">
	<rect x="27" y="26" style="&st5;" width="5" height="1"/>
	<rect x="19" y="26" style="&st5;" width="4" height="1"/>
</g>
<g id="outlines">
	<polygon points="33,21 33,20 17,20 17,21 16,21 16,26 17,26 17,27 18,27 18,28 23,28 23,27 19,27 19,26 18,26 18,25 17,25 17,22 
		18,22 18,21 32,21 32,22 33,22 33,25 32,25 32,27 33,27 33,26 34,26 34,21 	"/>
	<rect x="27" y="27" width="5" height="1"/>
	<rect x="26" y="25" width="1" height="2"/>
	<rect x="24" y="24" width="2" height="1"/>
	<rect x="23" y="25" width="1" height="2"/>
</g>
</svg>
