<?xml version="1.0" encoding="utf-8"?>
<!-- Generator: Adobe Illustrator 25.0.1, SVG Export Plug-In . SVG Version: 6.00 Build 0)  -->
<!DOCTYPE svg PUBLIC "-//W3C//DTD SVG 1.1//EN" "http://www.w3.org/Graphics/SVG/1.1/DTD/svg11.dtd" [
	<!ENTITY st0 "fill:#757575;">
	<!ENTITY st1 "fill:#061414;">
]>
<svg version="1.1" id="Layer_1" xmlns="http://www.w3.org/2000/svg" xmlns:xlink="http://www.w3.org/1999/xlink" x="0px" y="0px"
	 viewBox="0 0 52 52" style="enable-background:new 0 0 52 52;" xml:space="preserve">
<g id="grey">
	<polygon style="&st0;" points="43,16 42,16 42,14 40,14 40,11 38,11 38,9 36,9 36,7 34,7 34,5 31,5 31,7 33,7 33,9 35,9 35,11 
		37,11 37,14 38,14 38,16 37,16 37,26 40,26 40,23 42,23 42,18 43,18 	"/>
	<polygon style="&st0;" points="18,3 18,5 16,5 16,7 14,7 14,9 12,9 12,11 10,11 10,14 9,14 9,16 8,16 8,19 9,19 9,23 11,23 11,26 
		13,26 13,15 12,15 12,14 13,14 13,11 15,11 15,9 17,9 17,7 19,7 19,5 31,5 31,3 	"/>
</g>
<g id="outlines">
	<polygon style="&st1;" points="39,25 39,19 40,19 40,18 41,18 41,16 40,16 40,15 38,15 38,16 37,16 37,17 36,17 36,19 35,19 35,22 
		36,22 36,25 37,25 37,26 38,26 38,25 	"/>
	<rect x="38" y="26" style="&st1;" width="1" height="1"/>
	<rect x="39" y="25" style="&st1;" width="1" height="1"/>
	<rect x="40" y="23" style="&st1;" width="1" height="2"/>
	<rect x="41" y="20" style="&st1;" width="1" height="3"/>
	<rect x="42" y="18" style="&st1;" width="1" height="2"/>
	<rect x="43" y="16" style="&st1;" width="1" height="2"/>
	<rect x="42" y="15" style="&st1;" width="1" height="1"/>
	<polygon style="&st1;" points="42,15 42,14 41,14 41,13 40,13 40,15 	"/>
	<rect x="39" y="11" style="&st1;" width="1" height="2"/>
	<rect x="38" y="10" style="&st1;" width="1" height="1"/>
	<rect x="37" y="9" style="&st1;" width="1" height="1"/>
	<rect x="36" y="8" style="&st1;" width="1" height="1"/>
	<rect x="35" y="7" style="&st1;" width="1" height="1"/>
	<rect x="34" y="6" style="&st1;" width="1" height="1"/>
	<rect x="33" y="5" style="&st1;" width="1" height="1"/>
	<rect x="31" y="4" style="&st1;" width="2" height="1"/>
	<rect x="30" y="5" style="&st1;" width="1" height="1"/>
	<rect x="31" y="6" style="&st1;" width="1" height="1"/>
	<rect x="32" y="7" style="&st1;" width="1" height="1"/>
	<rect x="33" y="8" style="&st1;" width="1" height="1"/>
	<rect x="34" y="9" style="&st1;" width="1" height="1"/>
	<rect x="35" y="10" style="&st1;" width="1" height="1"/>
	<rect x="36" y="11" style="&st1;" width="1" height="2"/>
	<rect x="37" y="13" style="&st1;" width="1" height="1"/>
	<rect x="29" y="3" style="&st1;" width="2" height="1"/>
	<rect x="19" y="2" style="&st1;" width="10" height="1"/>
	<rect x="20" y="4" style="&st1;" width="9" height="1"/>
	<rect x="19" y="5" style="&st1;" width="1" height="1"/>
	<rect x="18" y="6" style="&st1;" width="1" height="1"/>
	<rect x="17" y="7" style="&st1;" width="1" height="1"/>
	<rect x="16" y="8" style="&st1;" width="1" height="1"/>
	<rect x="15" y="9" style="&st1;" width="1" height="1"/>
	<rect x="14" y="10" style="&st1;" width="1" height="1"/>
	<rect x="13" y="11" style="&st1;" width="1" height="1"/>
	<rect x="12" y="12" style="&st1;" width="1" height="2"/>
	<rect x="18" y="3" style="&st1;" width="1" height="1"/>
	<rect x="17" y="4" style="&st1;" width="1" height="1"/>
	<rect x="16" y="5" style="&st1;" width="1" height="1"/>
	<rect x="15" y="6" style="&st1;" width="1" height="1"/>
	<rect x="14" y="7" style="&st1;" width="1" height="1"/>
	<rect x="13" y="8" style="&st1;" width="1" height="1"/>
	<rect x="12" y="9" style="&st1;" width="1" height="1"/>
	<rect x="11" y="10" style="&st1;" width="1" height="1"/>
	<rect x="10" y="11" style="&st1;" width="1" height="1"/>
	<rect x="9" y="12" style="&st1;" width="1" height="3"/>
	<rect x="8" y="15" style="&st1;" width="1" height="1"/>
	<rect x="7" y="16" style="&st1;" width="1" height="2"/>
	<rect x="8" y="18" style="&st1;" width="1" height="2"/>
	<rect x="9" y="20" style="&st1;" width="1" height="3"/>
	<rect x="10" y="23" style="&st1;" width="1" height="2"/>
	<rect x="11" y="25" style="&st1;" width="1" height="1"/>
	<rect x="12" y="26" style="&st1;" width="1" height="1"/>
	<polygon style="&st1;" points="11,16 10,16 10,18 11,18 11,19 12,19 12,25 13,25 13,26 14,26 14,25 15,25 15,22 16,22 16,19 15,19 
		15,17 14,17 14,16 13,16 13,15 12,15 12,14 11,14 	"/>
</g>
</svg>
