<?xml version="1.0" encoding="utf-8"?>
<!-- Generator: Adobe Illustrator 25.0.1, SVG Export Plug-In . SVG Version: 6.00 Build 0)  -->
<!DOCTYPE svg PUBLIC "-//W3C//DTD SVG 1.1//EN" "http://www.w3.org/Graphics/SVG/1.1/DTD/svg11.dtd" [
	<!ENTITY st0 "fill:#FFFFFF;">
	<!ENTITY st1 "fill:#FFBCBC;">
	<!ENTITY st2 "fill:#D90505;">
	<!ENTITY st3 "fill:#450400;">
	<!ENTITY st4 "fill:#561616;">
	<!ENTITY st5 "fill:#C3C3C3;">
]>
<svg version="1.1" id="Layer_1" xmlns="http://www.w3.org/2000/svg" xmlns:xlink="http://www.w3.org/1999/xlink" x="0px" y="0px"
	 viewBox="0 0 52 52" style="enable-background:new 0 0 52 52;" xml:space="preserve">
<polygon id="white" style="&st0;" points="31,35 31,34 30,34 30,33 29,33 29,31 27,31 27,32 28,32 28,34 29,34 29,35 30,35 30,38 
	33,38 33,35 "/>
<g id="ember">
	<rect x="32" y="37" style="&st1;" width="1" height="1"/>
	<rect x="32" y="38" style="&st2;" width="1" height="1"/>
	<rect x="33" y="38" style="&st3;" width="1" height="1"/>
	<rect x="33" y="37" style="&st4;" width="1" height="1"/>
</g>
<g id="smoke">
	<rect x="34" y="36" style="&st5;" width="1" height="1"/>
	<rect x="35" y="35" style="&st5;" width="1" height="1"/>
	<rect x="36" y="34" style="&st5;" width="1" height="1"/>
	<rect x="37" y="33" style="&st5;" width="1" height="1"/>
	<rect x="38" y="30" style="&st5;" width="1" height="3"/>
	<rect x="40" y="29" style="&st5;" width="1" height="4"/>
	<rect x="39" y="33" style="&st5;" width="1" height="1"/>
	<rect x="38" y="34" style="&st5;" width="1" height="1"/>
	<rect x="37" y="35" style="&st5;" width="1" height="1"/>
	<rect x="36" y="36" style="&st5;" width="1" height="1"/>
	<rect x="35" y="37" style="&st5;" width="1" height="1"/>
	<rect x="34" y="38" style="&st5;" width="1" height="1"/>
</g>
<g id="outline">
	<rect x="28" y="31" width="1" height="1"/>
	<rect x="29" y="32" width="1" height="1"/>
	<rect x="30" y="33" width="1" height="1"/>
	<rect x="31" y="34" width="1" height="1"/>
	<polygon points="32,35 32,36 33,36 33,37 34,37 34,35 	"/>
	<polygon points="30,39 32,39 32,38 31,38 31,37 30,37 	"/>
	<polygon points="28,36 29,36 29,37 30,37 30,35 29,35 29,34 28,34 	"/>
	<rect x="27" y="32" width="1" height="2"/>
	<polygon points="28,31 28,30 26,30 26,32 27,32 27,31 	"/>
</g>
</svg>
