<?xml version="1.0" encoding="utf-8"?>
<!-- Generator: Adobe Illustrator 25.0.1, SVG Export Plug-In . SVG Version: 6.00 Build 0)  -->
<!DOCTYPE svg PUBLIC "-//W3C//DTD SVG 1.1//EN" "http://www.w3.org/Graphics/SVG/1.1/DTD/svg11.dtd" [
	<!ENTITY st0 "fill:#E9F800;">
	<!ENTITY st1 "fill:#FFFFFF;">
	<!ENTITY st2 "fill:#F8C200;">
	<!ENTITY st3 "fill:#010000;">
]>
<svg version="1.1" id="Layer_1" xmlns="http://www.w3.org/2000/svg" xmlns:xlink="http://www.w3.org/1999/xlink" x="0px" y="0px"
	 viewBox="0 0 52 52" style="enable-background:new 0 0 52 52;" xml:space="preserve">
<polygon id="yellow" style="&st0;" points="30,41 28,41 28,39 26,39 26,38 25,38 25,39 23,39 23,41 21,41 21,44 23,44 23,46 25,46 
	25,47 26,47 26,46 28,46 28,44 30,44 "/>
<rect id="white" x="24" y="41" style="&st1;" width="3" height="3"/>
<g id="orange">
	<polygon style="&st2;" points="22,37 21,37 21,36 20,36 20,35 18,35 18,37 19,37 19,38 20,38 20,39 21,39 21,40 23,40 23,38 22,38 
			"/>
	<polygon style="&st2;" points="33,35 31,35 31,36 30,36 30,37 29,37 29,38 28,38 28,40 30,40 30,39 31,39 31,38 32,38 32,37 33,37 
			"/>
</g>
<g id="outline">
	<rect x="33" y="35" style="&st3;" width="1" height="1"/>
	<rect x="32" y="36" style="&st3;" width="1" height="1"/>
	<rect x="31" y="37" style="&st3;" width="1" height="1"/>
	<rect x="30" y="38" style="&st3;" width="1" height="1"/>
	<rect x="29" y="39" style="&st3;" width="1" height="1"/>
	<rect x="28" y="38" style="&st3;" width="1" height="1"/>
	<rect x="29" y="37" style="&st3;" width="1" height="1"/>
	<rect x="30" y="36" style="&st3;" width="1" height="1"/>
	<rect x="31" y="35" style="&st3;" width="1" height="1"/>
	<rect x="26" y="38" style="&st3;" width="1" height="1"/>
	<rect x="27" y="39" style="&st3;" width="1" height="1"/>
	<rect x="28" y="40" style="&st3;" width="1" height="1"/>
	<rect x="29" y="41" style="&st3;" width="1" height="1"/>
	<rect x="30" y="42" style="&st3;" width="1" height="1"/>
	<rect x="29" y="43" style="&st3;" width="1" height="1"/>
	<rect x="28" y="44" style="&st3;" width="1" height="1"/>
	<rect x="27" y="45" style="&st3;" width="1" height="1"/>
	<rect x="26" y="46" style="&st3;" width="1" height="1"/>
	<rect x="26" y="43" style="&st3;" width="1" height="1"/>
	<rect x="27" y="42" style="&st3;" width="1" height="1"/>
	<rect x="26" y="41" style="&st3;" width="1" height="1"/>
	<rect x="17" y="35" style="&st3;" width="1" height="1"/>
	<rect x="18" y="36" style="&st3;" width="1" height="1"/>
	<rect x="19" y="37" style="&st3;" width="1" height="1"/>
	<rect x="20" y="38" style="&st3;" width="1" height="1"/>
	<rect x="21" y="39" style="&st3;" width="1" height="1"/>
	<rect x="22" y="38" style="&st3;" width="1" height="1"/>
	<rect x="21" y="37" style="&st3;" width="1" height="1"/>
	<rect x="20" y="36" style="&st3;" width="1" height="1"/>
	<rect x="19" y="35" style="&st3;" width="1" height="1"/>
	<rect x="25" y="37" style="&st3;" width="1" height="1"/>
	<rect x="24" y="38" style="&st3;" width="1" height="1"/>
	<rect x="23" y="39" style="&st3;" width="1" height="1"/>
	<rect x="22" y="40" style="&st3;" width="1" height="1"/>
	<rect x="21" y="41" style="&st3;" width="1" height="1"/>
	<rect x="20" y="42" style="&st3;" width="1" height="1"/>
	<rect x="21" y="43" style="&st3;" width="1" height="1"/>
	<rect x="22" y="44" style="&st3;" width="1" height="1"/>
	<rect x="23" y="45" style="&st3;" width="1" height="1"/>
	<rect x="24" y="46" style="&st3;" width="1" height="1"/>
	<rect x="25" y="47" style="&st3;" width="1" height="1"/>
	<rect x="25" y="44" style="&st3;" width="1" height="1"/>
	<rect x="24" y="43" style="&st3;" width="1" height="1"/>
	<rect x="23" y="42" style="&st3;" width="1" height="1"/>
	<rect x="24" y="41" style="&st3;" width="1" height="1"/>
	<rect x="25" y="40" style="&st3;" width="1" height="1"/>
</g>
</svg>
