<?xml version="1.0" encoding="utf-8"?>
<!-- Generator: Adobe Illustrator 25.0.1, SVG Export Plug-In . SVG Version: 6.00 Build 0)  -->
<!DOCTYPE svg PUBLIC "-//W3C//DTD SVG 1.1//EN" "http://www.w3.org/Graphics/SVG/1.1/DTD/svg11.dtd" [
	<!ENTITY st0 "fill:#949494;">
	<!ENTITY st1 "fill:#E9F800;">
]>
<svg version="1.1" id="Layer_1" xmlns="http://www.w3.org/2000/svg" xmlns:xlink="http://www.w3.org/1999/xlink" x="0px" y="0px"
	 viewBox="0 0 52 52" style="enable-background:new 0 0 52 52;" xml:space="preserve">
<g id="chain">
	<rect x="34" y="34" style="&st0;" width="1" height="1"/>
	<rect x="33" y="35" style="&st0;" width="1" height="1"/>
	<rect x="32" y="36" style="&st0;" width="1" height="1"/>
	<rect x="31" y="37" style="&st0;" width="1" height="1"/>
	<rect x="30" y="38" style="&st0;" width="1" height="1"/>
	<rect x="29" y="39" style="&st0;" width="1" height="1"/>
	<rect x="28" y="40" style="&st0;" width="1" height="1"/>
	<rect x="22" y="40" style="&st0;" width="1" height="1"/>
	<rect x="21" y="39" style="&st0;" width="1" height="1"/>
	<rect x="20" y="38" style="&st0;" width="1" height="1"/>
	<rect x="19" y="37" style="&st0;" width="1" height="1"/>
	<rect x="18" y="36" style="&st0;" width="1" height="1"/>
	<rect x="17" y="35" style="&st0;" width="1" height="1"/>
	<rect x="16" y="34" style="&st0;" width="1" height="1"/>
</g>
<polygon id="cross" style="&st1;" points="28,40 26,40 26,38 25,38 25,40 23,40 23,41 25,41 25,46 26,46 26,41 28,41 "/>
</svg>
