<?xml version="1.0" encoding="utf-8"?>
<!-- Generator: Adobe Illustrator 25.0.1, SVG Export Plug-In . SVG Version: 6.00 Build 0)  -->
<!DOCTYPE svg PUBLIC "-//W3C//DTD SVG 1.1//EN" "http://www.w3.org/Graphics/SVG/1.1/DTD/svg11.dtd" [
	<!ENTITY st0 "fill:#E8E3E3;">
	<!ENTITY st1 "fill:#E1DDDD;">
	<!ENTITY st2 "fill:#C4C4C4;">
]>
<svg version="1.1" id="Layer_1" xmlns="http://www.w3.org/2000/svg" xmlns:xlink="http://www.w3.org/1999/xlink" x="0px" y="0px"
	 viewBox="0 0 52 52" style="enable-background:new 0 0 52 52;" xml:space="preserve">
<polygon id="lighter" style="&st0;" points="32,31 31,31 31,29 20,29 20,31 19,31 19,35 20,35 20,37 22,37 22,39 24,39 24,40 27,40 
	27,39 29,39 29,37 31,37 31,35 32,35 "/>
<g id="medium">
	<rect x="27" y="29" style="&st1;" width="1" height="1"/>
	<rect x="25" y="29" style="&st1;" width="1" height="1"/>
	<rect x="23" y="29" style="&st1;" width="1" height="1"/>
	<rect x="21" y="30" style="&st1;" width="1" height="1"/>
	<rect x="24" y="30" style="&st1;" width="1" height="1"/>
	<rect x="26" y="30" style="&st1;" width="1" height="1"/>
	<rect x="29" y="30" style="&st1;" width="1" height="1"/>
	<polygon style="&st1;" points="30,33 30,32 29,32 29,31 27,31 27,33 28,33 28,34 30,34 30,35 31,35 31,33 	"/>
	<polygon style="&st1;" points="22,31 22,32 21,32 21,33 20,33 20,35 22,35 22,34 23,34 23,33 24,33 24,31 	"/>
</g>
<g id="darker">
	<polygon style="&st2;" points="27,35 28,35 28,33 26,33 26,34 27,34 	"/>
	<rect x="25" y="34" style="&st2;" width="1" height="1"/>
	<polygon style="&st2;" points="24,34 25,34 25,33 23,33 23,35 24,35 	"/>
	<rect x="26" y="35" style="&st2;" width="1" height="1"/>
	<rect x="28" y="35" style="&st2;" width="1" height="1"/>
	<rect x="31" y="34" style="&st2;" width="1" height="1"/>
	<rect x="30" y="35" style="&st2;" width="1" height="1"/>
	<rect x="19" y="34" style="&st2;" width="1" height="1"/>
	<rect x="20" y="35" style="&st2;" width="1" height="1"/>
	<rect x="22" y="35" style="&st2;" width="1" height="1"/>
	<rect x="24" y="35" style="&st2;" width="1" height="1"/>
	<rect x="21" y="36" style="&st2;" width="1" height="1"/>
	<rect x="23" y="36" style="&st2;" width="1" height="1"/>
	<rect x="25" y="36" style="&st2;" width="1" height="1"/>
	<rect x="27" y="36" style="&st2;" width="1" height="1"/>
	<rect x="29" y="36" style="&st2;" width="1" height="1"/>
	<rect x="28" y="37" style="&st2;" width="1" height="1"/>
	<rect x="26" y="37" style="&st2;" width="1" height="1"/>
	<rect x="24" y="37" style="&st2;" width="1" height="1"/>
	<rect x="22" y="37" style="&st2;" width="1" height="1"/>
	<rect x="23" y="38" style="&st2;" width="1" height="1"/>
	<rect x="27" y="38" style="&st2;" width="1" height="1"/>
	<rect x="26" y="39" style="&st2;" width="1" height="1"/>
	<rect x="24" y="39" style="&st2;" width="1" height="1"/>
	<rect x="19" y="32" style="&st2;" width="1" height="1"/>
	<rect x="20" y="30" style="&st2;" width="1" height="2"/>
	<rect x="22" y="30" style="&st2;" width="1" height="1"/>
	<rect x="30" y="30" style="&st2;" width="1" height="2"/>
	<rect x="31" y="32" style="&st2;" width="1" height="1"/>
</g>
<g id="outline">
	<rect x="21" y="28" width="9" height="1"/>
	<rect x="30" y="29" width="1" height="1"/>
	<rect x="31" y="30" width="1" height="1"/>
	<polygon points="32,31 32,33 31,33 31,34 32,34 32,35 33,35 33,31 	"/>
	<rect x="30" y="32" width="1" height="1"/>
	<rect x="31" y="35" width="1" height="1"/>
	<rect x="30" y="36" width="1" height="1"/>
	<rect x="29" y="35" width="1" height="1"/>
	<rect x="28" y="34" width="1" height="1"/>
	<rect x="29" y="37" width="1" height="1"/>
	<rect x="28" y="38" width="1" height="1"/>
	<rect x="27" y="37" width="1" height="1"/>
	<rect x="27" y="39" width="1" height="1"/>
	<rect x="24" y="40" width="3" height="1"/>
	<rect x="23" y="39" width="1" height="1"/>
	<rect x="25" y="38" width="1" height="1"/>
	<rect x="22" y="38" width="1" height="1"/>
	<rect x="23" y="37" width="1" height="1"/>
	<rect x="24" y="36" width="1" height="1"/>
	<rect x="25" y="35" width="1" height="1"/>
	<rect x="22" y="34" width="1" height="1"/>
	<rect x="21" y="35" width="1" height="1"/>
	<rect x="21" y="37" width="1" height="1"/>
	<rect x="20" y="36" width="1" height="1"/>
	<rect x="19" y="35" width="1" height="1"/>
	<polygon points="20,34 20,33 19,33 19,31 18,31 18,35 19,35 19,34 	"/>
	<rect x="20" y="32" width="1" height="1"/>
	<rect x="19" y="30" width="1" height="1"/>
	<rect x="20" y="29" width="1" height="1"/>
	<rect x="23" y="30" width="1" height="1"/>
	<rect x="24" y="31" width="3" height="1"/>
	<rect x="27" y="30" width="1" height="1"/>
</g>
</svg>
