<?xml version="1.0" encoding="utf-8"?>
<!-- Generator: Adobe Illustrator 25.0.1, SVG Export Plug-In . SVG Version: 6.00 Build 0)  -->
<!DOCTYPE svg PUBLIC "-//W3C//DTD SVG 1.1//EN" "http://www.w3.org/Graphics/SVG/1.1/DTD/svg11.dtd" [
	<!ENTITY st0 "fill:#FFFFFF;">
]>
<svg version="1.1" id="Layer_1" xmlns="http://www.w3.org/2000/svg" xmlns:xlink="http://www.w3.org/1999/xlink" x="0px" y="0px"
	 viewBox="0 0 52 52" style="enable-background:new 0 0 52 52;" xml:space="preserve">
<polygon id="white" style="&st0;" points="32,22 32,21 18,21 18,22 17,22 17,25 18,25 18,26 19,26 19,27 23,27 23,25 24,25 24,24 
	26,24 26,25 27,25 27,27 32,27 32,25 33,25 33,22 "/>
<g id="outlines">
	<polygon points="33,21 33,20 17,20 17,21 16,21 16,26 17,26 17,27 18,27 18,28 23,28 23,27 19,27 19,26 18,26 18,25 17,25 17,22 
		18,22 18,21 32,21 32,22 33,22 33,25 32,25 32,27 33,27 33,26 34,26 34,21 	"/>
	<rect x="27" y="27" width="5" height="1"/>
	<rect x="26" y="25" width="1" height="2"/>
	<rect x="24" y="24" width="2" height="1"/>
	<rect x="23" y="25" width="1" height="2"/>
</g>
</svg>
