<?xml version="1.0" encoding="utf-8"?>
<!-- Generator: Adobe Illustrator 25.0.1, SVG Export Plug-In . SVG Version: 6.00 Build 0)  -->
<!DOCTYPE svg PUBLIC "-//W3C//DTD SVG 1.1//EN" "http://www.w3.org/Graphics/SVG/1.1/DTD/svg11.dtd" [
	<!ENTITY st0 "fill:#FFFFFF;">
]>
<svg version="1.1" id="Layer_1" xmlns="http://www.w3.org/2000/svg" xmlns:xlink="http://www.w3.org/1999/xlink" x="0px" y="0px"
	 viewBox="0 0 52 52" style="enable-background:new 0 0 52 52;" xml:space="preserve">
<g id="white">
	<rect x="21" y="27" style="&st0;" width="1" height="1"/>
	<polygon style="&st0;" points="19,29 19,27 21,27 21,26 18,26 18,30 20,30 20,29 	"/>
	<polygon style="&st0;" points="30,29 28,29 28,28 23,28 23,29 21,29 21,30 20,30 20,31 22,31 22,30 29,30 29,31 31,31 31,30 30,30 
			"/>
	<polygon style="&st0;" points="30,26 30,27 32,27 32,29 31,29 31,30 33,30 33,26 	"/>
	<rect x="29" y="27" style="&st0;" width="1" height="1"/>
</g>
</svg>
