<?xml version="1.0" encoding="utf-8"?>
<!-- Generator: Adobe Illustrator 25.0.1, SVG Export Plug-In . SVG Version: 6.00 Build 0)  -->
<svg version="1.1" id="Layer_1" xmlns="http://www.w3.org/2000/svg" xmlns:xlink="http://www.w3.org/1999/xlink" x="0px" y="0px"
	 viewBox="0 0 52 52" style="enable-background:new 0 0 52 52;" xml:space="preserve">
<style type="text/css">
	.st0{fill:#0049C1;}
	.st1{fill:#0064CA;}
	.st2{fill:#008CD8;}
	.st3{fill:#00B7E6;}
	.st4{fill:#00DFF4;}
</style>
<g id="eyes">
	<rect x="30" y="21" class="st0" width="1" height="2"/>
	<rect x="20" y="21" class="st0" width="1" height="2"/>
	<rect x="29" y="22" class="st1" width="3" height="2"/>
	<rect x="19" y="22" class="st1" width="3" height="2"/>
	<rect x="28" y="23" class="st2" width="4" height="2"/>
	<rect x="19" y="23" class="st2" width="4" height="2"/>
	<rect x="28" y="24" class="st3" width="3" height="2"/>
	<rect x="20" y="24" class="st3" width="3" height="2"/>
	<rect x="21" y="25" class="st4" width="2" height="1"/>
	<rect x="28" y="25" class="st4" width="2" height="1"/>
</g>
<g id="pupils">
	<rect x="22" y="24" width="1" height="1"/>
	<rect x="28" y="24" width="1" height="1"/>
</g>
<g>
	<rect x="27" y="23" width="1" height="3"/>
	<rect x="28" y="26" width="2" height="1"/>
	<rect x="31" y="24" width="1" height="1"/>
	<rect x="31" y="21" width="1" height="1"/>
	<rect x="32" y="22" width="1" height="2"/>
	<rect x="30" y="25" width="1" height="1"/>
	<rect x="30" y="20" width="1" height="1"/>
	<rect x="29" y="21" width="1" height="1"/>
	<rect x="28" y="22" width="1" height="1"/>
	<rect x="23" y="23" width="1" height="3"/>
	<rect x="21" y="26" width="2" height="1"/>
	<rect x="19" y="24" width="1" height="1"/>
	<rect x="19" y="21" width="1" height="1"/>
	<rect x="18" y="22" width="1" height="2"/>
	<rect x="20" y="25" width="1" height="1"/>
	<rect x="20" y="20" width="1" height="1"/>
	<rect x="21" y="21" width="1" height="1"/>
	<rect x="22" y="22" width="1" height="1"/>
</g>
</svg>
