<?xml version="1.0" encoding="utf-8"?>
<!-- Generator: Adobe Illustrator 25.0.1, SVG Export Plug-In . SVG Version: 6.00 Build 0)  -->
<svg version="1.1" id="Layer_1" xmlns="http://www.w3.org/2000/svg" xmlns:xlink="http://www.w3.org/1999/xlink" x="0px" y="0px"
	 viewBox="0 0 52 52" style="enable-background:new 0 0 52 52;" xml:space="preserve">
<style type="text/css">
	.st0{fill:#F700E9;}
</style>
<g id="eyes">
	<polygon class="st0" points="22,23 22,22 21,22 21,21 20,21 20,22 19,22 19,24 20,24 20,25 21,25 21,26 23,26 23,23 	"/>
	<polygon class="st0" points="29,23 29,22 30,22 30,21 31,21 31,22 32,22 32,24 31,24 31,25 30,25 30,26 28,26 28,23 	"/>
</g>
<g id="pupils">
	<rect x="22" y="24" width="1" height="1"/>
	<rect x="28" y="24" width="1" height="1"/>
</g>
<g>
	<rect x="27" y="23" width="1" height="3"/>
	<rect x="28" y="26" width="2" height="1"/>
	<rect x="31" y="24" width="1" height="1"/>
	<rect x="31" y="21" width="1" height="1"/>
	<rect x="32" y="22" width="1" height="2"/>
	<rect x="30" y="25" width="1" height="1"/>
	<rect x="30" y="20" width="1" height="1"/>
	<rect x="29" y="21" width="1" height="1"/>
	<rect x="28" y="22" width="1" height="1"/>
	<rect x="23" y="23" width="1" height="3"/>
	<rect x="21" y="26" width="2" height="1"/>
	<rect x="19" y="24" width="1" height="1"/>
	<rect x="19" y="21" width="1" height="1"/>
	<rect x="18" y="22" width="1" height="2"/>
	<rect x="20" y="25" width="1" height="1"/>
	<rect x="20" y="20" width="1" height="1"/>
	<rect x="21" y="21" width="1" height="1"/>
	<rect x="22" y="22" width="1" height="1"/>
</g>
</svg>
