<?xml version="1.0" encoding="utf-8"?>
<!-- Generator: Adobe Illustrator 25.0.1, SVG Export Plug-In . SVG Version: 6.00 Build 0)  -->
<svg version="1.1" id="Layer_1" xmlns="http://www.w3.org/2000/svg" xmlns:xlink="http://www.w3.org/1999/xlink" x="0px" y="0px"
	 viewBox="0 0 52 52" style="enable-background:new 0 0 52 52;" xml:space="preserve">
<style type="text/css">
	.st0{fill:#0086F8;}
	.st1{fill:#FFFFFF;}
	.st2{fill:#021562;}
	.st3{fill:#00176D;}
	.st4{fill:#011D88;}
	.st5{fill:#0020A1;}
	.st6{fill:#0025B2;}
	.st7{fill:#002BCD;}
	.st8{fill:#0025B0;}
	.st9{fill:#0223A0;}
	.st10{fill:#001B89;}
	.st11{fill:#011C6C;}
	.st12{fill:#001461;}
	.st13{fill:#00186D;}
	.st14{fill:#001D88;}
	.st15{fill:#00229F;}
	.st16{fill:#002ACB;}
	.st17{fill:#0127B2;}
	.st18{fill:#0121A0;}
	.st19{fill:#00176F;}
	.st20{fill:#001762;}
	.st21{fill:#0021A0;}
	.st22{fill:#0225B1;}
	.st23{fill:#0021A2;}
	.st24{fill:#0027B2;}
	.st25{fill:#021E89;}
	.st26{fill:#00249F;}
</style>
<polygon id="shirt" class="st0" points="41,51 41,50 40,50 40,43 39,43 39,39 38,39 38,37 36,37 36,35 15,35 15,37 13,37 13,39 
	12,39 12,44 11,44 11,50 10,50 10,51 9,51 9,52 13,52 13,50 15,50 15,44 18,44 18,45 19,45 19,50 20,50 20,51 21,51 21,52 30,52 
	30,51 31,51 31,50 32,50 32,45 33,45 33,44 36,44 36,50 38,50 38,52 42,52 42,51 "/>
<g id="white">
	<rect x="20" y="35" class="st1" width="1" height="1"/>
	<rect x="19" y="36" class="st1" width="1" height="1"/>
	<rect x="18" y="37" class="st1" width="1" height="1"/>
	<rect x="17" y="38" class="st1" width="1" height="1"/>
	<rect x="16" y="39" class="st1" width="1" height="1"/>
	<rect x="15" y="40" class="st1" width="1" height="1"/>
	<rect x="14" y="41" class="st1" width="1" height="4"/>
	<rect x="10" y="51" class="st1" width="1" height="1"/>
	<rect x="11" y="50" class="st1" width="1" height="1"/>
	<rect x="12" y="40" class="st1" width="1" height="10"/>
	<rect x="13" y="39" class="st1" width="1" height="1"/>
	<rect x="14" y="38" class="st1" width="1" height="1"/>
	<rect x="15" y="37" class="st1" width="1" height="1"/>
	<rect x="16" y="36" class="st1" width="1" height="1"/>
	<rect x="17" y="35" class="st1" width="1" height="1"/>
	<rect x="30" y="35" class="st1" width="1" height="1"/>
	<rect x="31" y="36" class="st1" width="1" height="1"/>
	<rect x="30" y="38" class="st1" width="1" height="1"/>
	<rect x="29" y="39" class="st1" width="1" height="1"/>
	<rect x="28" y="40" class="st1" width="1" height="1"/>
	<rect x="27" y="39" class="st1" width="1" height="1"/>
	<rect x="32" y="37" class="st1" width="1" height="1"/>
	<rect x="33" y="38" class="st1" width="1" height="1"/>
	<rect x="34" y="39" class="st1" width="1" height="1"/>
	<rect x="35" y="40" class="st1" width="1" height="1"/>
	<rect x="36" y="41" class="st1" width="1" height="4"/>
	<rect x="40" y="51" class="st1" width="1" height="1"/>
	<rect x="39" y="50" class="st1" width="1" height="1"/>
	<rect x="38" y="40" class="st1" width="1" height="10"/>
	<rect x="37" y="39" class="st1" width="1" height="1"/>
	<rect x="36" y="38" class="st1" width="1" height="1"/>
	<rect x="35" y="37" class="st1" width="1" height="1"/>
	<rect x="34" y="36" class="st1" width="1" height="1"/>
	<rect x="33" y="35" class="st1" width="1" height="1"/>
</g>
<g id="fades">
	<rect x="29" y="34" class="st2" width="1" height="1"/>
	<rect x="21" y="34" class="st2" width="1" height="1"/>
	<rect x="35" y="35" class="st2" width="1" height="1"/>
	<rect x="36" y="36" class="st3" width="1" height="1"/>
	<rect x="37" y="37" class="st4" width="1" height="1"/>
	<rect x="38" y="38" class="st5" width="1" height="1"/>
	<rect x="39" y="39" class="st6" width="1" height="1"/>
	<rect x="39" y="40" class="st7" width="1" height="1"/>
	<rect x="39" y="41" class="st8" width="1" height="1"/>
	<rect x="11" y="41" class="st8" width="1" height="1"/>
	<rect x="39" y="42" class="st9" width="1" height="1"/>
	<rect x="39" y="43" class="st10" width="1" height="1"/>
	<rect x="39" y="44" class="st11" width="1" height="1"/>
	<rect x="39" y="45" class="st12" width="1" height="1"/>
	<rect x="33" y="44" class="st12" width="1" height="1"/>
	<rect x="36" y="49" class="st12" width="1" height="1"/>
	<rect x="37" y="50" class="st12" width="1" height="1"/>
	<rect x="13" y="50" class="st12" width="1" height="1"/>
	<rect x="14" y="49" class="st12" width="1" height="1"/>
	<rect x="17" y="44" class="st12" width="1" height="1"/>
	<rect x="11" y="45" class="st12" width="1" height="1"/>
	<rect x="11" y="44" class="st13" width="1" height="1"/>
	<rect x="11" y="43" class="st14" width="1" height="1"/>
	<rect x="11" y="42" class="st15" width="1" height="1"/>
	<rect x="11" y="40" class="st16" width="1" height="1"/>
	<rect x="11" y="39" class="st17" width="1" height="1"/>
	<rect x="12" y="38" class="st18" width="1" height="1"/>
	<rect x="13" y="37" class="st4" width="1" height="1"/>
	<rect x="14" y="36" class="st19" width="1" height="1"/>
	<rect x="15" y="35" class="st20" width="1" height="1"/>
	<rect x="16" y="35" class="st21" width="1" height="1"/>
	<rect x="19" y="34" class="st22" width="1" height="1"/>
	<rect x="20" y="34" class="st23" width="1" height="1"/>
	<rect x="30" y="34" class="st23" width="1" height="1"/>
	<rect x="31" y="34" class="st24" width="1" height="1"/>
	<rect x="32" y="45" class="st24" width="1" height="1"/>
	<rect x="34" y="43" class="st24" width="1" height="1"/>
	<rect x="35" y="44" class="st24" width="1" height="1"/>
	<rect x="36" y="48" class="st25" width="1" height="1"/>
	<rect x="14" y="48" class="st25" width="1" height="1"/>
	<rect x="15" y="44" class="st26" width="1" height="1"/>
	<rect x="16" y="43" class="st26" width="1" height="1"/>
	<rect x="18" y="45" class="st26" width="1" height="1"/>
</g>
<g id="outline">
	<rect x="32" y="34" width="4" height="1"/>
	<rect x="36" y="35" width="1" height="1"/>
	<rect x="37" y="36" width="1" height="1"/>
	<rect x="38" y="37" width="1" height="1"/>
	<rect x="39" y="38" width="1" height="1"/>
	<rect x="40" y="39" width="1" height="11"/>
	<rect x="41" y="50" width="1" height="1"/>
	<rect x="42" y="51" width="1" height="1"/>
	<rect x="37" y="51" width="1" height="1"/>
	<rect x="36" y="50" width="1" height="1"/>
	<rect x="35" y="45" width="1" height="5"/>
	<rect x="34" y="44" width="1" height="1"/>
	<rect x="33" y="45" width="1" height="1"/>
	<rect x="32" y="46" width="1" height="4"/>
	<rect x="31" y="50" width="1" height="1"/>
	<rect x="30" y="51" width="1" height="1"/>
	<rect x="15" y="34" width="4" height="1"/>
	<rect x="14" y="35" width="1" height="1"/>
	<rect x="13" y="36" width="1" height="1"/>
	<rect x="12" y="37" width="1" height="1"/>
	<rect x="11" y="38" width="1" height="1"/>
	<rect x="10" y="39" width="1" height="11"/>
	<rect x="9" y="50" width="1" height="1"/>
	<rect x="8" y="51" width="1" height="1"/>
	<rect x="13" y="51" width="1" height="1"/>
	<rect x="14" y="50" width="1" height="1"/>
	<rect x="15" y="45" width="1" height="5"/>
	<rect x="16" y="44" width="1" height="1"/>
	<rect x="17" y="45" width="1" height="1"/>
	<rect x="18" y="46" width="1" height="4"/>
	<rect x="19" y="50" width="1" height="1"/>
	<rect x="20" y="51" width="1" height="1"/>
	<rect x="19" y="33" width="3" height="1"/>
	<rect x="22" y="34" width="7" height="1"/>
	<rect x="29" y="33" width="3" height="1"/>
</g>
</svg>
