<?xml version="1.0" encoding="utf-8"?>
<!-- Generator: Adobe Illustrator 25.0.1, SVG Export Plug-In . SVG Version: 6.00 Build 0)  -->
<svg version="1.1" id="Layer_1" xmlns="http://www.w3.org/2000/svg" xmlns:xlink="http://www.w3.org/1999/xlink" x="0px" y="0px"
	 viewBox="0 0 52 52" style="enable-background:new 0 0 52 52;" xml:space="preserve">
<style type="text/css">
	.st0{fill:#FFFFFF;}
	.st1{fill:#EAEAEA;}
	.st2{fill:#CACACA;}
	.st3{fill:#BCBBBB;}
	.st4{fill:#F700E9;}
	.st5{fill:#E900F8;}
</style>
<polygon class="st0" points="41,51 41,50 40,50 40,39 38,39 38,37 36,37 36,35 15,35 15,37 13,37 13,39 11,39 11,50 10,50 10,51 
	9,51 9,52 13,52 13,50 15,50 15,44 18,44 18,46 19,46 19,50 21,50 21,52 30,52 30,50 32,50 32,46 33,46 33,44 36,44 36,50 38,50 
	38,52 42,52 42,51 "/>
<g id="shading">
	<rect x="21" y="43" class="st1" width="1" height="9"/>
	<rect x="22" y="42" class="st1" width="1" height="1"/>
	<rect x="23" y="41" class="st1" width="5" height="1"/>
	<rect x="28" y="42" class="st1" width="1" height="1"/>
	<rect x="29" y="43" class="st1" width="1" height="9"/>
	<rect x="11" y="46" class="st2" width="1" height="1"/>
	<rect x="11" y="45" class="st3" width="1" height="1"/>
	<rect x="11" y="44" class="st2" width="1" height="1"/>
	<rect x="11" y="43" class="st3" width="1" height="1"/>
	<rect x="11" y="42" class="st2" width="1" height="1"/>
	<rect x="11" y="41" class="st2" width="1" height="1"/>
	<rect x="11" y="40" class="st3" width="1" height="1"/>
	<rect x="11" y="39" class="st2" width="1" height="1"/>
	<rect x="12" y="38" class="st2" width="1" height="1"/>
	<rect x="13" y="37" class="st2" width="1" height="1"/>
	<rect x="14" y="36" class="st2" width="1" height="1"/>
	<rect x="15" y="35" class="st2" width="1" height="1"/>
	<rect x="16" y="35" class="st3" width="1" height="1"/>
	<rect x="17" y="35" class="st2" width="1" height="1"/>
	<rect x="18" y="35" class="st2" width="1" height="1"/>
	<rect x="19" y="34" class="st2" width="1" height="1"/>
	<rect x="20" y="34" class="st2" width="1" height="1"/>
	<rect x="21" y="34" class="st3" width="1" height="1"/>
	<rect x="29" y="34" class="st3" width="1" height="1"/>
	<rect x="30" y="34" class="st2" width="1" height="1"/>
	<rect x="31" y="34" class="st2" width="1" height="1"/>
	<rect x="32" y="35" class="st2" width="1" height="1"/>
	<rect x="33" y="35" class="st3" width="1" height="1"/>
	<rect x="34" y="35" class="st2" width="1" height="1"/>
	<rect x="35" y="35" class="st2" width="1" height="1"/>
	<rect x="36" y="36" class="st3" width="1" height="1"/>
	<rect x="37" y="37" class="st2" width="1" height="1"/>
	<rect x="38" y="38" class="st2" width="1" height="1"/>
	<rect x="39" y="39" class="st3" width="1" height="1"/>
	<rect x="39" y="40" class="st2" width="1" height="1"/>
	<rect x="39" y="41" class="st2" width="1" height="1"/>
	<rect x="39" y="42" class="st3" width="1" height="1"/>
	<rect x="39" y="43" class="st2" width="1" height="1"/>
	<rect x="39" y="44" class="st2" width="1" height="1"/>
	<rect x="39" y="45" class="st2" width="1" height="1"/>
	<rect x="39" y="46" class="st3" width="1" height="1"/>
	<rect x="36" y="49" class="st3" width="1" height="1"/>
	<rect x="37" y="50" class="st2" width="1" height="1"/>
	<rect x="30" y="50" class="st2" width="1" height="1"/>
	<rect x="31" y="49" class="st3" width="1" height="1"/>
	<rect x="32" y="45" class="st2" width="1" height="1"/>
	<rect x="33" y="44" class="st3" width="1" height="1"/>
	<rect x="35" y="44" class="st2" width="1" height="1"/>
	<rect x="15" y="44" class="st2" width="1" height="1"/>
	<rect x="17" y="44" class="st3" width="1" height="1"/>
	<rect x="18" y="45" class="st2" width="1" height="1"/>
	<rect x="19" y="49" class="st3" width="1" height="1"/>
	<rect x="20" y="50" class="st2" width="1" height="1"/>
	<rect x="13" y="50" class="st2" width="1" height="1"/>
	<rect x="14" y="49" class="st3" width="1" height="1"/>
</g>
<g id="pink">
	<rect x="22" y="43" class="st4" width="1" height="9"/>
	<rect x="23" y="42" class="st4" width="5" height="1"/>
	<rect x="28" y="43" class="st4" width="1" height="9"/>
	<rect x="23" y="43" class="st5" width="5" height="9"/>
</g>
<g>
	<rect x="32" y="34" width="4" height="1"/>
	<rect x="36" y="35" width="1" height="1"/>
	<rect x="37" y="36" width="1" height="1"/>
	<rect x="38" y="37" width="1" height="1"/>
	<rect x="39" y="38" width="1" height="1"/>
	<rect x="40" y="39" width="1" height="11"/>
	<rect x="41" y="50" width="1" height="1"/>
	<rect x="42" y="51" width="1" height="1"/>
	<rect x="37" y="51" width="1" height="1"/>
	<rect x="36" y="50" width="1" height="1"/>
	<rect x="35" y="45" width="1" height="5"/>
	<rect x="34" y="44" width="1" height="1"/>
	<rect x="33" y="45" width="1" height="1"/>
	<rect x="32" y="46" width="1" height="4"/>
	<rect x="31" y="50" width="1" height="1"/>
	<rect x="30" y="51" width="1" height="1"/>
	<rect x="15" y="34" width="4" height="1"/>
	<rect x="14" y="35" width="1" height="1"/>
	<rect x="13" y="36" width="1" height="1"/>
	<rect x="12" y="37" width="1" height="1"/>
	<rect x="11" y="38" width="1" height="1"/>
	<rect x="10" y="39" width="1" height="11"/>
	<rect x="9" y="50" width="1" height="1"/>
	<rect x="8" y="51" width="1" height="1"/>
	<rect x="13" y="51" width="1" height="1"/>
	<rect x="14" y="50" width="1" height="1"/>
	<rect x="15" y="45" width="1" height="5"/>
	<rect x="16" y="44" width="1" height="1"/>
	<rect x="17" y="45" width="1" height="1"/>
	<rect x="18" y="46" width="1" height="4"/>
	<rect x="19" y="50" width="1" height="1"/>
	<rect x="20" y="51" width="1" height="1"/>
	<rect x="19" y="33" width="3" height="1"/>
	<rect x="22" y="34" width="7" height="1"/>
	<rect x="29" y="33" width="3" height="1"/>
</g>
</svg>
