<?xml version="1.0" encoding="utf-8"?>
<!-- Generator: Adobe Illustrator 25.0.1, SVG Export Plug-In . SVG Version: 6.00 Build 0)  -->
<svg version="1.1" id="Layer_1" xmlns="http://www.w3.org/2000/svg" xmlns:xlink="http://www.w3.org/1999/xlink" x="0px" y="0px"
	 viewBox="0 0 52 52" style="enable-background:new 0 0 52 52;" xml:space="preserve">
<style type="text/css">
	.st0{fill:#1DEE96;}
	.st1{fill:#1FEC98;}
	.st2{fill:#21EA99;}
	.st3{fill:#24E79B;}
	.st4{fill:#27E49D;}
	.st5{fill:#2AE1A0;}
	.st6{fill:#2DDEA2;}
	.st7{fill:#31DBA5;}
	.st8{fill:#35D7A7;}
	.st9{fill:#39D3AA;}
	.st10{fill:#3DCFAD;}
	.st11{fill:#41CBB1;}
	.st12{fill:#45C7B4;}
	.st13{fill:#4AC3B7;}
	.st14{fill:#4EBEBA;}
	.st15{fill:#53BABE;}
	.st16{fill:#58B5C1;}
	.st17{fill:#5CB1C5;}
	.st18{fill:#61ACC8;}
	.st19{fill:#66A8CC;}
	.st20{fill:#6BA3CF;}
	.st21{fill:#6F9FD3;}
	.st22{fill:#749AD6;}
	.st23{fill:#7996DA;}
	.st24{fill:#7D91DD;}
	.st25{fill:#828DE0;}
	.st26{fill:#8689E3;}
	.st27{fill:#8A85E7;}
	.st28{fill:#8E81EA;}
	.st29{fill:#927DED;}
	.st30{fill:#9679EF;}
	.st31{fill:#9A76F2;}
	.st32{fill:#AA66FE;}
	.st33{fill:#A769FC;}
	.st34{fill:#A36CF9;}
	.st35{fill:#9F70F6;}
	.st36{fill:#9B75F3;}
	.st37{fill:#967AEF;}
	.st38{fill:#907FEB;}
	.st39{fill:#8A84E7;}
	.st40{fill:#848AE2;}
	.st41{fill:#7E90DE;}
	.st42{fill:#7897D9;}
	.st43{fill:#719DD4;}
	.st44{fill:#6AA3CF;}
	.st45{fill:#64AACA;}
	.st46{fill:#5DB1C5;}
	.st47{fill:#56B7C0;}
	.st48{fill:#4FBDBB;}
	.st49{fill:#49C4B6;}
	.st50{fill:#29E39F;}
	.st51{fill:#4EBFBA;}
	.st52{fill:#8D82E9;}
	.st53{fill:#9E71F5;}
</style>
<g id="shades">
	<rect x="20" y="2" class="st0" width="10" height="2"/>
	<rect x="18" y="3" class="st1" width="14" height="2"/>
	<polygon class="st2" points="16,4 16,6 20,6 20,5 30,5 30,6 34,6 34,4 	"/>
	<polygon class="st3" points="15,5 15,7 19,7 19,6 20,6 20,5 	"/>
	<polygon class="st3" points="30,5 30,6 31,6 31,7 35,7 35,5 	"/>
	<polygon class="st4" points="14,6 14,8 18,8 18,7 19,7 19,6 	"/>
	<polygon class="st4" points="31,6 31,7 32,7 32,8 36,8 36,6 	"/>
	<polygon class="st5" points="32,7 32,8 33,8 33,9 37,9 37,7 	"/>
	<polygon class="st5" points="13,7 13,9 17,9 17,8 18,8 18,7 	"/>
	<polygon class="st6" points="12,8 12,10 16,10 16,9 17,9 17,8 	"/>
	<polygon class="st6" points="33,8 33,9 34,9 34,10 38,10 38,8 	"/>
	<polygon class="st7" points="34,9 34,10 35,10 35,11 39,11 39,9 	"/>
	<polygon class="st7" points="11,9 11,11 15,11 15,10 16,10 16,9 	"/>
	<rect x="11" y="10" class="st8" width="4" height="2"/>
	<polygon class="st8" points="35,10 35,11 36,11 36,12 39,12 39,10 	"/>
	<rect x="36" y="11" class="st9" width="3" height="2"/>
	<polygon class="st9" points="11,11 11,13 14,13 14,12 15,12 15,11 	"/>
	<polygon class="st10" points="10,12 10,14 13,14 13,13 14,13 14,12 	"/>
	<polygon class="st10" points="36,12 36,13 37,13 37,14 40,14 40,12 	"/>
	<rect x="37" y="13" class="st11" width="3" height="2"/>
	<rect x="10" y="13" class="st11" width="3" height="2"/>
	<rect x="10" y="14" class="st12" width="3" height="2"/>
	<rect x="38" y="14" class="st12" width="2" height="2"/>
	<rect x="10" y="15" class="st13" width="3" height="2"/>
	<rect x="10" y="16" class="st14" width="3" height="2"/>
	<rect x="10" y="17" class="st15" width="3" height="2"/>
	<rect x="10" y="18" class="st16" width="3" height="2"/>
	<rect x="10" y="19" class="st17" width="3" height="2"/>
	<rect x="38" y="15" class="st13" width="2" height="2"/>
	<rect x="38" y="16" class="st14" width="2" height="2"/>
	<rect x="38" y="17" class="st15" width="2" height="2"/>
	<rect x="38" y="18" class="st16" width="2" height="2"/>
	<rect x="38" y="19" class="st17" width="2" height="2"/>
	<rect x="38" y="20" class="st18" width="2" height="2"/>
	<rect x="11" y="20" class="st18" width="2" height="2"/>
	<rect x="11" y="21" class="st19" width="3" height="1"/>
	<rect x="11" y="21" class="st19" width="3" height="2"/>
	<rect x="37" y="21" class="st19" width="3" height="2"/>
	<rect x="11" y="22" class="st20" width="4" height="2"/>
	<rect x="11" y="23" class="st21" width="4" height="2"/>
	<rect x="11" y="24" class="st22" width="4" height="2"/>
	<rect x="36" y="22" class="st20" width="4" height="2"/>
	<rect x="36" y="23" class="st21" width="4" height="2"/>
	<rect x="36" y="24" class="st22" width="3" height="2"/>
	<rect x="12" y="25" class="st23" width="3" height="2"/>
	<rect x="12" y="26" class="st24" width="4" height="2"/>
	<rect x="12" y="27" class="st25" width="4" height="2"/>
	<rect x="36" y="25" class="st23" width="3" height="2"/>
	<rect x="35" y="26" class="st24" width="4" height="2"/>
	<rect x="35" y="27" class="st25" width="3" height="2"/>
	<rect x="13" y="28" class="st26" width="4" height="2"/>
	<rect x="34" y="28" class="st26" width="4" height="2"/>
	<rect x="14" y="29" class="st27" width="5" height="2"/>
	<rect x="32" y="29" class="st27" width="5" height="2"/>
	<rect x="14" y="30" class="st28" width="5" height="2"/>
	<rect x="32" y="30" class="st28" width="5" height="2"/>
	<rect x="14" y="31" class="st29" width="5" height="2"/>
	<rect x="32" y="31" class="st29" width="5" height="2"/>
	<polygon class="st30" points="15,34 19,34 19,33 20,33 20,32 15,32 	"/>
	<rect x="31" y="32" class="st30" width="6" height="2"/>
	<rect x="15" y="33" class="st31" width="4" height="1"/>
	<rect x="32" y="33" class="st31" width="4" height="1"/>
	<rect x="19" y="34" class="st32" width="3" height="2"/>
	<rect x="29" y="34" class="st32" width="3" height="2"/>
	<rect x="15" y="35" class="st33" width="21" height="2"/>
	<rect x="14" y="36" class="st34" width="23" height="2"/>
	<rect x="13" y="37" class="st35" width="25" height="2"/>
	<rect x="12" y="38" class="st36" width="27" height="2"/>
	<rect x="11" y="39" class="st37" width="29" height="2"/>
	<rect x="11" y="40" class="st38" width="29" height="2"/>
	<rect x="11" y="41" class="st39" width="29" height="2"/>
	<rect x="11" y="42" class="st40" width="29" height="2"/>
	<polygon class="st41" points="11,43 11,45 16,45 16,44 17,44 17,45 34,45 34,44 35,44 35,45 40,45 40,43 	"/>
	<polygon class="st42" points="11,44 11,46 15,46 15,45 16,45 16,44 	"/>
	<rect x="11" y="45" class="st43" width="4" height="2"/>
	<rect x="11" y="46" class="st44" width="4" height="1"/>
	<rect x="11" y="47" class="st45" width="4" height="2"/>
	<rect x="11" y="48" class="st46" width="4" height="2"/>
	<polygon class="st47" points="11,49 11,51 14,51 14,50 15,50 15,49 	"/>
	<polygon class="st48" points="10,50 14,50 14,51 13,51 13,52 10,52 	"/>
	<rect x="9" y="51" class="st49" width="4" height="1"/>
	<polygon class="st42" points="35,44 35,45 36,45 36,46 40,46 40,44 	"/>
	<rect x="36" y="45" class="st43" width="4" height="2"/>
	<rect x="36" y="46" class="st44" width="4" height="1"/>
	<rect x="36" y="47" class="st45" width="4" height="2"/>
	<rect x="36" y="48" class="st46" width="4" height="2"/>
	<polygon class="st47" points="36,49 36,50 37,50 37,51 40,51 40,49 	"/>
	<polygon class="st48" points="37,50 37,51 38,51 38,52 41,52 41,50 	"/>
	<rect x="38" y="51" class="st49" width="4" height="1"/>
	<polygon class="st42" points="17,44 17,45 18,45 18,46 33,46 33,45 34,45 34,44 	"/>
	<polygon class="st43" points="18,45 18,46 19,46 19,47 32,47 32,46 33,46 33,45 	"/>
	<rect x="19" y="46" class="st44" width="13" height="1"/>
	<rect x="19" y="47" class="st45" width="13" height="2"/>
	<rect x="19" y="48" class="st46" width="13" height="2"/>
	<polygon class="st47" points="19,49 19,50 20,50 20,51 31,51 31,50 32,50 32,49 	"/>
	<polygon class="st48" points="20,50 20,51 21,51 21,52 30,52 30,51 31,51 31,50 	"/>
	<rect x="21" y="51" class="st49" width="9" height="1"/>
</g>
<g id="logo-shades">
	<rect x="20" y="39" class="st0" width="11" height="2"/>
	<rect x="20" y="40" class="st50" width="11" height="1"/>
	<rect x="20" y="42" class="st51" width="11" height="2"/>
	<rect x="20" y="43" class="st45" width="11" height="1"/>
	<rect x="20" y="45" class="st52" width="11" height="2"/>
	<rect x="20" y="46" class="st53" width="11" height="1"/>
</g>
<g id="outlines">
	<rect x="20" y="38" width="11" height="1"/>
	<rect x="20" y="41" width="11" height="1"/>
	<rect x="20" y="47" width="11" height="1"/>
	<rect x="31" y="39" width="1" height="2"/>
	<rect x="31" y="42" width="1" height="2"/>
	<rect x="19" y="42" width="1" height="2"/>
	<rect x="19" y="39" width="1" height="2"/>
	<rect x="40" y="12" width="1" height="12"/>
	<rect x="9" y="12" width="1" height="8"/>
	<rect x="10" y="20" width="1" height="5"/>
	<rect x="11" y="25" width="1" height="3"/>
	<rect x="12" y="28" width="1" height="1"/>
	<rect x="13" y="29" width="1" height="3"/>
	<polygon points="37,33 36,33 36,34 32,34 32,33 31,33 31,32 32,32 32,29 34,29 34,28 35,28 35,26 36,26 36,22 35,22 35,25 34,25 
		34,27 33,27 33,28 31,28 31,31 30,31 30,32 29,32 29,33 28,33 28,34 23,34 23,33 22,33 22,32 21,32 21,31 20,31 20,28 18,28 18,27 
		17,27 17,26 16,26 16,28 17,28 17,29 19,29 19,32 20,32 20,33 19,33 19,34 15,34 15,32 14,32 14,36 15,36 15,35 20,35 20,34 22,34 
		22,35 29,35 29,34 31,34 31,35 36,35 36,36 37,36 	"/>
	<rect x="37" y="29" width="1" height="4"/>
	<rect x="38" y="27" width="1" height="2"/>
	<rect x="39" y="24" width="1" height="3"/>
	<rect x="39" y="9" width="1" height="3"/>
	<rect x="38" y="8" width="1" height="1"/>
	<rect x="37" y="7" width="1" height="1"/>
	<rect x="36" y="6" width="1" height="1"/>
	<rect x="35" y="5" width="1" height="1"/>
	<rect x="34" y="4" width="1" height="1"/>
	<rect x="32" y="3" width="2" height="1"/>
	<rect x="30" y="2" width="2" height="1"/>
	<rect x="20" y="1" width="10" height="1"/>
	<rect x="18" y="2" width="2" height="1"/>
	<rect x="16" y="3" width="2" height="1"/>
	<rect x="15" y="4" width="1" height="1"/>
	<rect x="14" y="5" width="1" height="1"/>
	<rect x="13" y="6" width="1" height="1"/>
	<rect x="12" y="7" width="1" height="1"/>
	<rect x="11" y="8" width="1" height="1"/>
	<rect x="10" y="9" width="1" height="3"/>
	<rect x="37" y="36" width="1" height="1"/>
	<rect x="38" y="37" width="1" height="1"/>
	<rect x="39" y="38" width="1" height="1"/>
	<rect x="40" y="39" width="1" height="11"/>
	<rect x="41" y="50" width="1" height="1"/>
	<rect x="42" y="51" width="1" height="1"/>
	<rect x="8" y="51" width="1" height="1"/>
	<rect x="9" y="50" width="1" height="1"/>
	<rect x="11" y="38" width="1" height="1"/>
	<rect x="12" y="37" width="1" height="1"/>
	<rect x="10" y="39" width="1" height="11"/>
	<rect x="13" y="36" width="1" height="1"/>
	<rect x="15" y="22" width="1" height="4"/>
	<rect x="14" y="21" width="1" height="1"/>
	<rect x="13" y="13" width="1" height="8"/>
	<rect x="14" y="12" width="1" height="1"/>
	<rect x="15" y="10" width="1" height="2"/>
	<rect x="16" y="9" width="1" height="1"/>
	<rect x="17" y="8" width="1" height="1"/>
	<rect x="18" y="7" width="1" height="1"/>
	<rect x="19" y="6" width="1" height="1"/>
	<rect x="20" y="5" width="10" height="1"/>
	<rect x="30" y="6" width="1" height="1"/>
	<rect x="31" y="7" width="1" height="1"/>
	<rect x="32" y="8" width="1" height="1"/>
	<rect x="33" y="9" width="1" height="1"/>
	<rect x="34" y="10" width="1" height="1"/>
	<rect x="35" y="11" width="1" height="2"/>
	<rect x="36" y="13" width="1" height="1"/>
	<rect x="37" y="14" width="1" height="7"/>
	<rect x="36" y="21" width="1" height="1"/>
	<rect x="13" y="51" width="1" height="1"/>
	<rect x="14" y="50" width="1" height="1"/>
	<rect x="15" y="45" width="1" height="5"/>
	<rect x="16" y="44" width="1" height="1"/>
	<rect x="17" y="45" width="1" height="1"/>
	<rect x="18" y="46" width="1" height="4"/>
	<rect x="19" y="50" width="1" height="1"/>
	<rect x="20" y="51" width="1" height="1"/>
	<rect x="30" y="51" width="1" height="1"/>
	<rect x="31" y="50" width="1" height="1"/>
	<rect x="32" y="46" width="1" height="4"/>
	<rect x="33" y="45" width="1" height="1"/>
	<rect x="34" y="44" width="1" height="1"/>
	<rect x="35" y="45" width="1" height="5"/>
	<rect x="36" y="50" width="1" height="1"/>
	<rect x="37" y="51" width="1" height="1"/>
	<rect x="20" y="44" width="11" height="1"/>
	<rect x="31" y="45" width="1" height="2"/>
	<rect x="19" y="45" width="1" height="2"/>
</g>
</svg>
