<?xml version="1.0" encoding="utf-8"?>
<!-- Generator: Adobe Illustrator 25.0.1, SVG Export Plug-In . SVG Version: 6.00 Build 0)  -->
<svg version="1.1" id="Layer_1" xmlns="http://www.w3.org/2000/svg" xmlns:xlink="http://www.w3.org/1999/xlink" x="0px" y="0px"
	 viewBox="0 0 52 52" style="enable-background:new 0 0 52 52;" xml:space="preserve">
<style type="text/css">
	.st0{fill:#FFFFFF;}
	.st1{fill:#FFA94C;}
	.st2{fill:#288B00;}
	.st3{fill:#F90101;}
</style>
<polygon id="white" class="st0" points="39,39 39,38 38,38 38,37 37,37 37,36 36,36 36,35 32,35 32,36 31,36 31,37 30,37 30,38 
	29,38 29,39 22,39 22,38 21,38 21,37 20,37 20,36 19,36 19,35 15,35 15,36 14,36 14,37 13,37 13,38 12,38 12,39 11,39 11,40 12,40 
	12,41 13,41 13,42 14,42 14,43 15,43 15,44 17,44 17,45 18,45 18,46 19,46 19,50 20,50 20,51 21,51 21,52 30,52 30,51 31,51 31,50 
	32,50 32,46 33,46 33,45 34,45 34,44 36,44 36,43 37,43 37,42 38,42 38,41 39,41 39,40 40,40 40,39 "/>
<g id="peach">
	<rect x="31" y="34" class="st1" width="1" height="2"/>
	<rect x="30" y="36" class="st1" width="1" height="1"/>
	<rect x="29" y="37" class="st1" width="1" height="1"/>
	<rect x="28" y="38" class="st1" width="1" height="1"/>
	<rect x="27" y="39" class="st1" width="1" height="1"/>
	<rect x="23" y="39" class="st1" width="1" height="1"/>
	<rect x="22" y="38" class="st1" width="1" height="1"/>
	<rect x="21" y="37" class="st1" width="1" height="1"/>
	<rect x="20" y="36" class="st1" width="1" height="1"/>
	<rect x="19" y="34" class="st1" width="1" height="2"/>
	<rect x="11" y="40" class="st1" width="1" height="1"/>
	<rect x="12" y="41" class="st1" width="1" height="1"/>
	<rect x="13" y="42" class="st1" width="1" height="1"/>
	<rect x="14" y="43" class="st1" width="1" height="1"/>
	<rect x="15" y="44" class="st1" width="1" height="1"/>
	<rect x="26" y="44" class="st1" width="6" height="1"/>
	<rect x="32" y="42" class="st1" width="1" height="2"/>
	<rect x="26" y="41" class="st1" width="6" height="1"/>
	<rect x="25" y="42" class="st1" width="1" height="2"/>
	<rect x="35" y="44" class="st1" width="1" height="1"/>
	<rect x="36" y="43" class="st1" width="1" height="1"/>
	<rect x="37" y="42" class="st1" width="1" height="1"/>
	<rect x="38" y="41" class="st1" width="1" height="1"/>
	<rect x="39" y="40" class="st1" width="1" height="1"/>
</g>
<g id="green">
	<rect x="30" y="42" class="st2" width="2" height="2"/>
	<rect x="26" y="42" class="st2" width="2" height="2"/>
	<rect x="39" y="41" class="st2" width="1" height="1"/>
	<rect x="38" y="42" class="st2" width="1" height="1"/>
	<rect x="37" y="43" class="st2" width="1" height="1"/>
	<rect x="36" y="44" class="st2" width="1" height="1"/>
	<rect x="36" y="46" class="st2" width="1" height="1"/>
	<rect x="37" y="45" class="st2" width="1" height="1"/>
	<rect x="38" y="44" class="st2" width="1" height="1"/>
	<rect x="39" y="43" class="st2" width="1" height="1"/>
	<rect x="14" y="44" class="st2" width="1" height="1"/>
	<rect x="14" y="46" class="st2" width="1" height="1"/>
	<rect x="13" y="45" class="st2" width="1" height="1"/>
	<rect x="13" y="43" class="st2" width="1" height="1"/>
	<rect x="12" y="42" class="st2" width="1" height="1"/>
	<rect x="12" y="44" class="st2" width="1" height="1"/>
	<rect x="11" y="43" class="st2" width="1" height="1"/>
	<rect x="11" y="41" class="st2" width="1" height="1"/>
</g>
<g id="red">
	<rect x="28" y="42" class="st3" width="2" height="2"/>
	<rect x="36" y="45" class="st3" width="1" height="1"/>
	<rect x="37" y="44" class="st3" width="1" height="1"/>
	<rect x="38" y="43" class="st3" width="1" height="1"/>
	<rect x="39" y="42" class="st3" width="1" height="1"/>
	<rect x="11" y="42" class="st3" width="1" height="1"/>
	<rect x="12" y="43" class="st3" width="1" height="1"/>
	<rect x="13" y="44" class="st3" width="1" height="1"/>
	<rect x="14" y="45" class="st3" width="1" height="1"/>
</g>
<g id="outlines">
	<rect x="32" y="34" width="4" height="1"/>
	<rect x="36" y="35" width="1" height="1"/>
	<rect x="37" y="36" width="1" height="1"/>
	<rect x="38" y="37" width="1" height="1"/>
	<rect x="39" y="38" width="1" height="1"/>
	<rect x="40" y="39" width="1" height="5"/>
	<rect x="35" y="45" width="1" height="2"/>
	<rect x="34" y="44" width="1" height="1"/>
	<rect x="33" y="45" width="1" height="1"/>
	<rect x="32" y="46" width="1" height="4"/>
	<rect x="31" y="50" width="1" height="1"/>
	<rect x="30" y="51" width="1" height="1"/>
	<rect x="15" y="34" width="4" height="1"/>
	<rect x="14" y="35" width="1" height="1"/>
	<rect x="13" y="36" width="1" height="1"/>
	<rect x="12" y="37" width="1" height="1"/>
	<rect x="11" y="38" width="1" height="1"/>
	<rect x="10" y="39" width="1" height="5"/>
	<rect x="15" y="45" width="1" height="2"/>
	<rect x="16" y="44" width="1" height="1"/>
	<rect x="17" y="45" width="1" height="1"/>
	<rect x="18" y="46" width="1" height="4"/>
	<rect x="19" y="50" width="1" height="1"/>
	<rect x="20" y="51" width="1" height="1"/>
	<rect x="19" y="33" width="1" height="1"/>
	<rect x="31" y="33" width="1" height="1"/>
	<rect x="36" y="47" width="1" height="1"/>
	<rect x="37" y="46" width="1" height="1"/>
	<rect x="38" y="45" width="1" height="1"/>
	<rect x="39" y="44" width="1" height="1"/>
	<rect x="30" y="34" width="1" height="2"/>
	<rect x="29" y="36" width="1" height="1"/>
	<rect x="28" y="37" width="1" height="1"/>
	<rect x="27" y="38" width="1" height="1"/>
	<rect x="24" y="39" width="3" height="1"/>
	<rect x="23" y="38" width="1" height="1"/>
	<rect x="22" y="37" width="1" height="1"/>
	<rect x="21" y="36" width="1" height="1"/>
	<rect x="20" y="34" width="1" height="2"/>
	<rect x="11" y="44" width="1" height="1"/>
	<rect x="12" y="45" width="1" height="1"/>
	<rect x="13" y="46" width="1" height="1"/>
	<rect x="14" y="47" width="1" height="1"/>
</g>
</svg>
