<?xml version="1.0" encoding="utf-8"?>
<!-- Generator: Adobe Illustrator 25.0.1, SVG Export Plug-In . SVG Version: 6.00 Build 0)  -->
<svg version="1.1" id="Layer_1" xmlns="http://www.w3.org/2000/svg" xmlns:xlink="http://www.w3.org/1999/xlink" x="0px" y="0px"
	 viewBox="0 0 52 52" style="enable-background:new 0 0 52 52;" xml:space="preserve">
<style type="text/css">
	.st0{fill:#FFFFFF;}
</style>
<polygon points="42,51 42,50 41,50 41,39 40,39 40,38 39,38 39,37 38,37 38,36 37,36 37,35 36,35 36,34 32,34 32,33 31,33 31,34 
	30,34 30,33 29,33 29,34 22,34 22,33 21,33 21,34 20,34 20,33 19,33 19,34 15,34 15,35 14,35 14,36 13,36 13,37 12,37 12,38 11,38 
	11,39 10,39 10,50 9,50 9,51 8,51 8,52 14,52 14,51 15,51 15,50 16,50 16,45 17,45 17,46 18,46 18,50 19,50 19,51 20,51 20,52 
	31,52 31,51 32,51 32,50 33,50 33,46 34,46 34,45 35,45 35,50 36,50 36,51 37,51 37,52 43,52 43,51 "/>
<polygon id="white" class="st0" points="30,33 30,34 28,34 28,35 23,35 23,34 21,34 21,33 20,33 20,35 21,35 21,36 23,36 23,37 
	28,37 28,36 30,36 30,35 31,35 31,33 "/>
</svg>
