<?xml version="1.0" encoding="utf-8"?>
<!-- Generator: Adobe Illustrator 25.0.1, SVG Export Plug-In . SVG Version: 6.00 Build 0)  -->
<svg version="1.1" id="Layer_1" xmlns="http://www.w3.org/2000/svg" xmlns:xlink="http://www.w3.org/1999/xlink" x="0px" y="0px"
	 viewBox="0 0 52 52" style="enable-background:new 0 0 52 52;" xml:space="preserve">
<style type="text/css">
	.st0{fill:#F70000;}
	.st1{fill:#F7E300;}
	.st2{fill:#C4C4C4;}
	.st3{fill:#FFFFFF;}
</style>
<polygon class="st0" points="41,51 41,50 40,50 40,39 39,39 39,38 38,38 38,37 37,37 37,36 36,36 36,35 30,35 30,36 28,36 28,37 
	23,37 23,36 21,36 21,35 15,35 15,36 14,36 14,37 13,37 13,38 12,38 12,39 11,39 11,50 10,50 10,51 14,51 14,50 15,50 15,45 16,45 
	16,44 17,44 17,45 18,45 18,46 19,46 19,50 20,50 20,51 21,51 21,52 30,52 30,51 31,51 31,50 32,50 32,46 33,46 33,45 34,45 34,44 
	35,44 35,45 36,45 36,50 37,50 37,51 "/>
<rect id="yellow" x="23" y="50" class="st1" width="5" height="2"/>
<polygon id="grey" class="st2" points="18,35 18,36 19,36 19,37 20,37 20,38 21,38 21,39 22,39 22,40 23,40 23,50 28,50 28,40 
	29,40 29,39 30,39 30,38 31,38 31,37 32,37 32,36 33,36 33,35 "/>
<g id="white">
	<rect x="9" y="51" class="st3" width="4" height="1"/>
	<rect x="38" y="51" class="st3" width="4" height="1"/>
	<polygon class="st3" points="29,36 28,36 28,37 27,37 27,38 24,38 24,37 23,37 23,36 22,36 22,34 19,34 19,36 20,36 20,37 21,37 
		21,38 22,38 22,39 23,39 23,40 24,40 24,50 27,50 27,40 28,40 28,39 29,39 29,38 30,38 30,37 31,37 31,36 32,36 32,34 29,34 	"/>
</g>
<g id="black">
	<rect x="25" y="51" width="1" height="1"/>
	<rect x="25" y="47" width="1" height="1"/>
	<rect x="25" y="45" width="1" height="1"/>
	<rect x="25" y="43" width="1" height="1"/>
	<rect x="25" y="41" width="1" height="1"/>
	<polygon points="24,35 24,36 25,36 25,37 26,37 26,36 27,36 27,35 	"/>
</g>
<g>
	<rect x="32" y="34" width="4" height="1"/>
	<rect x="36" y="35" width="1" height="1"/>
	<rect x="37" y="36" width="1" height="1"/>
	<rect x="38" y="37" width="1" height="1"/>
	<rect x="39" y="38" width="1" height="1"/>
	<rect x="40" y="39" width="1" height="11"/>
	<rect x="41" y="50" width="1" height="1"/>
	<rect x="42" y="51" width="1" height="1"/>
	<rect x="37" y="51" width="1" height="1"/>
	<rect x="36" y="50" width="1" height="1"/>
	<rect x="35" y="45" width="1" height="5"/>
	<rect x="34" y="44" width="1" height="1"/>
	<rect x="33" y="45" width="1" height="1"/>
	<rect x="32" y="46" width="1" height="4"/>
	<rect x="31" y="50" width="1" height="1"/>
	<rect x="30" y="51" width="1" height="1"/>
	<rect x="15" y="34" width="4" height="1"/>
	<rect x="14" y="35" width="1" height="1"/>
	<rect x="13" y="36" width="1" height="1"/>
	<rect x="12" y="37" width="1" height="1"/>
	<rect x="11" y="38" width="1" height="1"/>
	<rect x="10" y="39" width="1" height="11"/>
	<rect x="9" y="50" width="1" height="1"/>
	<rect x="8" y="51" width="1" height="1"/>
	<rect x="13" y="51" width="1" height="1"/>
	<rect x="14" y="50" width="1" height="1"/>
	<rect x="15" y="45" width="1" height="5"/>
	<rect x="16" y="44" width="1" height="1"/>
	<rect x="17" y="45" width="1" height="1"/>
	<rect x="18" y="46" width="1" height="4"/>
	<rect x="19" y="50" width="1" height="1"/>
	<rect x="20" y="51" width="1" height="1"/>
	<rect x="19" y="33" width="3" height="1"/>
	<rect x="22" y="34" width="7" height="1"/>
	<rect x="29" y="33" width="3" height="1"/>
</g>
</svg>
