<?xml version="1.0" encoding="utf-8"?>
<!-- Generator: Adobe Illustrator 25.0.1, SVG Export Plug-In . SVG Version: 6.00 Build 0)  -->
<svg version="1.1" id="Layer_1" xmlns="http://www.w3.org/2000/svg" xmlns:xlink="http://www.w3.org/1999/xlink" x="0px" y="0px"
	 viewBox="0 0 52 52" style="enable-background:new 0 0 52 52;" xml:space="preserve">
<style type="text/css">
	.st0{fill:#FFFFFF;}
	.st1{fill:#061414;}
	.st2{fill:#FC0000;}
	.st3{fill:#5D5D5D;}
</style>
<polygon id="black" points="42,51 42,50 41,50 41,39 40,39 40,38 39,38 39,37 38,37 38,36 37,36 37,35 36,35 36,34 32,34 32,33 
	29,33 29,34 22,34 22,33 19,33 19,34 15,34 15,35 14,35 14,36 13,36 13,37 12,37 12,38 11,38 11,39 10,39 10,50 9,50 9,51 8,51 
	8,52 14,52 14,51 15,51 15,50 16,50 16,45 17,45 17,46 18,46 18,50 19,50 19,51 20,51 20,52 31,52 31,51 32,51 32,50 33,50 33,46 
	34,46 34,45 35,45 35,50 36,50 36,51 37,51 37,52 43,52 43,51 "/>
<polygon id="white" class="st0" points="31,34 31,33 29,33 29,34 22,34 22,33 20,33 20,34 19,34 19,36 20,36 20,38 21,38 21,40 
	22,40 22,41 23,41 23,52 28,52 28,41 29,41 29,40 30,40 30,37 31,37 31,35 32,35 32,34 "/>
<g id="buttons">
	<rect x="25" y="50" class="st1" width="1" height="1"/>
	<rect x="25" y="47" class="st1" width="1" height="1"/>
</g>
<polygon id="red" class="st2" points="23,35 23,36 24,36 24,37 25,37 25,38 24,38 24,44 25,44 25,45 26,45 26,44 27,44 27,38 26,38 
	26,37 27,37 27,36 28,36 28,35 "/>
<g id="grey">
	<rect x="18" y="35" class="st3" width="1" height="1"/>
	<rect x="19" y="36" class="st3" width="1" height="2"/>
	<rect x="20" y="38" class="st3" width="1" height="2"/>
	<rect x="21" y="40" class="st3" width="1" height="1"/>
	<rect x="22" y="41" class="st3" width="1" height="11"/>
	<rect x="28" y="41" class="st3" width="1" height="11"/>
	<rect x="29" y="40" class="st3" width="1" height="1"/>
	<rect x="30" y="37" class="st3" width="1" height="3"/>
	<rect x="31" y="35" class="st3" width="1" height="2"/>
	<rect x="32" y="34" class="st3" width="1" height="1"/>
</g>
</svg>
