<?xml version="1.0" encoding="utf-8"?>
<!-- Generator: Adobe Illustrator 25.0.1, SVG Export Plug-In . SVG Version: 6.00 Build 0)  -->
<svg version="1.1" id="Layer_1" xmlns="http://www.w3.org/2000/svg" xmlns:xlink="http://www.w3.org/1999/xlink" x="0px" y="0px"
	 viewBox="0 0 52 52" style="enable-background:new 0 0 52 52;" xml:space="preserve">
<style type="text/css">
	.st0{fill:#FFFFFF;}
	.st1{fill:#061414;}
	.st2{fill:#5D5D5D;}
	.st3{fill:#FC0000;}
</style>
<polygon points="42,51 42,50 41,50 41,39 40,39 40,38 39,38 39,37 38,37 38,36 37,36 37,35 36,35 36,34 32,34 32,33 29,33 29,34 
	22,34 22,33 19,33 19,34 15,34 15,35 14,35 14,36 13,36 13,37 12,37 12,38 11,38 11,39 10,39 10,50 9,50 9,51 8,51 8,52 14,52 
	14,51 15,51 15,50 16,50 16,45 17,45 17,46 18,46 18,50 19,50 19,51 20,51 20,52 31,52 31,51 32,51 32,50 33,50 33,46 34,46 34,45 
	35,45 35,50 36,50 36,51 37,51 37,52 43,52 43,51 "/>
<polygon id="white" class="st0" points="31,34 31,33 29,33 29,34 22,34 22,33 20,33 20,35 21,35 21,37 22,37 22,40 23,40 23,41 
	24,41 24,52 28,52 28,41 29,41 29,40 30,40 30,37 31,37 31,35 32,35 32,34 "/>
<g id="buttons">
	<rect x="25" y="50" class="st1" width="2" height="1"/>
	<rect x="25" y="47" class="st1" width="2" height="1"/>
	<rect x="25" y="44" class="st1" width="2" height="1"/>
	<rect x="25" y="41" class="st1" width="2" height="1"/>
</g>
<g id="grey">
	<rect x="19" y="33" class="st2" width="1" height="2"/>
	<rect x="20" y="35" class="st2" width="1" height="2"/>
	<rect x="32" y="34" class="st2" width="1" height="1"/>
	<rect x="21" y="37" class="st2" width="1" height="3"/>
	<rect x="22" y="40" class="st2" width="1" height="1"/>
	<rect x="23" y="41" class="st2" width="1" height="11"/>
	<rect x="28" y="41" class="st2" width="1" height="11"/>
	<rect x="29" y="40" class="st2" width="1" height="1"/>
	<rect x="30" y="37" class="st2" width="1" height="3"/>
	<rect x="31" y="35" class="st2" width="1" height="2"/>
	<rect x="32" y="34" class="st2" width="1" height="1"/>
</g>
<polygon id="tie" class="st3" points="31,38 30,38 30,37 29,37 29,36 28,36 28,37 27,37 27,38 25,38 25,37 24,37 24,36 23,36 23,37 
	22,37 22,38 21,38 21,39 22,39 22,40 23,40 23,41 24,41 24,40 25,40 25,39 27,39 27,40 28,40 28,41 29,41 29,40 30,40 30,39 31,39 
	"/>
</svg>
