<?xml version="1.0" encoding="utf-8"?>
<!-- Generator: Adobe Illustrator 25.0.1, SVG Export Plug-In . SVG Version: 6.00 Build 0)  -->
<svg version="1.1" id="Layer_1" xmlns="http://www.w3.org/2000/svg" xmlns:xlink="http://www.w3.org/1999/xlink" x="0px" y="0px"
	 viewBox="0 0 52 52" style="enable-background:new 0 0 52 52;" xml:space="preserve">
<style type="text/css">
	.st0{fill:#FFFFFF;}
</style>
<polygon id="white" class="st0" points="32,35 32,34 30,34 30,36 29,36 29,38 27,38 27,39 24,39 24,38 22,38 22,36 21,36 21,34 
	19,34 19,35 15,35 15,45 16,45 16,44 17,44 17,45 18,45 18,46 19,46 19,50 20,50 20,51 21,51 21,52 30,52 30,51 31,51 31,50 32,50 
	32,46 33,46 33,45 34,45 34,44 35,44 35,45 36,45 36,35 "/>
<g id="outlines">
	<rect x="32" y="34" width="4" height="1"/>
	<polygon points="36,35 36,45 35,45 35,46 37,46 37,35 	"/>
	<rect x="34" y="44" width="1" height="1"/>
	<rect x="33" y="45" width="1" height="1"/>
	<rect x="32" y="46" width="1" height="4"/>
	<rect x="31" y="50" width="1" height="1"/>
	<rect x="30" y="51" width="1" height="1"/>
	<rect x="15" y="34" width="4" height="1"/>
	<polygon points="14,46 16,46 16,45 15,45 15,35 14,35 	"/>
	<rect x="16" y="44" width="1" height="1"/>
	<rect x="17" y="45" width="1" height="1"/>
	<rect x="18" y="46" width="1" height="4"/>
	<rect x="19" y="50" width="1" height="1"/>
	<rect x="20" y="51" width="1" height="1"/>
	<rect x="19" y="33" width="1" height="1"/>
	<rect x="31" y="33" width="1" height="1"/>
	<rect x="30" y="34" width="1" height="2"/>
	<rect x="29" y="36" width="1" height="1"/>
	<rect x="28" y="37" width="1" height="1"/>
	<rect x="27" y="38" width="1" height="1"/>
	<rect x="23" y="38" width="1" height="1"/>
	<rect x="22" y="37" width="1" height="1"/>
	<rect x="21" y="36" width="1" height="1"/>
	<rect x="20" y="34" width="1" height="2"/>
	<rect x="24" y="39" width="3" height="1"/>
</g>
</svg>
