<?xml version="1.0" encoding="utf-8"?>
<!-- Generator: Adobe Illustrator 25.0.1, SVG Export Plug-In . SVG Version: 6.00 Build 0)  -->
<!DOCTYPE svg PUBLIC "-//W3C//DTD SVG 1.1//EN" "http://www.w3.org/Graphics/SVG/1.1/DTD/svg11.dtd" [
	<!ENTITY st0 "fill:#FFFFFF;">
	<!ENTITY st1 "fill:#D7D7D7;">
]>
<svg version="1.1" id="Layer_1" xmlns="http://www.w3.org/2000/svg" xmlns:xlink="http://www.w3.org/1999/xlink" x="0px" y="0px"
	 viewBox="0 0 52 52" style="enable-background:new 0 0 52 52;" xml:space="preserve">
<g id="hoodie">
	<polygon style="&st0;" points="20,33 20,32 19,32 19,29 17,29 17,28 16,28 16,26 15,26 15,22 14,22 14,21 13,21 13,13 14,13 14,12 
		15,12 15,10 16,10 16,9 17,9 17,8 18,8 18,7 19,7 19,6 20,6 20,5 30,5 30,6 31,6 31,7 32,7 32,8 33,8 33,9 34,9 34,10 35,10 35,11 
		36,11 36,13 37,13 37,14 38,14 38,21 37,21 37,22 36,22 36,26 35,26 35,28 34,28 34,29 32,29 32,32 31,32 31,33 32,33 32,34 36,34 
		36,33 37,33 37,29 38,29 38,27 39,27 39,24 40,24 40,12 39,12 39,9 38,9 38,8 37,8 37,7 36,7 36,6 35,6 35,5 34,5 34,4 32,4 32,3 
		30,3 30,2 20,2 20,3 18,3 18,4 16,4 16,5 15,5 15,6 14,6 14,7 13,7 13,8 12,8 12,9 11,9 11,12 10,12 10,20 11,20 11,25 12,25 
		12,28 13,28 13,29 14,29 14,32 15,32 15,34 19,34 19,33 	"/>
	<polygon style="&st0;" points="41,51 41,50 40,50 40,39 39,39 39,38 38,38 38,37 37,37 37,36 36,36 36,35 32,35 32,34 29,34 29,35 
		22,35 22,34 19,34 19,35 15,35 15,36 14,36 14,37 13,37 13,38 12,38 12,39 11,39 11,50 10,50 10,51 9,51 9,52 13,52 13,51 14,51 
		14,50 15,50 15,45 16,45 16,44 17,44 17,45 18,45 18,46 19,46 19,50 20,50 20,51 21,51 21,52 30,52 30,51 31,51 31,50 32,50 32,46 
		33,46 33,45 34,45 34,44 35,44 35,45 36,45 36,50 37,50 37,51 38,51 38,52 42,52 42,51 	"/>
</g>
<g id="shading">
	<rect x="20" y="4" style="&st1;" width="10" height="1"/>
	<rect x="30" y="5" style="&st1;" width="1" height="1"/>
	<rect x="31" y="6" style="&st1;" width="1" height="1"/>
	<rect x="32" y="7" style="&st1;" width="1" height="1"/>
	<rect x="33" y="8" style="&st1;" width="1" height="1"/>
	<rect x="34" y="9" style="&st1;" width="1" height="1"/>
	<rect x="35" y="10" style="&st1;" width="1" height="1"/>
	<rect x="36" y="11" style="&st1;" width="1" height="2"/>
	<rect x="37" y="13" style="&st1;" width="1" height="1"/>
	<rect x="38" y="14" style="&st1;" width="1" height="7"/>
	<rect x="37" y="21" style="&st1;" width="1" height="1"/>
	<rect x="36" y="22" style="&st1;" width="1" height="4"/>
	<rect x="35" y="26" style="&st1;" width="1" height="2"/>
	<rect x="34" y="28" style="&st1;" width="1" height="1"/>
	<polygon style="&st1;" points="32,29 32,32 33,32 33,30 34,30 34,29 	"/>
	<rect x="31" y="32" style="&st1;" width="1" height="1"/>
	<rect x="32" y="33" style="&st1;" width="2" height="1"/>
	<rect x="17" y="33" style="&st1;" width="2" height="1"/>
	<rect x="19" y="32" style="&st1;" width="1" height="1"/>
	<polygon style="&st1;" points="18,30 18,32 19,32 19,29 17,29 17,30 	"/>
	<rect x="16" y="28" style="&st1;" width="1" height="1"/>
	<rect x="15" y="26" style="&st1;" width="1" height="2"/>
	<rect x="14" y="22" style="&st1;" width="1" height="4"/>
	<rect x="13" y="21" style="&st1;" width="1" height="1"/>
	<rect x="12" y="13" style="&st1;" width="1" height="8"/>
	<rect x="13" y="12" style="&st1;" width="1" height="1"/>
	<rect x="14" y="10" style="&st1;" width="1" height="2"/>
	<rect x="15" y="9" style="&st1;" width="1" height="1"/>
	<rect x="16" y="8" style="&st1;" width="1" height="1"/>
	<rect x="17" y="7" style="&st1;" width="1" height="1"/>
	<rect x="18" y="6" style="&st1;" width="1" height="1"/>
	<rect x="19" y="5" style="&st1;" width="1" height="1"/>
</g>
<g id="outlines">
	<rect x="40" y="12" width="1" height="12"/>
	<rect x="9" y="12" width="1" height="8"/>
	<rect x="10" y="20" width="1" height="5"/>
	<rect x="11" y="25" width="1" height="3"/>
	<rect x="12" y="28" width="1" height="1"/>
	<rect x="13" y="29" width="1" height="3"/>
	<polygon points="36,35 36,36 37,36 37,33 36,33 36,34 32,34 32,33 31,33 31,32 32,32 32,29 34,29 34,28 35,28 35,26 36,26 36,22 
		35,22 35,25 34,25 34,27 33,27 33,28 31,28 31,31 30,31 30,32 29,32 29,33 28,33 28,34 23,34 23,33 22,33 22,32 21,32 21,31 20,31 
		20,28 18,28 18,27 17,27 17,26 16,26 16,28 17,28 17,29 19,29 19,32 20,32 20,33 19,33 19,34 15,34 15,32 14,32 14,36 15,36 15,35 
		17,35 17,36 18,36 18,35 20,35 20,34 22,34 22,35 29,35 29,34 31,34 31,35 33,35 33,36 34,36 34,35 	"/>
	<rect x="37" y="29" width="1" height="4"/>
	<rect x="38" y="27" width="1" height="2"/>
	<rect x="39" y="24" width="1" height="3"/>
	<rect x="39" y="9" width="1" height="3"/>
	<rect x="38" y="8" width="1" height="1"/>
	<rect x="37" y="7" width="1" height="1"/>
	<rect x="36" y="6" width="1" height="1"/>
	<rect x="35" y="5" width="1" height="1"/>
	<rect x="34" y="4" width="1" height="1"/>
	<rect x="32" y="3" width="2" height="1"/>
	<rect x="30" y="2" width="2" height="1"/>
	<rect x="20" y="1" width="10" height="1"/>
	<rect x="18" y="2" width="2" height="1"/>
	<rect x="16" y="3" width="2" height="1"/>
	<rect x="15" y="4" width="1" height="1"/>
	<rect x="14" y="5" width="1" height="1"/>
	<rect x="13" y="6" width="1" height="1"/>
	<rect x="12" y="7" width="1" height="1"/>
	<rect x="11" y="8" width="1" height="1"/>
	<rect x="10" y="9" width="1" height="3"/>
	<rect x="37" y="36" width="1" height="1"/>
	<rect x="38" y="37" width="1" height="1"/>
	<rect x="39" y="38" width="1" height="1"/>
	<rect x="40" y="39" width="1" height="11"/>
	<rect x="41" y="50" width="1" height="1"/>
	<rect x="42" y="51" width="1" height="1"/>
	<rect x="8" y="51" width="1" height="1"/>
	<rect x="9" y="50" width="1" height="1"/>
	<rect x="11" y="38" width="1" height="1"/>
	<rect x="12" y="37" width="1" height="1"/>
	<rect x="10" y="39" width="1" height="11"/>
	<rect x="13" y="36" width="1" height="1"/>
	<rect x="15" y="22" width="1" height="4"/>
	<rect x="14" y="21" width="1" height="1"/>
	<rect x="13" y="13" width="1" height="8"/>
	<rect x="14" y="12" width="1" height="1"/>
	<rect x="15" y="10" width="1" height="2"/>
	<rect x="16" y="9" width="1" height="1"/>
	<rect x="17" y="8" width="1" height="1"/>
	<rect x="18" y="7" width="1" height="1"/>
	<rect x="19" y="6" width="1" height="1"/>
	<rect x="20" y="5" width="10" height="1"/>
	<rect x="30" y="6" width="1" height="1"/>
	<rect x="31" y="7" width="1" height="1"/>
	<rect x="32" y="8" width="1" height="1"/>
	<rect x="33" y="9" width="1" height="1"/>
	<rect x="34" y="10" width="1" height="1"/>
	<rect x="35" y="11" width="1" height="2"/>
	<rect x="36" y="13" width="1" height="1"/>
	<rect x="37" y="14" width="1" height="7"/>
	<rect x="36" y="21" width="1" height="1"/>
	<rect x="16" y="36" width="1" height="1"/>
	<rect x="15" y="37" width="1" height="1"/>
	<rect x="14" y="38" width="1" height="1"/>
	<rect x="13" y="39" width="1" height="1"/>
	<rect x="12" y="40" width="1" height="10"/>
	<rect x="11" y="50" width="1" height="1"/>
	<rect x="10" y="51" width="1" height="1"/>
	<rect x="13" y="51" width="1" height="1"/>
	<rect x="14" y="50" width="1" height="1"/>
	<rect x="15" y="45" width="1" height="5"/>
	<rect x="16" y="44" width="1" height="1"/>
	<rect x="17" y="45" width="1" height="1"/>
	<rect x="18" y="46" width="1" height="4"/>
	<rect x="19" y="50" width="1" height="1"/>
	<rect x="20" y="51" width="1" height="1"/>
	<rect x="30" y="51" width="1" height="1"/>
	<rect x="31" y="50" width="1" height="1"/>
	<rect x="32" y="46" width="1" height="4"/>
	<rect x="33" y="45" width="1" height="1"/>
	<rect x="34" y="44" width="1" height="1"/>
	<rect x="35" y="45" width="1" height="5"/>
	<rect x="36" y="50" width="1" height="1"/>
	<rect x="37" y="51" width="1" height="1"/>
	<rect x="40" y="51" width="1" height="1"/>
	<rect x="39" y="50" width="1" height="1"/>
	<rect x="38" y="40" width="1" height="10"/>
	<rect x="37" y="39" width="1" height="1"/>
	<rect x="36" y="38" width="1" height="1"/>
	<rect x="35" y="37" width="1" height="1"/>
	<rect x="34" y="36" width="1" height="1"/>
	<rect x="29" y="41" width="1" height="1"/>
	<rect x="28" y="42" width="1" height="1"/>
	<rect x="27" y="43" width="1" height="1"/>
	<rect x="26" y="44" width="1" height="1"/>
	<rect x="25" y="45" width="1" height="1"/>
	<rect x="24" y="46" width="1" height="1"/>
	<rect x="23" y="45" width="1" height="1"/>
	<rect x="22" y="43" width="1" height="2"/>
</g>
</svg>
