<?xml version="1.0" encoding="utf-8"?>
<!-- Generator: Adobe Illustrator 25.0.1, SVG Export Plug-In . SVG Version: 6.00 Build 0)  -->
<svg version="1.1" id="Layer_1" xmlns="http://www.w3.org/2000/svg" xmlns:xlink="http://www.w3.org/1999/xlink" x="0px" y="0px"
	 viewBox="0 0 52 52" style="enable-background:new 0 0 52 52;" xml:space="preserve">
<style type="text/css">
	.st0{fill:#0049C1;}
	.st1{fill:#004BC2;}
	.st2{fill:#004DC2;}
	.st3{fill:#004FC3;}
	.st4{fill:#0051C4;}
	.st5{fill:#0054C5;}
	.st6{fill:#0056C6;}
	.st7{fill:#0059C7;}
	.st8{fill:#005CC8;}
	.st9{fill:#005FC9;}
	.st10{fill:#0063CA;}
	.st11{fill:#0066CB;}
	.st12{fill:#0069CC;}
	.st13{fill:#006DCD;}
	.st14{fill:#0071CE;}
	.st15{fill:#0074D0;}
	.st16{fill:#0078D1;}
	.st17{fill:#007CD2;}
	.st18{fill:#0080D4;}
	.st19{fill:#0084D5;}
	.st20{fill:#0088D6;}
	.st21{fill:#008CD8;}
	.st22{fill:#0091D9;}
	.st23{fill:#0095DB;}
	.st24{fill:#0099DC;}
	.st25{fill:#009DDE;}
	.st26{fill:#00A2DF;}
	.st27{fill:#00A6E0;}
	.st28{fill:#00AAE2;}
	.st29{fill:#00AEE3;}
	.st30{fill:#00B2E5;}
	.st31{fill:#00B7E6;}
	.st32{fill:#00BBE8;}
	.st33{fill:#00BFE9;}
	.st34{fill:#00C3EA;}
	.st35{fill:#00C7EC;}
	.st36{fill:#00CBED;}
	.st37{fill:#00CFEE;}
	.st38{fill:#00D2F0;}
	.st39{fill:#00D6F1;}
	.st40{fill:#00DAF2;}
	.st41{fill:#00DDF3;}
	.st42{fill:#00E0F4;}
	.st43{fill:#00E4F5;}
	.st44{fill:#00E7F6;}
	.st45{fill:#00EAF7;}
	.st46{fill:#00EDF8;}
	.st47{fill:#00EFF9;}
	.st48{fill:#00F2FA;}
	.st49{fill:#00F4FB;}
	.st50{fill:#00F6FC;}
	.st51{fill:#00F8FC;}
</style>
<rect class="st0" width="52" height="2"/>
<rect y="1" class="st1" width="52" height="2"/>
<rect y="2" class="st2" width="52" height="2"/>
<rect y="3" class="st3" width="52" height="2"/>
<rect y="4" class="st4" width="52" height="2"/>
<rect y="5" class="st5" width="52" height="2"/>
<rect y="6" class="st6" width="52" height="2"/>
<rect y="7" class="st7" width="52" height="2"/>
<rect y="8" class="st8" width="52" height="2"/>
<rect y="9" class="st9" width="52" height="2"/>
<rect y="10" class="st10" width="52" height="2"/>
<rect y="11" class="st11" width="52" height="2"/>
<rect y="12" class="st12" width="52" height="2"/>
<rect y="13" class="st13" width="52" height="2"/>
<rect y="14" class="st14" width="52" height="2"/>
<rect y="15" class="st15" width="52" height="2"/>
<rect y="16" class="st16" width="52" height="2"/>
<rect y="17" class="st17" width="52" height="2"/>
<rect y="18" class="st18" width="52" height="2"/>
<rect y="19" class="st19" width="52" height="2"/>
<rect y="20" class="st20" width="52" height="2"/>
<rect y="21" class="st21" width="52" height="2"/>
<rect y="22" class="st22" width="52" height="2"/>
<rect y="23" class="st23" width="52" height="2"/>
<rect y="24" class="st24" width="52" height="2"/>
<rect y="25" class="st25" width="52" height="2"/>
<rect y="26" class="st26" width="52" height="2"/>
<rect y="27" class="st27" width="52" height="2"/>
<rect y="28" class="st28" width="52" height="2"/>
<rect y="29" class="st29" width="52" height="2"/>
<rect y="30" class="st30" width="52" height="2"/>
<rect y="31" class="st31" width="52" height="2"/>
<rect y="32" class="st32" width="52" height="2"/>
<rect y="33" class="st33" width="52" height="2"/>
<rect y="34" class="st34" width="52" height="2"/>
<rect y="35" class="st35" width="52" height="2"/>
<rect y="36" class="st36" width="52" height="2"/>
<rect y="37" class="st37" width="52" height="2"/>
<rect y="38" class="st38" width="52" height="2"/>
<rect y="39" class="st39" width="52" height="2"/>
<rect y="40" class="st40" width="52" height="2"/>
<rect y="41" class="st41" width="52" height="2"/>
<rect y="42" class="st42" width="52" height="2"/>
<rect y="43" class="st43" width="52" height="2"/>
<rect y="44" class="st44" width="52" height="2"/>
<rect y="45" class="st45" width="52" height="2"/>
<rect y="46" class="st46" width="52" height="2"/>
<rect y="47" class="st47" width="52" height="2"/>
<rect y="48" class="st48" width="52" height="2"/>
<rect y="49" class="st49" width="52" height="2"/>
<rect y="50" class="st50" width="52" height="2"/>
<rect y="51" class="st51" width="52" height="1"/>
</svg>
