<?xml version="1.0" encoding="utf-8"?>
<!-- Generator: Adobe Illustrator 25.0.1, SVG Export Plug-In . SVG Version: 6.00 Build 0)  -->
<!DOCTYPE svg PUBLIC "-//W3C//DTD SVG 1.1//EN" "http://www.w3.org/Graphics/SVG/1.1/DTD/svg11.dtd" [
	<!ENTITY st0 "fill:#0049C1;">
	<!ENTITY st1 "fill:#004BC2;">
	<!ENTITY st2 "fill:#004DC2;">
	<!ENTITY st3 "fill:#004FC3;">
	<!ENTITY st4 "fill:#0051C4;">
	<!ENTITY st5 "fill:#0054C5;">
	<!ENTITY st6 "fill:#0056C6;">
	<!ENTITY st7 "fill:#0059C7;">
	<!ENTITY st8 "fill:#005CC8;">
	<!ENTITY st9 "fill:#005FC9;">
	<!ENTITY st10 "fill:#0063CA;">
	<!ENTITY st11 "fill:#0066CB;">
	<!ENTITY st12 "fill:#0069CC;">
	<!ENTITY st13 "fill:#006DCD;">
	<!ENTITY st14 "fill:#0071CE;">
	<!ENTITY st15 "fill:#0074D0;">
	<!ENTITY st16 "fill:#0078D1;">
	<!ENTITY st17 "fill:#007CD2;">
	<!ENTITY st18 "fill:#0080D4;">
	<!ENTITY st19 "fill:#0084D5;">
	<!ENTITY st20 "fill:#0088D6;">
	<!ENTITY st21 "fill:#008CD8;">
	<!ENTITY st22 "fill:#0091D9;">
	<!ENTITY st23 "fill:#0095DB;">
	<!ENTITY st24 "fill:#0099DC;">
	<!ENTITY st25 "fill:#009DDE;">
	<!ENTITY st26 "fill:#00A2DF;">
	<!ENTITY st27 "fill:#00A6E0;">
	<!ENTITY st28 "fill:#00AAE2;">
	<!ENTITY st29 "fill:#00AEE3;">
	<!ENTITY st30 "fill:#00B2E5;">
	<!ENTITY st31 "fill:#00B7E6;">
	<!ENTITY st32 "fill:#00BBE8;">
	<!ENTITY st33 "fill:#00BFE9;">
	<!ENTITY st34 "fill:#00C3EA;">
	<!ENTITY st35 "fill:#00C7EC;">
	<!ENTITY st36 "fill:#00CBED;">
	<!ENTITY st37 "fill:#00CFEE;">
	<!ENTITY st38 "fill:#00D2F0;">
	<!ENTITY st39 "fill:#00D6F1;">
	<!ENTITY st40 "fill:#00DAF2;">
	<!ENTITY st41 "fill:#00DDF3;">
	<!ENTITY st42 "fill:#00E0F4;">
	<!ENTITY st43 "fill:#00E4F5;">
	<!ENTITY st44 "fill:#00E7F6;">
	<!ENTITY st45 "fill:#00EAF7;">
	<!ENTITY st46 "fill:#00EDF8;">
	<!ENTITY st47 "fill:#00EFF9;">
	<!ENTITY st48 "fill:#00F2FA;">
	<!ENTITY st49 "fill:#00F4FB;">
	<!ENTITY st50 "fill:#00F6FC;">
	<!ENTITY st51 "fill:#00F8FC;">
]>
<svg version="1.1" id="Layer_1" xmlns="http://www.w3.org/2000/svg" xmlns:xlink="http://www.w3.org/1999/xlink" x="0px" y="0px"
	 viewBox="0 0 52 52" style="enable-background:new 0 0 52 52;" xml:space="preserve">
<rect style="&st0;" width="52" height="1"/>
<rect y="1" style="&st1;" width="52" height="1"/>
<rect y="2" style="&st2;" width="52" height="1"/>
<rect y="3" style="&st3;" width="52" height="1"/>
<rect y="4" style="&st4;" width="52" height="1"/>
<rect y="5" style="&st5;" width="52" height="1"/>
<rect y="6" style="&st6;" width="52" height="1"/>
<rect y="7" style="&st7;" width="52" height="1"/>
<rect y="8" style="&st8;" width="52" height="1"/>
<rect y="9" style="&st9;" width="52" height="1"/>
<rect y="10" style="&st10;" width="52" height="1"/>
<rect y="11" style="&st11;" width="52" height="1"/>
<rect y="12" style="&st12;" width="52" height="1"/>
<rect y="13" style="&st13;" width="52" height="1"/>
<rect y="14" style="&st14;" width="52" height="1"/>
<rect y="15" style="&st15;" width="52" height="1"/>
<rect y="16" style="&st16;" width="52" height="1"/>
<rect y="17" style="&st17;" width="52" height="1"/>
<rect y="18" style="&st18;" width="52" height="1"/>
<rect y="19" style="&st19;" width="52" height="1"/>
<rect y="20" style="&st20;" width="52" height="1"/>
<rect y="21" style="&st21;" width="52" height="1"/>
<rect y="22" style="&st22;" width="52" height="1"/>
<rect y="23" style="&st23;" width="52" height="1"/>
<rect y="24" style="&st24;" width="52" height="1"/>
<rect y="25" style="&st25;" width="52" height="1"/>
<rect y="26" style="&st26;" width="52" height="1"/>
<rect y="27" style="&st27;" width="52" height="1"/>
<rect y="28" style="&st28;" width="52" height="1"/>
<rect y="29" style="&st29;" width="52" height="1"/>
<rect y="30" style="&st30;" width="52" height="1"/>
<rect y="31" style="&st31;" width="52" height="1"/>
<rect y="32" style="&st32;" width="52" height="1"/>
<rect y="33" style="&st33;" width="52" height="1"/>
<rect y="34" style="&st34;" width="52" height="1"/>
<rect y="35" style="&st35;" width="52" height="1"/>
<rect y="36" style="&st36;" width="52" height="1"/>
<rect y="37" style="&st37;" width="52" height="1"/>
<rect y="38" style="&st38;" width="52" height="1"/>
<rect y="39" style="&st39;" width="52" height="1"/>
<rect y="40" style="&st40;" width="52" height="1"/>
<rect y="41" style="&st41;" width="52" height="1"/>
<rect y="42" style="&st42;" width="52" height="1"/>
<rect y="43" style="&st43;" width="52" height="1"/>
<rect y="44" style="&st44;" width="52" height="1"/>
<rect y="45" style="&st45;" width="52" height="1"/>
<rect y="46" style="&st46;" width="52" height="1"/>
<rect y="47" style="&st47;" width="52" height="1"/>
<rect y="48" style="&st48;" width="52" height="1"/>
<rect y="49" style="&st49;" width="52" height="1"/>
<rect y="50" style="&st50;" width="52" height="1"/>
<rect y="51" style="&st51;" width="52" height="1"/>
</svg>
