<?xml version="1.0" encoding="utf-8"?>
<!-- Generator: Adobe Illustrator 25.0.1, SVG Export Plug-In . SVG Version: 6.00 Build 0)  -->
<!DOCTYPE svg PUBLIC "-//W3C//DTD SVG 1.1//EN" "http://www.w3.org/Graphics/SVG/1.1/DTD/svg11.dtd" [
	<!ENTITY st0 "fill:#0049C1;">
	<!ENTITY st1 "fill:#004CC2;">
	<!ENTITY st2 "fill:#0050C4;">
	<!ENTITY st3 "fill:#0055C5;">
	<!ENTITY st4 "fill:#005AC7;">
	<!ENTITY st5 "fill:#0060C9;">
	<!ENTITY st6 "fill:#0066CB;">
	<!ENTITY st7 "fill:#006DCD;">
	<!ENTITY st8 "fill:#0074D0;">
	<!ENTITY st9 "fill:#007BD2;">
	<!ENTITY st10 "fill:#0082D4;">
	<!ENTITY st11 "fill:#008AD7;">
	<!ENTITY st12 "fill:#0092DA;">
	<!ENTITY st13 "fill:#0099DC;">
	<!ENTITY st14 "fill:#00A1DF;">
	<!ENTITY st15 "fill:#00A9E2;">
	<!ENTITY st16 "fill:#00B1E4;">
	<!ENTITY st17 "fill:#00B9E7;">
	<!ENTITY st18 "fill:#00C0EA;">
	<!ENTITY st19 "fill:#00C8EC;">
	<!ENTITY st20 "fill:#00CFEE;">
	<!ENTITY st21 "fill:#00D6F1;">
	<!ENTITY st22 "fill:#00DDF3;">
	<!ENTITY st23 "fill:#00E3F5;">
	<!ENTITY st24 "fill:#00E8F7;">
	<!ENTITY st25 "fill:#00EEF9;">
	<!ENTITY st26 "fill:#00F2FA;">
	<!ENTITY st27 "fill:#00F7FC;">
	<!ENTITY st28 "fill:#004EC3;">
	<!ENTITY st29 "fill:#0054C5;">
	<!ENTITY st30 "fill:#005BC7;">
	<!ENTITY st31 "fill:#0064CA;">
	<!ENTITY st32 "fill:#0076D0;">
	<!ENTITY st33 "fill:#0081D4;">
	<!ENTITY st34 "fill:#008BD8;">
	<!ENTITY st35 "fill:#0096DB;">
	<!ENTITY st36 "fill:#00ACE3;">
	<!ENTITY st37 "fill:#00B7E6;">
	<!ENTITY st38 "fill:#00C2EA;">
	<!ENTITY st39 "fill:#00CCEE;">
	<!ENTITY st40 "fill:#00DFF4;">
	<!ENTITY st41 "fill:#00E7F7;">
]>
<svg version="1.1" id="Layer_1" xmlns="http://www.w3.org/2000/svg" xmlns:xlink="http://www.w3.org/1999/xlink" x="0px" y="0px"
	 viewBox="0 0 52 52" style="enable-background:new 0 0 52 52;" xml:space="preserve">
<g id="skin_1_">
	<rect x="20" y="6" style="&st0;" width="10" height="1"/>
	<rect x="19" y="7" style="&st1;" width="12" height="1"/>
	<rect x="18" y="8" style="&st2;" width="14" height="1"/>
	<rect x="17" y="9" style="&st3;" width="16" height="1"/>
	<rect x="16" y="10" style="&st4;" width="18" height="1"/>
	<rect x="16" y="11" style="&st5;" width="19" height="1"/>
	<rect x="15" y="12" style="&st6;" width="20" height="1"/>
	<rect x="14" y="13" style="&st7;" width="22" height="1"/>
	<rect x="14" y="14" style="&st8;" width="23" height="1"/>
	<rect x="14" y="15" style="&st9;" width="23" height="1"/>
	<rect x="14" y="16" style="&st10;" width="23" height="1"/>
	<rect x="14" y="17" style="&st11;" width="23" height="1"/>
	<rect x="14" y="18" style="&st12;" width="23" height="1"/>
	<rect x="14" y="19" style="&st13;" width="23" height="1"/>
	<rect x="14" y="20" style="&st14;" width="23" height="1"/>
	<rect x="32" y="21" style="&st15;" width="4" height="1"/>
	<rect x="22" y="21" style="&st15;" width="7" height="1"/>
	<rect x="15" y="21" style="&st15;" width="4" height="1"/>
	<rect x="16" y="22" style="&st16;" width="2" height="1"/>
	<rect x="23" y="22" style="&st16;" width="5" height="1"/>
	<rect x="33" y="22" style="&st16;" width="2" height="1"/>
	<rect x="16" y="23" style="&st17;" width="2" height="1"/>
	<rect x="16" y="24" style="&st18;" width="3" height="1"/>
	<rect x="24" y="23" style="&st17;" width="3" height="1"/>
	<rect x="33" y="23" style="&st17;" width="2" height="1"/>
	<rect x="32" y="24" style="&st18;" width="3" height="1"/>
	<rect x="31" y="25" style="&st19;" width="3" height="1"/>
	<rect x="30" y="26" style="&st20;" width="4" height="1"/>
	<rect x="23" y="26" style="&st20;" width="5" height="1"/>
	<rect x="24" y="25" style="&st19;" width="3" height="1"/>
	<rect x="24" y="24" style="&st18;" width="3" height="1"/>
	<rect x="16" y="25" style="&st19;" width="4" height="1"/>
	<rect x="17" y="26" style="&st20;" width="4" height="1"/>
	<rect x="18" y="27" style="&st21;" width="15" height="1"/>
	<rect x="20" y="28" style="&st22;" width="11" height="1"/>
	<rect x="20" y="29" style="&st23;" width="11" height="1"/>
	<rect x="20" y="30" style="&st24;" width="11" height="1"/>
	<rect x="21" y="31" style="&st25;" width="9" height="1"/>
	<rect x="22" y="32" style="&st26;" width="7" height="1"/>
	<rect x="23" y="33" style="&st27;" width="5" height="1"/>
	<rect x="19" y="34" style="&st0;" width="13" height="1"/>
	<rect x="15" y="35" style="&st28;" width="21" height="1"/>
	<rect x="14" y="36" style="&st29;" width="23" height="1"/>
	<rect x="13" y="37" style="&st30;" width="25" height="1"/>
	<rect x="12" y="38" style="&st31;" width="27" height="1"/>
	<rect x="11" y="39" style="&st7;" width="29" height="1"/>
	<rect x="11" y="40" style="&st32;" width="29" height="1"/>
	<rect x="11" y="41" style="&st33;" width="29" height="1"/>
	<rect x="11" y="42" style="&st34;" width="29" height="1"/>
	<rect x="11" y="43" style="&st35;" width="29" height="1"/>
	<rect x="11" y="44" style="&st14;" width="29" height="1"/>
	<rect x="11" y="45" style="&st36;" width="4" height="1"/>
	<rect x="11" y="46" style="&st37;" width="4" height="1"/>
	<rect x="11" y="47" style="&st38;" width="4" height="1"/>
	<rect x="11" y="48" style="&st39;" width="4" height="1"/>
	<rect x="11" y="49" style="&st21;" width="4" height="1"/>
	<rect x="10" y="50" style="&st40;" width="4" height="1"/>
	<rect x="9" y="51" style="&st41;" width="4" height="1"/>
	<rect x="18" y="45" style="&st36;" width="15" height="1"/>
	<rect x="36" y="45" style="&st36;" width="4" height="1"/>
	<rect x="36" y="46" style="&st37;" width="4" height="1"/>
	<rect x="36" y="47" style="&st38;" width="4" height="1"/>
	<rect x="36" y="48" style="&st39;" width="4" height="1"/>
	<rect x="36" y="49" style="&st21;" width="4" height="1"/>
	<rect x="37" y="50" style="&st40;" width="4" height="1"/>
	<rect x="38" y="51" style="&st41;" width="4" height="1"/>
	<rect x="19" y="46" style="&st37;" width="13" height="1"/>
	<rect x="19" y="47" style="&st38;" width="13" height="1"/>
	<rect x="19" y="48" style="&st39;" width="13" height="1"/>
	<rect x="19" y="49" style="&st21;" width="13" height="1"/>
	<rect x="20" y="50" style="&st40;" width="11" height="1"/>
	<rect x="21" y="51" style="&st41;" width="9" height="1"/>
</g>
<g id="outline">
	<rect x="30" y="6" width="1" height="1"/>
	<rect x="31" y="7" width="1" height="1"/>
	<rect x="32" y="8" width="1" height="1"/>
	<rect x="33" y="9" width="1" height="1"/>
	<rect x="34" y="10" width="1" height="1"/>
	<rect x="35" y="11" width="1" height="2"/>
	<rect x="36" y="13" width="1" height="1"/>
	<rect x="37" y="14" width="1" height="7"/>
	<rect x="36" y="21" width="1" height="1"/>
	<polygon points="31,33 31,32 32,32 32,29 34,29 34,28 35,28 35,26 36,26 36,22 35,22 35,25 34,25 34,27 33,27 33,28 31,28 31,31 
		30,31 30,32 29,32 29,33 28,33 28,34 23,34 23,33 22,33 22,32 21,32 21,31 20,31 20,28 18,28 18,27 17,27 17,25 16,25 16,22 15,22 
		15,26 16,26 16,28 17,28 17,29 19,29 19,32 20,32 20,33 19,33 19,34 22,34 22,35 29,35 29,34 32,34 32,33 	"/>
	<rect x="20" y="5" width="10" height="1"/>
	<rect x="32" y="34" width="4" height="1"/>
	<rect x="36" y="35" width="1" height="1"/>
	<rect x="37" y="36" width="1" height="1"/>
	<rect x="38" y="37" width="1" height="1"/>
	<rect x="39" y="38" width="1" height="1"/>
	<rect x="40" y="39" width="1" height="11"/>
	<rect x="41" y="50" width="1" height="1"/>
	<rect x="42" y="51" width="1" height="1"/>
	<rect x="37" y="51" width="1" height="1"/>
	<rect x="36" y="50" width="1" height="1"/>
	<rect x="35" y="45" width="1" height="5"/>
	<rect x="34" y="44" width="1" height="1"/>
	<rect x="33" y="45" width="1" height="1"/>
	<rect x="32" y="46" width="1" height="4"/>
	<rect x="31" y="50" width="1" height="1"/>
	<rect x="30" y="51" width="1" height="1"/>
	<polygon points="23,30 23,31 24,31 24,32 27,32 27,31 28,31 28,30 	"/>
	<rect x="27" y="23" width="1" height="3"/>
	<rect x="28" y="26" width="2" height="1"/>
	<rect x="31" y="24" width="1" height="1"/>
	<rect x="31" y="21" width="1" height="1"/>
	<rect x="32" y="22" width="1" height="2"/>
	<rect x="30" y="25" width="1" height="1"/>
	<rect x="30" y="20" width="1" height="1"/>
	<rect x="29" y="21" width="1" height="1"/>
	<rect x="28" y="22" width="1" height="1"/>
	<rect x="23" y="10" width="4" height="1"/>
	<rect x="24" y="14" width="2" height="1"/>
	<rect x="26" y="15" width="1" height="1"/>
	<rect x="27" y="16" width="1" height="1"/>
	<rect x="32" y="16" width="1" height="1"/>
	<rect x="31" y="15" width="1" height="1"/>
	<rect x="30" y="14" width="1" height="1"/>
	<rect x="29" y="13" width="1" height="1"/>
	<rect x="28" y="12" width="1" height="1"/>
	<rect x="27" y="11" width="1" height="1"/>
	<rect x="19" y="6" width="1" height="1"/>
	<rect x="18" y="7" width="1" height="1"/>
	<rect x="17" y="8" width="1" height="1"/>
	<rect x="16" y="9" width="1" height="1"/>
	<rect x="15" y="10" width="1" height="2"/>
	<rect x="14" y="12" width="1" height="1"/>
	<rect x="13" y="13" width="1" height="8"/>
	<rect x="14" y="21" width="1" height="1"/>
	<rect x="15" y="34" width="4" height="1"/>
	<rect x="14" y="35" width="1" height="1"/>
	<rect x="13" y="36" width="1" height="1"/>
	<rect x="12" y="37" width="1" height="1"/>
	<rect x="11" y="38" width="1" height="1"/>
	<rect x="10" y="39" width="1" height="11"/>
	<rect x="9" y="50" width="1" height="1"/>
	<rect x="8" y="51" width="1" height="1"/>
	<rect x="13" y="51" width="1" height="1"/>
	<rect x="14" y="50" width="1" height="1"/>
	<rect x="15" y="45" width="1" height="5"/>
	<rect x="16" y="44" width="1" height="1"/>
	<rect x="17" y="45" width="1" height="1"/>
	<rect x="18" y="46" width="1" height="4"/>
	<rect x="19" y="50" width="1" height="1"/>
	<rect x="20" y="51" width="1" height="1"/>
	<rect x="23" y="23" width="1" height="3"/>
	<rect x="21" y="26" width="2" height="1"/>
	<rect x="19" y="24" width="1" height="1"/>
	<rect x="19" y="21" width="1" height="1"/>
	<rect x="18" y="22" width="1" height="2"/>
	<rect x="20" y="25" width="1" height="1"/>
	<rect x="20" y="20" width="1" height="1"/>
	<rect x="21" y="21" width="1" height="1"/>
	<rect x="22" y="22" width="1" height="1"/>
	<rect x="23" y="15" width="1" height="1"/>
	<rect x="22" y="16" width="1" height="1"/>
	<rect x="17" y="16" width="1" height="1"/>
	<rect x="18" y="15" width="1" height="1"/>
	<rect x="19" y="14" width="1" height="1"/>
	<rect x="20" y="13" width="1" height="1"/>
	<rect x="21" y="12" width="1" height="1"/>
	<rect x="22" y="11" width="1" height="1"/>
</g>
</svg>
