<?xml version="1.0" encoding="utf-8"?>
<!-- Generator: Adobe Illustrator 25.0.1, SVG Export Plug-In . SVG Version: 6.00 Build 0)  -->
<!DOCTYPE svg PUBLIC "-//W3C//DTD SVG 1.1//EN" "http://www.w3.org/Graphics/SVG/1.1/DTD/svg11.dtd" [
	<!ENTITY st0 "fill:#F86503;">
	<!ENTITY st1 "opacity:0.2;">
]>
<svg version="1.1" id="Layer_1" xmlns="http://www.w3.org/2000/svg" xmlns:xlink="http://www.w3.org/1999/xlink" x="0px" y="0px"
	 viewBox="0 0 52 52" style="enable-background:new 0 0 52 52;" xml:space="preserve">
<path id="skin" style="&st0;" d="M41,51v-1h-1V39h-1v-1h-1v-1h-1v-1h-1v-1h-4v-1h-2v-3h1v-3h2v-1h1v-2h1v-3h1v-1h1v-7h-1v-1h-1v-2
	h-1v-1h-1V9h-1V8h-1V7h-1V6H20v1h-1v1h-1v1h-1v1h-1v2h-1v1h-1v8h1v1h1v3h1v2h1v1h2v3h1v3h-2v1h-4v1h-1v1h-1v1h-1v1h-1v11h-1v1H9v1h4
	v-1h1v-1h1v-5h1v-1h1v1h1v1h1v4h1v1h1v1h9v-1h1v-1h1v-4h1v-1h1v-1h1v1h1v5h1v1h1v1h4v-1H41z M27,23h1v-1h1v-1h1v-1h1v1h1v1h1v2h-1v1
	h-1v1h-1v1h-2v-1h-1V23z M20,26v-1h-1v-1h-1v-2h1v-1h1v-1h1v1h1v1h1v1h1v3h-1v1h-2v-1H20z"/>
<g id="outline">
	<rect x="30" y="6" width="1" height="1"/>
	<rect x="31" y="7" width="1" height="1"/>
	<rect x="32" y="8" width="1" height="1"/>
	<rect x="33" y="9" width="1" height="1"/>
	<rect x="34" y="10" width="1" height="1"/>
	<rect x="35" y="11" width="1" height="2"/>
	<rect x="36" y="13" width="1" height="1"/>
	<rect x="37" y="14" width="1" height="7"/>
	<rect x="36" y="21" width="1" height="1"/>
	<polygon points="31,33 31,32 32,32 32,29 34,29 34,28 35,28 35,26 36,26 36,22 35,22 35,25 34,25 34,27 33,27 33,28 31,28 31,31 
		30,31 30,32 29,32 29,33 28,33 28,34 23,34 23,33 22,33 22,32 21,32 21,31 20,31 20,28 18,28 18,27 17,27 17,25 16,25 16,22 15,22 
		15,26 16,26 16,28 17,28 17,29 19,29 19,32 20,32 20,33 19,33 19,34 22,34 22,35 29,35 29,34 32,34 32,33 	"/>
	<rect x="20" y="5" width="10" height="1"/>
	<rect x="32" y="34" width="4" height="1"/>
	<rect x="36" y="35" width="1" height="1"/>
	<rect x="37" y="36" width="1" height="1"/>
	<rect x="38" y="37" width="1" height="1"/>
	<rect x="39" y="38" width="1" height="1"/>
	<rect x="40" y="39" width="1" height="11"/>
	<rect x="41" y="50" width="1" height="1"/>
	<rect x="42" y="51" width="1" height="1"/>
	<rect x="37" y="51" width="1" height="1"/>
	<rect x="36" y="50" width="1" height="1"/>
	<rect x="35" y="45" width="1" height="5"/>
	<rect x="34" y="44" width="1" height="1"/>
	<rect x="33" y="45" width="1" height="1"/>
	<rect x="32" y="46" width="1" height="4"/>
	<rect x="31" y="50" width="1" height="1"/>
	<rect x="30" y="51" width="1" height="1"/>
	<polygon points="23,30 23,31 24,31 24,32 27,32 27,31 28,31 28,30 	"/>
	<rect x="27" y="23" width="1" height="3"/>
	<rect x="28" y="26" width="2" height="1"/>
	<rect x="31" y="24" width="1" height="1"/>
	<rect x="31" y="21" width="1" height="1"/>
	<rect x="32" y="22" width="1" height="2"/>
	<rect x="30" y="25" width="1" height="1"/>
	<rect x="30" y="20" width="1" height="1"/>
	<rect x="29" y="21" width="1" height="1"/>
	<rect x="28" y="22" width="1" height="1"/>
	<rect x="23" y="10" width="4" height="1"/>
	<rect x="24" y="14" width="2" height="1"/>
	<rect x="26" y="15" width="1" height="1"/>
	<rect x="27" y="16" width="1" height="1"/>
	<rect x="32" y="16" width="1" height="1"/>
	<rect x="31" y="15" width="1" height="1"/>
	<rect x="30" y="14" width="1" height="1"/>
	<rect x="29" y="13" width="1" height="1"/>
	<rect x="28" y="12" width="1" height="1"/>
	<rect x="27" y="11" width="1" height="1"/>
	<rect x="19" y="6" width="1" height="1"/>
	<rect x="18" y="7" width="1" height="1"/>
	<rect x="17" y="8" width="1" height="1"/>
	<rect x="16" y="9" width="1" height="1"/>
	<rect x="15" y="10" width="1" height="2"/>
	<rect x="14" y="12" width="1" height="1"/>
	<rect x="13" y="13" width="1" height="8"/>
	<rect x="14" y="21" width="1" height="1"/>
	<rect x="15" y="34" width="4" height="1"/>
	<rect x="14" y="35" width="1" height="1"/>
	<rect x="13" y="36" width="1" height="1"/>
	<rect x="12" y="37" width="1" height="1"/>
	<rect x="11" y="38" width="1" height="1"/>
	<rect x="10" y="39" width="1" height="11"/>
	<rect x="9" y="50" width="1" height="1"/>
	<rect x="8" y="51" width="1" height="1"/>
	<rect x="13" y="51" width="1" height="1"/>
	<rect x="14" y="50" width="1" height="1"/>
	<rect x="15" y="45" width="1" height="5"/>
	<rect x="16" y="44" width="1" height="1"/>
	<rect x="17" y="45" width="1" height="1"/>
	<rect x="18" y="46" width="1" height="4"/>
	<rect x="19" y="50" width="1" height="1"/>
	<rect x="20" y="51" width="1" height="1"/>
	<rect x="23" y="23" width="1" height="3"/>
	<rect x="21" y="26" width="2" height="1"/>
	<rect x="19" y="24" width="1" height="1"/>
	<rect x="19" y="21" width="1" height="1"/>
	<rect x="18" y="22" width="1" height="2"/>
	<rect x="20" y="25" width="1" height="1"/>
	<rect x="20" y="20" width="1" height="1"/>
	<rect x="21" y="21" width="1" height="1"/>
	<rect x="22" y="22" width="1" height="1"/>
	<rect x="23" y="15" width="1" height="1"/>
	<rect x="22" y="16" width="1" height="1"/>
	<rect x="17" y="16" width="1" height="1"/>
	<rect x="18" y="15" width="1" height="1"/>
	<rect x="19" y="14" width="1" height="1"/>
	<rect x="20" y="13" width="1" height="1"/>
	<rect x="21" y="12" width="1" height="1"/>
	<rect x="22" y="11" width="1" height="1"/>
</g>
<g id="shading" style="&st1;">
	<rect x="18" y="21" width="1" height="1"/>
	<rect x="19" y="20" width="1" height="1"/>
	<rect x="20" y="19" width="1" height="1"/>
	<rect x="21" y="20" width="1" height="1"/>
	<rect x="22" y="21" width="1" height="1"/>
	<rect x="23" y="22" width="1" height="1"/>
	<rect x="24" y="23" width="1" height="2"/>
	<rect x="26" y="23" width="1" height="2"/>
	<rect x="27" y="22" width="1" height="1"/>
	<rect x="28" y="21" width="1" height="1"/>
	<rect x="29" y="20" width="1" height="1"/>
	<rect x="30" y="19" width="1" height="1"/>
	<rect x="31" y="20" width="1" height="1"/>
	<rect x="32" y="21" width="1" height="1"/>
	<rect x="29" y="34" width="3" height="1"/>
	<rect x="19" y="34" width="3" height="1"/>
	<rect x="15" y="35" width="2" height="1"/>
	<rect x="14" y="36" width="1" height="1"/>
	<rect x="13" y="37" width="1" height="1"/>
	<rect x="12" y="38" width="1" height="1"/>
	<rect x="11" y="39" width="1" height="7"/>
	<rect x="13" y="50" width="1" height="1"/>
	<rect x="14" y="48" width="1" height="2"/>
	<rect x="15" y="44" width="1" height="1"/>
	<rect x="16" y="43" width="1" height="1"/>
	<rect x="17" y="44" width="1" height="1"/>
	<rect x="18" y="45" width="1" height="1"/>
	<rect x="32" y="45" width="1" height="1"/>
	<rect x="33" y="44" width="1" height="1"/>
	<rect x="34" y="43" width="1" height="1"/>
	<rect x="35" y="44" width="1" height="1"/>
	<rect x="36" y="48" width="1" height="2"/>
	<rect x="37" y="50" width="1" height="1"/>
	<rect x="39" y="39" width="1" height="7"/>
	<rect x="38" y="38" width="1" height="1"/>
	<rect x="37" y="37" width="1" height="1"/>
	<rect x="36" y="36" width="1" height="1"/>
	<rect x="34" y="35" width="2" height="1"/>
</g>
</svg>
